<svg width="800" height="800" viewBox="0 0 800 800" fill="none" xmlns="http://www.w3.org/2000/svg">
<path d="M781.25 399.062C781.27 450.62 770.806 501.643 750.494 549.031C730.182 596.418 700.446 639.181 663.094 674.719H139.719C129.782 666 120.39 656.68 111.594 646.812L109.031 643.687C87.1563 617.656 16.2813 525.312 19.9688 398.969C25 224 172.094 18.3438 400.563 18.3438C450.558 18.3437 500.063 28.1916 546.253 47.3248C592.442 66.4581 634.41 94.5022 669.76 129.856C705.111 165.209 733.151 207.179 752.281 253.37C771.41 299.561 781.254 349.067 781.25 399.062Z" fill="#A09BFC"/>
<path d="M399.906 197.344C438.411 197.344 469.625 166.13 469.625 127.625C469.625 89.1204 438.411 57.9062 399.906 57.9062C361.402 57.9062 330.188 89.1204 330.188 127.625C330.188 166.13 361.402 197.344 399.906 197.344Z" fill="#2D2D2D"/>
<path opacity="0.2" d="M399.906 197.344C438.411 197.344 469.625 166.13 469.625 127.625C469.625 89.1204 438.411 57.9062 399.906 57.9062C361.402 57.9062 330.188 89.1204 330.188 127.625C330.188 166.13 361.402 197.344 399.906 197.344Z" fill="#050505"/>
<path d="M692.062 643.75C683.003 654.595 673.331 664.914 663.094 674.656C592.323 742.066 498.331 779.663 400.594 779.656C319.531 779.656 251.844 751.531 202.281 721C180.138 707.402 159.225 691.896 139.781 674.656C129.824 665.949 120.43 656.618 111.656 646.719C110.906 645.875 110 644.875 109.062 643.594C132.451 620.161 159.05 600.169 188.062 584.219C215.432 569.076 244.443 557.112 274.531 548.562C316.406 585.563 358.229 622.542 400 659.5C442.292 622.5 484.531 585.521 526.719 548.562C527.594 548.844 528.5 549.063 529.375 549.313C529.659 549.457 529.965 549.553 530.281 549.594C559.022 558.068 586.773 569.591 613.062 583.969C642.058 600.109 668.65 620.232 692.062 643.75Z" fill="#E59973"/>
<path d="M526.594 548.875C484.385 585.875 442.188 622.854 400 659.812C358.229 622.812 316.406 585.833 274.531 548.875C280.811 546.383 287.369 544.663 294.062 543.75C329.312 573.958 364.563 604.167 399.813 634.375C435.5 604.104 471.198 573.896 506.906 543.75C513.642 544.705 520.247 546.424 526.594 548.875Z" fill="#A56646"/>
<path d="M506.906 543.75C471.219 573.958 435.521 604.167 399.813 634.375C364.521 604.167 329.271 573.958 294.062 543.75C298.594 542.656 303.438 541.625 308.125 540.625C312.812 539.625 316.906 538.906 321.156 538.219C323.268 532.964 325.002 527.565 326.344 522.062C327.031 518.937 327.594 516.156 328.063 513.406C332.371 516.923 336.901 520.159 341.625 523.094C346.149 525.898 350.823 528.454 355.625 530.75C368.942 536.801 383.294 540.249 397.906 540.906C414.13 540.539 430.097 536.782 444.781 529.875C450.064 527.213 455.206 524.282 460.187 521.094C465 517.969 468.969 514.844 471.969 512.469C472.875 516.5 473.969 520.75 475.344 525.219C476.719 529.688 478.156 534.187 479.719 538.219C483.437 538.844 487.187 539.531 491.094 540.344C496.573 541.365 501.844 542.5 506.906 543.75Z" fill="#EAB198"/>
<path opacity="0.2" d="M530.156 550C527.531 552.937 524.875 555.844 522.125 558.563C516.034 564.736 509.484 570.44 502.531 575.625C493.404 582.464 483.438 588.104 472.875 592.406C466.215 595.172 459.295 597.266 452.219 598.656C445.99 599.855 439.654 600.399 433.313 600.281C420.865 600.054 408.57 597.5 397.062 592.75L395 591.937C385.84 587.999 377.159 583.029 369.125 577.125C353.975 565.83 340.616 552.313 329.5 537.031C327.719 534.656 326 532.187 324.312 529.625C324.625 528.531 324.969 527.438 325.25 526.281C326.436 522.111 327.375 517.874 328.063 513.594C329.906 515.125 331.781 516.563 333.688 517.938C338.767 521.644 344.104 524.986 349.656 527.938C350.188 528.188 350.75 528.531 351.281 528.813L353.281 529.844L355.625 530.937L356.969 531.563L358.156 532.094L359.594 532.719L360.969 533.281C361.185 533.397 361.416 533.481 361.656 533.531C362.18 533.8 362.723 534.03 363.281 534.219L365.406 535L367.688 535.75L368.156 535.938L369.812 536.438C370.562 536.719 371.375 536.969 372.187 537.187C372.57 537.248 372.947 537.342 373.313 537.469L375.5 538.062C380.155 539.266 384.9 540.091 389.687 540.531C390.181 540.634 390.683 540.687 391.188 540.688C391.51 540.718 391.834 540.718 392.156 540.688C392.844 540.688 393.438 540.688 394.125 540.688C394.813 540.688 395.219 540.688 395.844 540.844H399.531C409.856 540.787 420.108 539.1 429.906 535.844C429.968 535.856 430.032 535.856 430.094 535.844C430.499 535.737 430.896 535.601 431.281 535.437C433.312 534.844 435.313 534 437.375 533.25L437.906 532.969C438.813 532.625 439.625 532.219 440.531 531.875L441.219 531.594C450.33 527.485 458.965 522.392 466.969 516.406L472.031 512.5C473 516.75 474.156 521.344 475.594 526.125C476.906 530.438 478.344 534.5 479.781 538.25L483.219 538.875L486.625 539.5L490 540.094C490.813 540.313 491.656 540.437 492.531 540.656C493.089 540.741 493.642 540.856 494.188 541C498.438 541.875 502.688 542.781 506.844 543.813C513.5 545.375 520 547.094 526.531 548.938L530.156 550Z" fill="black"/>
<path d="M581.875 374.219C581.375 390.438 571.031 406.844 559.438 412.875C557.881 413.698 556.235 414.338 554.531 414.781H554.156C552.058 415.295 549.875 415.359 547.75 414.969C545.497 414.516 543.367 413.59 541.5 412.25L540.625 411.594C539.344 410.558 538.172 409.396 537.125 408.125C528.781 398.063 525.375 379.156 530.875 364.094C533.134 358.249 536.57 352.931 540.969 348.469C544.684 344.48 549.485 341.666 554.781 340.375C557.225 339.875 559.744 339.875 562.187 340.375C575.937 343 582.281 360.656 581.875 374.219Z" fill="#EAB198"/>
<path opacity="0.3" d="M581.875 374.219C581.344 390.438 571 406.844 559.406 412.938C557.848 413.717 556.215 414.334 554.531 414.781H554.125C552.073 415.244 549.954 415.318 547.875 415C545.622 414.531 543.493 413.594 541.625 412.25L540.75 411.563C539.462 410.547 538.289 409.394 537.25 408.125C528.875 398.063 525.469 379.156 531 364.063C533.24 358.216 536.666 352.896 541.062 348.438C543.862 345.546 547.194 343.222 550.875 341.594C552.171 341.037 553.522 340.618 554.906 340.344C557.349 339.843 559.869 339.843 562.312 340.344C562.684 340.408 563.05 340.502 563.406 340.625C576.25 343.938 582.281 361.063 581.875 374.219Z" fill="black"/>
<path d="M263.813 408.187C262.537 409.744 261.066 411.13 259.438 412.312C257.566 413.649 255.438 414.585 253.188 415.062C251.111 415.405 248.986 415.33 246.938 414.844H246.563C244.859 414.4 243.213 413.761 241.657 412.937C230.063 406.906 219.782 390.5 219.219 374.281C218.813 360.719 225.156 343.031 238.938 340.281C246.781 338.719 254.25 342.5 260.156 348.437C264.556 352.899 267.991 358.218 270.25 364.062C275.594 379.219 272.156 398.125 263.813 408.187Z" fill="#EAB198"/>
<path d="M554.75 340.281C554.75 341.531 554.75 342.813 554.531 344.125C553.04 367.171 548.316 389.894 540.5 411.625C525.969 452.531 501.5 488.781 472.094 512.438L467.031 516.344C459.027 522.33 450.393 527.423 441.281 531.531L440.594 531.813C439.687 532.156 438.875 532.563 437.969 532.906L437.437 533.188C435.375 533.938 433.375 534.781 431.344 535.375C430.958 535.539 430.561 535.675 430.156 535.781C430.094 535.793 430.031 535.793 429.969 535.781C420.17 539.037 409.919 540.725 399.594 540.781H395.906C395.281 540.781 394.75 540.781 394.187 540.625C393.625 540.469 392.906 540.625 392.219 540.625C391.897 540.656 391.572 540.656 391.25 540.625C390.746 540.624 390.243 540.572 389.75 540.469C384.962 540.029 380.217 539.203 375.562 538L373.375 537.406C373.009 537.28 372.632 537.185 372.25 537.125C371.437 536.906 370.625 536.656 369.875 536.375L368.219 535.875L367.75 535.688L365.469 534.938L363.344 534.156C362.786 533.967 362.243 533.737 361.719 533.469C361.479 533.418 361.247 533.334 361.031 533.219L359.656 532.656L358.219 532.031L357.031 531.5L355.687 530.875L353.344 529.781L351.344 528.75C350.812 528.469 350.25 528.125 349.719 527.875C344.166 524.923 338.83 521.582 333.75 517.875C331.844 516.5 329.969 515.063 328.125 513.531C323.243 509.67 318.619 505.495 314.281 501.031C309.698 496.589 305.378 491.883 301.344 486.938C282.468 463.67 268.02 437.137 258.719 408.656C252.573 390.137 248.599 370.967 246.875 351.531C246.594 348.406 246.406 345.094 246.281 341.875C245.691 330.533 246.025 319.162 247.281 307.875C247.781 303.281 248.469 298.781 249.281 294.25C250.279 288.636 251.561 283.077 253.125 277.594C256.695 264.065 261.507 250.894 267.5 238.25C280.719 210.5 300 184.375 323.687 165.813C345.562 148.906 371.094 138.219 400.031 138.156C446.531 137.938 485.062 165.281 512 202.063C522.938 217.022 531.976 233.282 538.906 250.469C540.687 254.781 542.344 259.094 543.844 263.469C547.27 273.519 549.954 283.807 551.875 294.25C552.625 298.625 553.312 303.094 553.781 307.531C554.917 318.409 555.241 329.356 554.75 340.281Z" fill="#EAB198"/>
<path opacity="0.2" d="M506.25 350.312C490.781 349.875 466.25 336.812 452.594 327.562C412.5 300.406 381.438 248.75 359.031 247.719C356.632 247.598 354.233 247.949 351.969 248.75C341.844 252.5 338.406 265.75 334.781 278.562C330.313 294.375 327.375 304.594 325.406 311.156C325.188 293.156 324.844 273.656 335.75 245.531C339.031 237.25 343.094 228.75 351.375 225.719C355.344 224.219 368.344 221.062 401.375 251.625C410.08 259.487 418.06 268.115 425.219 277.406C452.125 312.562 452.406 315.281 466.063 327.406C485.688 344.937 497.594 344.062 506.25 350.312Z" fill="black"/>
<path d="M606.625 533.656C605.188 537.5 577.844 536.469 554.063 521.531C526.375 504.125 505.688 469.125 504.531 432.594C503.344 394.156 524.531 378.812 512.594 357.844C511.052 354.93 508.924 352.366 506.344 350.312C497.781 344.062 485.875 344.937 466.344 327.562C452.688 315.406 452.406 312.687 425.5 277.562C418.341 268.272 410.361 259.643 401.656 251.781C368.531 221.219 355.531 224.375 351.656 225.875C343.438 229 339.375 237.406 336.031 245.687C325.125 273.594 325.469 293.187 325.688 311.312C325.688 326.687 325.875 340.875 318.813 358C303.813 394.312 277.031 395.344 275.531 427.531C274.625 445.625 282.906 449.594 282.438 473.187C282.438 481.125 281.688 510.687 263.188 530.469C232.281 563.5 170.125 550 169.438 542.969C168.75 535.937 226.844 536.719 238.188 506.594C247.375 482.062 213.188 463.562 217.969 421.687C220.438 400.312 230.188 398.594 238.188 372.219C249.969 333.156 234.219 318.469 236.906 282.375C241.563 219.312 296.281 165.594 345.313 144.875C360.39 138.335 376.414 134.242 392.781 132.75C458.031 127.187 507.094 167.125 525.094 184.281C538.25 196.781 571.219 228.281 576.625 274.187C578.832 294.776 577.778 315.584 573.5 335.844C564.781 383.281 549.438 388.562 546.219 426.781C544.938 442 542.469 471.594 559.375 496.469C577.438 523.25 608.125 529.5 606.625 533.656Z" fill="#2D2D2D"/>
</svg>
