<svg width="800" height="800" viewBox="0 0 800 800" fill="none" xmlns="http://www.w3.org/2000/svg">
<path d="M779.812 400.469C779.956 489.551 748.547 575.806 691.156 643.937C682.129 654.703 672.499 664.949 662.312 674.625H141.844C131.906 665.964 122.513 656.696 113.719 646.875L111.156 643.75C89.2811 617.844 18.9373 526 22.5623 400.344C27.6873 226.406 174.031 21.875 401.219 21.875C501.628 21.875 597.925 61.7624 668.925 132.763C739.925 203.763 779.812 300.059 779.812 400.469Z" fill="#84D0F7"/>
<path d="M691.187 643.969C682.107 654.687 672.469 664.92 662.312 674.625C591.986 741.775 498.455 779.187 401.219 779.062C278.125 779.062 185.875 713.687 141.844 674.625C131.927 665.941 122.535 656.674 113.719 646.875C113.031 645.969 112.125 645 111.156 643.75C153.469 601.187 210.312 568.094 275.75 549.375C294.062 594.969 343.25 627.5 401.125 627.5C454.875 627.5 501.125 599.375 522.094 558.75C523.75 555.625 525.219 552.5 526.5 549.188C527.688 549.531 528.5 549.719 530.094 550.219C594.125 569.438 649.719 602.094 691.187 643.969Z" fill="#4F4AA1"/>
<path d="M526.531 549.469C525.219 552.594 523.781 555.719 522.125 559.031C501.125 599.656 454.906 627.781 401.156 627.781C343.281 627.781 294.094 595.125 275.781 549.656C277.156 549.25 278.531 548.906 279.906 548.469C280.594 548.469 281.219 548.125 281.906 547.938C282.594 547.75 283.344 547.594 284.031 547.375C284.266 547.321 284.496 547.248 284.719 547.156C284.719 547.156 290.188 545.719 295.344 544.562C304.986 564.423 320.023 581.168 338.736 592.884C357.448 604.6 379.079 610.813 401.156 610.813C423.233 610.813 444.865 604.6 463.577 592.884C482.289 581.168 497.326 564.423 506.969 544.562C513.659 545.426 520.225 547.073 526.531 549.469Z" fill="#2C2A58"/>
<path d="M506.969 544.375C495.427 568.063 476.299 587.213 452.625 598.781C438.726 605.539 423.632 609.493 408.204 610.416C392.777 611.339 377.319 609.214 362.713 604.162C348.107 599.109 334.64 591.229 323.081 580.97C311.521 570.712 302.096 558.277 295.344 544.375C299.531 543.344 303.75 542.375 308.031 541.531C309.062 541.344 310.094 541.125 311.156 540.844C311.719 540.844 312.187 540.656 312.75 540.562L315.438 540.031L319.156 539.406C320.031 539.188 321 539.062 321.969 538.844H322.25C323.281 536.156 324.375 533.281 325.375 530.094C325.719 529.063 326.062 527.906 326.406 526.969C327.561 522.862 328.459 518.687 329.094 514.469C335.772 519.918 342.973 524.691 350.594 528.719C351.156 529 351.687 529.281 352.25 529.625L354.187 530.594L356.531 531.688L357.906 532.312C358.25 532.531 358.656 532.656 359.062 532.875C359.534 533.052 359.994 533.261 360.437 533.5L361.812 534.031L362.406 534.312L364.062 534.937C364.687 535.219 365.375 535.469 366.125 535.75L368.406 536.594H368.875C369.344 536.813 369.906 536.938 370.469 537.156C371.031 537.375 372.031 537.625 372.813 537.844C373.594 538.063 373.562 538.031 373.969 538.125L376.094 538.719C380.748 539.835 385.465 540.67 390.219 541.219H391.687H392.719C393.344 541.219 393.937 541.219 394.625 541.375H396.375C396.969 541.375 397.656 541.375 398.281 541.375H400C410.29 541.355 420.508 539.656 430.25 536.344C430.321 536.37 430.398 536.37 430.469 536.344C430.846 536.272 431.213 536.157 431.563 536C434.031 535.188 436.187 534.281 438.187 533.531L440.781 532.406C441 532.406 441.219 532.219 441.5 532.156C452.622 527.398 462.958 520.981 472.156 513.125C473.094 517.417 474.281 521.948 475.719 526.719C477.031 530.969 478.406 534.969 479.781 538.75C480.969 538.969 482.063 539.094 483.219 539.375C484.375 539.656 485.5 539.781 486.594 540L490 540.625C490.813 540.625 491.625 540.969 492.469 541.094C493.312 541.219 493.562 541.312 494.125 541.437C498.625 542.437 502.844 543.344 506.969 544.375Z" fill="#843F2C"/>
<path d="M616.094 256.687C616.124 259.229 615.755 261.76 615 264.187C610.031 281.687 592.937 283.469 589.781 298.781C589.156 301.594 590.062 300.156 589.781 308.812C589.562 315.062 589.094 329.281 585.031 338.594C582.727 343.542 579.226 347.838 574.844 351.094C573.4 348.794 571.517 346.802 569.302 345.231C567.088 343.66 564.585 342.54 561.937 341.937C559.513 341.453 557.018 341.453 554.594 341.937C555.319 326.606 554.345 311.242 551.687 296.125C549.833 285.769 547.179 275.571 543.75 265.625C542.312 261.281 540.625 256.937 538.937 252.687C531.957 235.641 522.955 219.494 512.125 204.594C485.281 168 446.875 140.812 400.687 140.937C373 141.35 346.256 151.057 324.75 168.5C301.062 186.969 282.031 212.937 268.75 240.625C260.312 258.288 254.219 276.977 250.625 296.219C247.897 311.328 246.849 326.692 247.5 342.031C245.091 341.499 242.596 341.499 240.187 342.031C237.111 342.796 234.238 344.221 231.766 346.207C229.295 348.193 227.285 350.692 225.875 353.531C221.561 350.577 218.041 346.606 215.625 341.969C208.531 327 219.062 318.687 211.687 303.25C205.156 289.531 192.75 288.219 189.25 272.375C188.453 268.501 188.263 264.526 188.687 260.594C190.344 245.937 199.219 244.969 202.187 233.406C206.344 216.937 191.312 207.344 198 187.094C198.385 185.598 198.963 184.159 199.719 182.812C208.25 167.937 231.687 178.969 243.469 166.906C254.281 155.812 242.687 137.844 258.125 122.687C259.997 120.652 262.22 118.969 264.687 117.719C282.031 109.312 298.5 133.031 313.875 127.094C326.125 122.344 321.781 105.219 339.281 95.0625C345.517 91.4293 352.664 89.6615 359.875 89.9687C379.719 91.0625 384.531 108.906 397.375 107.187C409.687 105.469 409.156 88.7187 425.969 83.3437C430.628 81.9021 435.538 81.452 440.382 82.0225C445.226 82.5931 449.897 84.1715 454.094 86.6562C469.531 96.2187 465.031 113.437 477.375 118.062C487.312 121.844 492.75 111.375 511.906 112.5C518.156 112.844 526.844 113.375 534.344 118.75C551.562 130.875 540.625 153.125 556.25 164.375C567.187 172.281 578.344 165.531 594.125 177.875C597.544 180.089 600.418 183.049 602.531 186.531C610.406 200.531 594.906 211.344 600 227.469C604.125 240 616.094 242.687 616.094 256.687Z" fill="#2D2D2D"/>
<path opacity="0.2" d="M530.125 550.5C527.5 553.625 524.875 556.281 522.125 559.031C516.049 565.157 509.531 570.829 502.625 576C493.535 582.776 483.636 588.393 473.156 592.719C466.524 595.397 459.648 597.427 452.625 598.781C446.447 599.963 440.163 600.498 433.875 600.375C421.505 600.174 409.282 597.651 397.844 592.937C397.156 592.656 396.469 592.375 395.781 592.031C386.659 588.14 378.01 583.223 370 577.375C354.925 566.161 341.648 552.715 330.625 537.5C328.813 535.094 327.094 532.625 325.375 530.125C325.719 529.094 326.062 527.937 326.406 527C327.561 522.893 328.459 518.718 329.094 514.5C330.969 515.937 332.812 517.406 334.75 518.781C339.795 522.466 345.089 525.797 350.594 528.75C351.156 529.031 351.687 529.312 352.25 529.656L354.187 530.625L356.531 531.719L357.906 532.344L359.062 532.906C359.534 533.084 359.994 533.292 360.437 533.531L361.812 534.062L362.406 534.344L364.062 534.969L366.125 535.781L368.406 536.625H368.875C369.344 536.844 369.906 536.969 370.469 537.187C371.031 537.406 372.031 537.656 372.813 537.875C373.594 538.094 373.562 538.063 373.969 538.156L376.094 538.75C380.736 539.92 385.457 540.756 390.219 541.25H391.687H392.719C393.344 541.25 393.937 541.25 394.625 541.406H396.375C396.969 541.406 397.656 541.406 398.281 541.406H400C410.285 541.326 420.493 539.628 430.25 536.375C430.321 536.401 430.398 536.401 430.469 536.375C430.846 536.304 431.213 536.188 431.563 536.031C433.625 535.344 435.625 534.594 437.625 533.75L438.187 533.562C439.062 533.219 439.906 532.812 440.781 532.437C441 532.437 441.219 532.25 441.5 532.187C450.547 528.043 459.136 522.964 467.125 517.031C468.844 515.781 470.5 514.469 472.156 513.156C473.094 517.448 474.281 521.979 475.719 526.75C477.031 531 478.406 535 479.781 538.781C480.969 539 482.063 539.125 483.219 539.406C484.375 539.687 485.5 539.812 486.594 540.031L490 540.656C490.813 540.656 491.625 541 492.469 541.125C493.312 541.25 493.562 541.344 494.125 541.469C498.375 542.375 502.594 543.281 506.625 544.312C513.25 545.812 519.781 547.437 526.188 549.406L530.125 550.5Z" fill="black"/>
<path d="M581.531 375.781C581.062 391.906 570.75 408.219 559.218 414.219C557.674 415.036 556.037 415.665 554.343 416.094H553.968C551.919 416.576 549.793 416.64 547.718 416.281C545.464 415.833 543.333 414.906 541.468 413.562L540.593 412.906C539.316 411.889 538.153 410.737 537.125 409.469C528.812 399.437 525.406 380.656 530.875 365.719C533.117 359.88 536.531 354.563 540.906 350.094C544.616 346.136 549.391 343.336 554.656 342.031C557.08 341.547 559.576 341.547 562 342.031C575.625 344.719 581.968 362.281 581.531 375.781Z" fill="#843F2C"/>
<path opacity="0.3" d="M581.5 375.781C581.031 391.906 570.781 408.25 559.187 414.219C557.665 415.037 556.049 415.666 554.375 416.094C554.241 416.121 554.103 416.121 553.969 416.094C551.928 416.634 549.792 416.708 547.719 416.312C545.467 415.873 543.336 414.957 541.469 413.625C541.186 413.371 540.883 413.141 540.562 412.937C539.287 411.917 538.134 410.753 537.125 409.469C529.344 400.094 525.906 383.094 530.031 368.687C530.312 367.656 530.656 366.687 531 365.75C533.234 359.9 536.661 354.579 541.062 350.125C544.742 346.146 549.514 343.341 554.781 342.062C557.205 341.578 559.701 341.578 562.125 342.062C564.772 342.665 567.275 343.784 569.49 345.355C571.704 346.927 573.587 348.919 575.031 351.219C579.604 358.571 581.858 367.13 581.5 375.781Z" fill="black"/>
<path d="M265.25 409.531C264.119 410.955 262.818 412.236 261.375 413.344C261.375 413.344 261.031 413.531 260.906 413.687C259.033 415.009 256.904 415.925 254.656 416.375C252.58 416.733 250.452 416.658 248.406 416.156C248.293 416.181 248.176 416.181 248.063 416.156C246.36 415.724 244.713 415.095 243.156 414.281C231.656 408.312 221.281 391.969 220.844 375.844C220.624 368.069 222.457 360.373 226.156 353.531C227.566 350.692 229.576 348.193 232.048 346.207C234.519 344.221 237.392 342.796 240.469 342.031C242.877 341.499 245.373 341.499 247.781 342.031C252.983 343.285 257.694 346.059 261.313 350C265.716 354.453 269.143 359.774 271.375 365.625C271.928 367.137 272.387 368.682 272.75 370.25C276.188 384.375 272.688 400.594 265.25 409.531Z" fill="#843F2C"/>
<path d="M554.593 342.031C554.312 348.844 553.687 355.688 552.718 362.5C550.369 379.732 546.178 396.662 540.218 413C525.75 453.625 501.5 489.656 472.25 513.219C470.593 514.531 468.937 515.844 467.218 517.094C459.229 523.026 450.64 528.106 441.593 532.25C441.312 532.25 441.093 532.437 440.875 532.5C440 532.875 439.156 533.281 438.281 533.625L437.718 533.813C435.718 534.656 433.718 535.406 431.656 536.094C431.306 536.251 430.939 536.366 430.562 536.438C430.492 536.464 430.414 536.464 430.343 536.438C420.586 539.691 410.378 541.388 400.093 541.469H398.375C397.75 541.469 397.062 541.469 396.468 541.469H394.718C394.031 541.469 393.437 541.469 392.812 541.313H391.781H390.312C385.55 540.818 380.83 539.983 376.187 538.813L374.062 538.219C373.656 538.219 373.312 538 372.906 537.938C372.5 537.875 371.312 537.438 370.562 537.25C369.812 537.063 369.437 536.906 368.968 536.688H368.5L366.218 535.844L364.156 535.031L362.5 534.406L361.906 534.125L360.531 533.594C360.087 533.355 359.628 533.146 359.156 532.969L358 532.406L356.625 531.781L354.281 530.688L352.343 529.719C351.781 529.375 351.25 529.094 350.687 528.813C345.182 525.859 339.888 522.528 334.843 518.844C332.906 517.469 331.062 516 329.187 514.563C319.441 506.683 310.53 497.824 302.593 488.125C284.556 465.975 270.629 440.775 261.468 413.719C261 412.594 260.656 411.438 260.218 410.25C255.235 395.469 251.687 380.243 249.625 364.781C249.062 361.063 248.656 357.344 248.312 353.563C248.031 350.438 247.843 347.313 247.687 344C247.687 343.438 247.687 342.969 247.687 342.406C247.036 327.067 248.084 311.703 250.812 296.594C254.315 277.233 260.346 258.415 268.75 240.625C281.906 213 300.937 187.031 324.625 168.562C346.13 151.12 372.875 141.412 400.562 141C446.843 141 485.156 168.062 511.937 204.656C522.767 219.557 531.769 235.704 538.75 252.75C540.468 257 542.125 261.344 543.562 265.687C547.017 275.663 549.692 285.892 551.562 296.281C554.257 311.373 555.273 326.716 554.593 342.031Z" fill="#843F2C"/>
<path opacity="0.2" d="M554.094 314.469C545.966 314.016 537.93 312.514 530.188 310L528.937 309.5C504.281 301.031 504.969 285.875 484.719 280.656C461.844 274.781 453.313 292.156 428.219 285.625C409.156 280.656 409.688 269.5 394.281 268.313C371.344 266.594 362.25 292.438 342.938 288.5C330.438 285.969 329.25 274.031 314 270.656C304.151 269.031 294.043 270.91 285.438 275.969C292.812 268.875 294.813 260.344 305.281 257.781C319.75 254.125 324.5 268.938 343.094 268.719C367.219 268.469 372.875 246.844 394.438 248.563C409.844 249.719 409.313 260.875 428.375 265.844C453.375 272.375 462 254.969 484.875 260.875C505.125 266.125 504.438 281.281 529.094 289.75C536.346 292.311 543.898 293.928 551.563 294.563C551.563 294.563 551.969 297.875 552.875 304.344C553.969 313.844 554.094 314.469 554.094 314.469Z" fill="black"/>
<path d="M571.031 289.75C568.415 291.961 565.252 293.429 561.875 294L560.781 294.219C557.68 294.695 554.534 294.81 551.406 294.563C543.741 293.928 536.19 292.311 528.937 289.75C504.281 281.281 504.969 266.125 484.719 260.875C461.844 254.969 453.312 272.375 428.219 265.844C409.156 260.875 409.687 249.719 394.281 248.563C372.719 246.906 367.062 268.469 342.937 268.719C324.344 268.938 319.594 254.125 305.125 257.781C294.656 260.406 292.625 268.875 285.281 275.969C282.729 278.548 279.747 280.663 276.469 282.219C269.041 285.537 260.879 286.873 252.781 286.094C244.031 285.25 235.969 281.938 231.906 276.375C220.375 260.531 241.469 228.688 250.437 215.063C297.625 143.75 379.656 128.813 390.344 127.094C393.094 126.625 396.594 126.063 401.719 125.5C426.781 122.813 481.25 121.875 525 159.594C572.062 200.188 590.125 272.656 571.031 289.75Z" fill="#2D2D2D"/>
</svg>
