<svg width="800" height="800" viewBox="0 0 800 800" fill="none" xmlns="http://www.w3.org/2000/svg">
<path d="M781.781 399.187C781.897 488.666 750.347 575.3 692.719 643.75C683.614 654.546 673.934 664.842 663.719 674.594H140.625C130.69 665.94 121.297 656.683 112.5 646.875C111.719 646 110.875 645 109.906 643.75C88.0311 617.719 17.2499 525.437 20.9061 399.187C25.9999 224.281 173.062 18.75 401.375 18.75C451.333 18.75 500.802 28.5905 546.957 47.7097C593.112 66.8288 635.049 94.8522 670.374 130.179C705.698 165.507 733.718 207.446 752.833 253.603C771.949 299.759 781.785 349.229 781.781 399.187Z" fill="#337180"/>
<path d="M692.719 643.75C683.623 654.543 673.942 664.83 663.719 674.562C593.009 742.059 498.972 779.652 401.219 779.5C277.531 779.5 184.906 713.875 140.594 674.562C130.695 665.891 121.314 656.646 112.5 646.875C111.75 645.969 110.844 645 109.969 643.75C152.375 600.969 209.5 567.75 275.25 548.938C293.688 594.75 343.187 627.563 401.25 627.563C455.25 627.563 501.781 599.25 522.813 558.531C524.469 555.406 525.937 552.281 527.25 548.938C528.5 549.281 529.25 549.469 530.844 549.969C595.187 568.969 651.062 601.781 692.719 643.75Z" fill="#AA392D"/>
<path d="M527.281 548.906C525.969 552.031 524.5 555.344 522.844 558.5C501.813 599.125 455.281 627.531 401.281 627.531C343.219 627.531 293.719 594.719 275.281 548.906L283.594 546.594L284.281 546.406C284.281 546.406 289.844 544.938 294.969 543.781C304.655 563.741 319.765 580.572 338.568 592.348C357.372 604.123 379.11 610.368 401.297 610.368C423.483 610.368 445.222 604.123 464.025 592.348C482.829 580.572 497.938 563.741 507.625 543.781C514.354 544.721 520.95 546.441 527.281 548.906Z" fill="#7C211A"/>
<path d="M507.625 543.75C497.922 563.668 482.815 580.458 464.028 592.203C445.241 603.948 423.531 610.176 401.375 610.176C379.219 610.176 357.509 603.948 338.722 592.203C319.935 580.458 304.828 563.668 295.125 543.75C299.344 542.688 303.562 541.812 307.844 540.906L310.969 540.281C311.491 540.128 312.024 540.013 312.562 539.937C313.469 539.719 314.375 539.594 315.25 539.375L319 538.75L321.844 538.188H322.125C323.219 535.5 324.25 532.594 325.25 529.406C325.594 528.375 325.969 527.188 326.312 526.094C327.531 521.531 328.438 517.219 329.063 513.406C335.724 518.919 342.94 523.726 350.594 527.75C351.162 528.021 351.715 528.324 352.25 528.656C352.875 528.937 353.562 529.281 354.187 529.625L356.562 530.719C357.031 530.938 357.531 531.125 357.937 531.344L359.125 531.906L360.562 532.531L361.937 533.094C362.136 533.199 362.346 533.283 362.562 533.344C363.112 533.586 363.675 533.795 364.25 533.969C364.844 534.25 365.562 534.531 366.312 534.812C367.094 535.094 367.781 535.375 368.594 535.625C368.757 535.687 368.924 535.739 369.094 535.781L370.688 536.344C371.531 536.531 372.281 536.813 373.094 537.031C373.906 537.25 373.812 537.219 374.219 537.313L376.437 537.938C381.089 539.06 385.806 539.885 390.563 540.406C391.031 540.406 391.531 540.406 392 540.562H393.031H394.969H396.719H398.719H400.437C410.76 540.533 421.008 538.823 430.781 535.5C430.811 535.514 430.843 535.521 430.875 535.521C430.907 535.521 430.939 535.514 430.969 535.5C431.355 535.427 431.733 535.312 432.094 535.156C434.594 534.313 436.781 533.406 438.719 532.656L441.375 531.563L442.063 531.281C453.24 526.498 463.629 520.05 472.875 512.156C473.844 516.469 475 521.031 476.469 525.812C477.781 530.094 479.156 534.125 480.531 537.906C481.719 538.125 482.844 538.281 484 538.531L487.406 539.156L490.781 539.781L493.281 540.281C493.844 540.281 494.406 540.563 494.938 540.625C499.25 541.844 503.469 542.719 507.625 543.75Z" fill="#E59973"/>
<path d="M250 294.406C247.161 310.123 246.112 326.11 246.875 342.063C246.875 345.188 247.218 348.5 247.593 351.656C247.593 352.844 247.781 354.094 247.937 355.281C241.343 351.813 238.562 336.531 233.468 307.563C230.343 289.313 228.625 280.156 229.093 270.063C230.3 254.581 234.637 239.505 241.843 225.75C244.999 237.289 251.822 247.489 261.281 254.813C256.265 267.62 252.487 280.878 250 294.406Z" fill="#2D2D2D"/>
<path d="M568.937 307.562C566.469 321.687 564.531 332.562 562.437 340.312C560.219 348.75 557.812 353.687 554.281 355.344C554.812 350.344 555.25 345.437 555.438 340.469C556.179 325.054 555.204 309.605 552.531 294.406C550.651 283.975 547.966 273.705 544.5 263.687C544.5 263.687 544.5 263.469 544.5 263.406C552.934 257.792 561.031 251.688 568.75 245.125C571.255 253.255 572.837 261.641 573.469 270.125C573.875 280.219 572.187 289.375 568.937 307.562Z" fill="#2D2D2D"/>
<path opacity="0.2" d="M530.875 550C528.313 553.125 525.625 555.813 522.844 558.563C516.761 564.735 510.21 570.429 503.25 575.594C494.121 582.429 484.167 588.088 473.625 592.438C466.962 595.126 460.055 597.167 453 598.531C446.766 599.692 440.435 600.247 434.094 600.187C421.67 599.907 409.403 597.343 397.906 592.625C397.211 592.377 396.533 592.085 395.875 591.75C386.697 587.834 377.995 582.885 369.937 577C354.803 565.718 341.473 552.199 330.406 536.906C328.594 534.5 326.875 532.063 325.125 529.5C325.469 528.469 325.844 527.281 326.187 526.188C327.406 521.625 328.313 517.313 328.938 513.5C330.75 514.958 332.625 516.396 334.562 517.812C339.645 521.493 344.958 524.843 350.469 527.844C351.037 528.115 351.59 528.418 352.125 528.75C352.75 529.031 353.438 529.375 354.063 529.719L356.437 530.813C356.906 531.031 357.406 531.219 357.812 531.437L359 532L360.437 532.625L361.812 533.187C362.011 533.293 362.221 533.377 362.438 533.437L364.125 534.062L366.187 534.906L368.469 535.719C368.632 535.781 368.799 535.833 368.969 535.875L370.563 536.438C371.406 536.625 372.156 536.906 372.969 537.125C373.781 537.344 373.687 537.313 374.094 537.406L376.312 538.031C380.954 539.2 385.675 540.025 390.438 540.5C390.906 540.5 391.406 540.5 391.875 540.656H392.906H394.844H396.594H398.594H400.313C410.629 540.558 420.867 538.85 430.656 535.594C430.686 535.608 430.718 535.615 430.75 535.615C430.782 535.615 430.814 535.608 430.844 535.594C431.23 535.521 431.608 535.406 431.969 535.25C434.031 534.563 436.062 533.781 438.062 532.969L438.688 532.75L441.25 531.656L441.937 531.375C451.027 527.199 459.657 522.088 467.688 516.125C469.406 514.906 471.062 513.562 472.75 512.25C473.719 516.562 474.875 521.125 476.344 525.906C477.656 530.187 479.031 534.219 480.406 538C481.594 538.219 482.719 538.375 483.875 538.625L487.281 539.25L490.656 539.875L493.156 540.375C493.719 540.375 494.281 540.656 494.812 540.719C499.125 541.625 503.344 542.5 507.5 543.563C514.125 545.063 520.719 546.688 527.156 548.688L530.875 550Z" fill="black"/>
<path d="M582.563 374.375C582.063 390.563 571.719 406.969 560.125 413C558.571 413.82 556.924 414.449 555.219 414.875C555.094 414.889 554.968 414.889 554.844 414.875C552.796 415.371 550.668 415.435 548.594 415.063C546.333 414.618 544.199 413.679 542.344 412.313L541.469 411.688C540.188 410.652 539.016 409.49 537.969 408.219C529.625 398.156 526.219 379.281 531.719 364.219C533.978 358.374 537.413 353.056 541.813 348.594C545.535 344.615 550.334 341.803 555.625 340.5C558.058 340 560.567 340 563 340.5C576.625 343.156 582.969 360.813 582.563 374.375Z" fill="#E59973"/>
<path opacity="0.3" d="M582.531 374.375C582.063 390.563 571.719 406.969 560.125 413C558.571 413.82 556.924 414.449 555.219 414.875C555.094 414.889 554.968 414.889 554.844 414.875C552.796 415.371 550.668 415.435 548.594 415.063C546.333 414.618 544.199 413.679 542.344 412.313L541.469 411.688C540.188 410.652 539.016 409.49 537.969 408.219C529.625 398.156 526.219 379.281 531.719 364.219C533.978 358.374 537.413 353.056 541.813 348.594C545.535 344.615 550.334 341.803 555.625 340.5C558.058 340 560.567 340 563 340.5C576.625 343.156 582.969 360.813 582.531 374.375Z" fill="black"/>
<path d="M264.719 408.312C263.443 409.869 261.972 411.255 260.343 412.437C258.48 413.783 256.348 414.71 254.093 415.156C252.02 415.529 249.891 415.465 247.843 414.969H247.469C245.762 414.547 244.115 413.918 242.562 413.094C230.969 407.062 220.687 390.656 220.125 374.469C219.719 360.906 226.062 343.219 239.812 340.5C247.656 338.937 255.125 342.719 261.031 348.625C265.43 353.087 268.866 358.405 271.125 364.25C276.469 379.375 273.062 398.25 264.719 408.312Z" fill="#E59973"/>
<path d="M555.437 340.625C555.25 345.594 554.812 350.5 554.281 355.5C552.124 374.69 547.751 393.566 541.25 411.75C526.718 452.594 502.281 488.813 472.875 512.469C471.187 513.781 469.531 515.125 467.812 516.344C459.781 522.307 451.152 527.418 442.062 531.594L441.375 531.875L438.812 532.969L438.187 533.187C436.187 534 434.156 534.781 432.093 535.469C431.732 535.625 431.355 535.74 430.968 535.813C430.939 535.826 430.907 535.834 430.875 535.834C430.842 535.834 430.81 535.826 430.781 535.813C420.991 539.068 410.754 540.776 400.437 540.875H398.718H396.718H394.968H393.031H392C391.531 540.875 391.031 540.875 390.562 540.719C385.8 540.244 381.079 539.419 376.437 538.25L374.218 537.625C373.812 537.625 373.468 537.406 373.093 537.344C372.718 537.281 371.531 536.844 370.687 536.656L369.093 536.094C368.924 536.052 368.757 535.999 368.593 535.937L366.312 535.125L364.25 534.281L362.562 533.656C362.345 533.596 362.136 533.512 361.937 533.406L360.562 532.844L359.125 532.219L357.937 531.656C357.531 531.437 357.031 531.25 356.562 531.031L354.187 529.937C353.562 529.594 352.875 529.25 352.25 528.969C351.715 528.636 351.162 528.334 350.593 528.062C345.083 525.062 339.77 521.711 334.687 518.031C332.75 516.615 330.875 515.177 329.062 513.719C319.225 505.832 310.248 496.928 302.281 487.156C283.442 463.932 269.017 437.453 259.718 409.031C253.926 391.694 250.049 373.775 248.156 355.594C248 354.406 247.875 353.156 247.812 351.969C247.437 348.844 247.25 345.719 247.093 342.375C246.331 326.423 247.379 310.435 250.218 294.719C252.726 281.189 256.525 267.93 261.562 255.125C263.656 249.656 266 244.187 268.562 238.812C280.97 211.876 299.099 187.967 321.687 168.75C322.656 167.906 323.625 167.156 324.593 166.406C346.21 148.884 373.083 139.123 400.906 138.688C431.343 138.688 458.343 150.25 480.906 168.687C492.961 178.598 503.695 190.014 512.843 202.656C523.71 217.628 532.744 233.847 539.75 250.969C541.406 255.281 543.093 259.437 544.531 263.719C544.531 263.719 544.531 263.938 544.531 264C547.996 274.017 550.682 284.287 552.562 294.719C555.213 309.868 556.177 325.264 555.437 340.625Z" fill="#E59973"/>
<path opacity="0.2" d="M573.313 270.063C570.051 273.503 566.484 276.641 562.656 279.438C562.375 279.719 560.906 280.688 559.062 282C555.937 284 552.812 286.031 549.687 287.969C536.443 295.997 522.438 302.696 507.875 307.969C476.445 319.271 442.999 323.872 409.685 321.477C376.371 319.082 343.927 309.744 314.438 294.063C307.469 290.25 300.687 286.094 294.156 281.563C291.937 280.031 289.813 278.438 287.656 276.938C281.934 272.774 276.436 268.31 271.187 263.562C268.687 261.344 266.188 259.063 263.844 256.719C272.277 263.039 281.461 268.287 291.188 272.344C311.344 281.219 335.344 287.969 358.687 294.219C378.858 300.176 399.751 303.331 420.781 303.594C441.973 303.712 463.056 300.549 483.281 294.219C492.482 291.248 501.419 287.516 510 283.063C514.094 281.063 518.187 278.844 522.5 276.563C530.656 272.125 537.781 267.844 544.375 263.344C552.676 257.789 560.647 251.758 568.25 245.281C570.958 253.3 572.659 261.624 573.313 270.063Z" fill="black"/>
<path d="M622.312 177.625C622.125 195.094 605.718 211 600.937 215.5C588.687 227.125 578.562 236.687 568.593 245.125L568.312 245.344C560.71 251.821 552.738 257.852 544.437 263.406C537.781 267.906 530.656 272.187 522.562 276.625C518.343 278.906 514.25 281.125 510.062 283.125C501.481 287.578 492.544 291.31 483.343 294.281C463.119 300.612 442.036 303.774 420.843 303.656C399.814 303.393 378.92 300.239 358.75 294.281C335.406 287.75 311.406 281.125 291.25 272.406C281.524 268.35 272.339 263.101 263.906 256.781C263.062 256.062 262.25 255.469 261.406 254.75C251.947 247.427 245.125 237.226 241.968 225.687C234.531 196.187 256.062 166.906 259.375 162.5C269.554 149.477 282.969 139.349 298.281 133.125C327.406 120.812 340.906 130.437 404.25 133.125C460.5 135.562 488.625 136.812 515.281 126.406C526.031 122.187 546.093 112.906 549.656 117.906C552.5 121.906 544.25 133.812 542.312 136.656C535.062 147.094 528.968 149.937 529.812 152.281C531.406 156.281 549 154.344 563.656 150.062C579.281 145.5 585.125 140.094 587.875 142.719C591.625 146.25 586.031 161.469 576.593 171.469C569.812 178.719 563.531 180.844 564.093 183.281C565 186.625 577.093 187.781 588.312 184.937C606.031 180.531 615.031 167.562 620.031 170.844C621.406 171.687 622.375 173.5 622.312 177.625Z" fill="#2D2D2D"/>
</svg>
