<svg width="800" height="800" viewBox="0 0 800 800" fill="none" xmlns="http://www.w3.org/2000/svg">
<path d="M779.469 400.938C779.593 490.118 748.154 576.465 690.719 644.688C681.664 655.449 672.025 665.704 661.844 675.406H140.625C130.675 666.747 121.281 657.468 112.5 647.625L109.937 644.5C88.0625 618.563 17.5937 526.594 21.25 400.75C26.4062 226.656 172.937 21.875 400.406 21.875C500.94 21.875 597.356 61.8118 668.444 132.9C739.532 203.988 779.469 300.404 779.469 400.938Z" fill="#49A27D"/>
<path d="M690.625 644.75C655.005 687.087 610.565 721.131 560.413 744.498C510.261 767.865 455.61 779.993 400.281 780.031C277.031 780.031 184.656 714.406 140.594 675.469C130.656 666.785 121.263 657.497 112.469 647.656C111.688 646.75 110.875 645.812 109.906 644.531C152.344 602 209.375 568.75 275 550C293.281 595.656 342.594 628.344 400.469 628.344C454.281 628.344 500.625 600.219 521.656 559.594C523.25 556.469 524.781 553.344 526.031 550L529.594 551.031C593.531 570.125 649.188 602.813 690.625 644.75Z" fill="#4F4F4F"/>
<path d="M525.875 550C524.563 553.125 523.094 556.406 521.5 559.594C500.469 600.219 454.125 628.344 400.313 628.344C342.438 628.344 293.125 595.656 274.844 550C276.219 549.594 277.625 549.25 279 548.812C279.625 548.812 280.219 548.469 280.906 548.281L283.125 547.719L283.813 547.531C283.813 547.531 289.281 546.063 294.375 544.906C304.041 564.79 319.105 581.553 337.847 593.281C356.588 605.009 378.251 611.229 400.359 611.229C422.468 611.229 444.131 605.009 462.872 593.281C481.614 581.553 496.678 564.79 506.344 544.906C513.032 545.83 519.588 547.539 525.875 550Z" fill="black"/>
<path d="M506.25 545.031C496.593 564.925 481.532 581.699 462.789 593.434C444.046 605.17 422.379 611.394 400.266 611.394C378.152 611.394 356.485 605.17 337.742 593.434C319 581.699 303.938 564.925 294.281 545.031C298.5 544 302.688 543.031 306.969 542.187C308 542 309.094 541.781 310.094 541.5C310.625 541.5 311.188 541.281 311.656 541.219L314.344 540.688L318.094 540.063L320.906 539.5H321.188C322.281 536.812 323.313 533.906 324.313 530.75C324.656 529.719 325 528.531 325.344 527.437C326.483 523.321 327.411 519.149 328.125 514.937C334.772 520.408 341.954 525.192 349.563 529.219C350.125 529.5 350.656 529.75 351.219 530.094L353.219 531.063C353.906 531.406 354.75 531.75 355.5 532.188C355.969 532.371 356.428 532.58 356.875 532.813L358.063 533.344L359.5 533.969L360.875 534.531C361.089 534.612 361.298 534.706 361.5 534.812C362.063 535 362.531 535.219 363.156 535.406L365.219 536.25H365.625C366.313 536.531 367 536.813 367.812 537.063C367.974 537.128 368.142 537.181 368.313 537.219L369.906 537.75C370.719 537.969 371.469 538.25 372.313 538.469L373.406 538.719L375.625 539.344C380.257 540.463 384.953 541.298 389.687 541.844H391.156H392.188C392.781 541.844 393.5 541.844 394.094 542H395.844C396.531 542 397.156 542 397.844 542H399.563C409.842 541.975 420.048 540.276 429.781 536.969C429.811 536.983 429.843 536.99 429.875 536.99C429.907 536.99 429.939 536.983 429.969 536.969C430.353 536.887 430.73 536.772 431.094 536.625C433.562 535.781 435.781 534.906 437.687 534.125L440.312 533.031L441 532.75C452.144 527.997 462.501 521.58 471.719 513.719C472.687 518 473.844 522.563 475.281 527.313C476.594 531.594 477.969 535.594 479.438 539.375C480.531 539.594 481.719 539.719 482.813 540C483.906 540.281 485.094 540.406 486.188 540.625C487.281 540.844 488.469 541.031 489.563 541.25C490.656 541.469 491.281 541.594 492.063 541.719C492.844 541.844 493.219 541.938 493.781 542.063C497.937 543.094 502.125 544 506.25 545.031Z" fill="#843F2C"/>
<path d="M321 171.031C298.411 190.148 280.279 213.976 267.875 240.844C259.379 258.541 253.233 277.272 249.594 296.562C246.866 311.692 245.818 327.077 246.469 342.437C244.221 341.983 241.905 341.983 239.656 342.437C237.563 334.719 235.719 323.906 233.156 309.812C230.031 291.625 228.344 282.5 228.813 272.312C230.43 251.802 237.532 232.105 249.375 215.281C269.125 188 301.969 173.562 321 171.031Z" fill="#2D2D2D"/>
<path d="M567.375 309.656C564.906 323.75 562.969 334.656 560.906 342.281C558.688 350.719 556.281 355.594 552.844 357.25C553.406 352.312 553.812 347.406 554.031 342.437C554.757 327.085 553.782 311.7 551.125 296.562C549.255 286.163 546.58 275.923 543.125 265.937L544.375 265.031L545.75 264C546.027 263.827 546.28 263.616 546.5 263.375C551.968 259.122 556.826 254.138 560.937 248.562C562.112 247.004 562.951 245.22 563.403 243.321C563.854 241.423 563.909 239.452 563.562 237.531C568.197 248.588 571.004 260.324 571.875 272.281V272.437C572.281 282.437 570.625 291.531 567.375 309.656Z" fill="#2D2D2D"/>
<path opacity="0.2" d="M529.437 551.156C526.906 554.125 524.219 556.969 521.5 559.719C515.381 565.822 508.844 571.492 501.937 576.687C492.843 583.499 482.919 589.127 472.406 593.437C465.785 596.116 458.919 598.146 451.906 599.5C445.73 600.692 439.445 601.227 433.156 601.094C420.709 600.938 408.402 598.447 396.875 593.75C396.192 593.486 395.524 593.183 394.875 592.844C385.733 588.981 377.079 584.051 369.094 578.156C353.991 566.903 340.701 553.403 329.688 538.125C327.906 535.719 326.156 533.219 324.438 530.75C324.781 529.719 325.125 528.531 325.469 527.437C326.608 523.321 327.536 519.149 328.25 514.937C330.031 516.375 331.969 517.844 333.812 519.219C338.889 522.882 344.191 526.222 349.688 529.219C350.25 529.5 350.781 529.75 351.344 530.094L353.344 531.063C354.031 531.406 354.875 531.75 355.625 532.188C356.094 532.371 356.553 532.58 357 532.813L358.188 533.344L359.625 533.969L361 534.531C361.214 534.612 361.423 534.706 361.625 534.812L363.281 535.406L365.344 536.25H365.625L367.812 537.063C367.974 537.128 368.142 537.181 368.313 537.219L369.906 537.75C370.719 537.969 371.469 538.25 372.312 538.469L373.406 538.719L375.625 539.344C380.245 540.52 384.945 541.356 389.687 541.844H391.156H392.188C392.781 541.844 393.5 541.844 394.094 542H395.844C396.531 542 397.156 542 397.844 542H399.563C409.836 541.909 420.032 540.212 429.781 536.969C429.811 536.983 429.843 536.99 429.875 536.99C429.907 536.99 429.939 536.983 429.969 536.969C430.353 536.887 430.73 536.772 431.094 536.625C433.156 535.938 435.156 535.156 437.156 534.344L437.781 534.125L440.312 533.031L441 532.75C450.065 528.621 458.665 523.54 466.656 517.594C468.406 516.344 470.062 515.031 471.719 513.719C472.687 518 473.844 522.563 475.281 527.313C476.594 531.594 477.969 535.594 479.437 539.375C480.531 539.594 481.719 539.719 482.813 540C483.906 540.281 485.094 540.406 486.188 540.625C487.281 540.844 488.469 541.031 489.563 541.25C490.656 541.469 491.281 541.594 492.063 541.719C492.844 541.844 493.219 541.938 493.781 542.063C498 542.969 502.187 543.875 506.281 544.906C512.844 546.406 519.375 548.031 525.812 550L529.437 551.156Z" fill="black"/>
<path d="M580.938 376.219C580.469 392.375 570.156 408.719 558.625 414.719C557.071 415.538 555.424 416.168 553.719 416.594H553.344C551.295 417.076 549.169 417.14 547.094 416.781C544.83 416.346 542.694 415.406 540.844 414.031C540.54 413.841 540.248 413.632 539.969 413.406C538.688 412.371 537.516 411.208 536.469 409.937C528.156 399.937 524.75 381.125 530.219 366.187C532.468 360.345 535.893 355.027 540.281 350.562C543.991 346.605 548.767 343.805 554.031 342.5C556.455 342.016 558.951 342.016 561.375 342.5C575 345.125 581.25 362.719 580.938 376.219Z" fill="#843F2C"/>
<path opacity="0.3" d="M580.938 376.219C580.469 392.375 570.156 408.719 558.594 414.719C557.052 415.542 555.415 416.172 553.719 416.594H553.344C551.295 417.076 549.169 417.14 547.094 416.781C544.83 416.346 542.694 415.406 540.844 414.031C540.54 413.841 540.248 413.632 539.969 413.406C538.681 412.379 537.508 411.216 536.469 409.937C528.156 399.937 524.75 381.125 530.219 366.187C532.468 360.352 535.881 355.036 540.25 350.562C543.969 346.6 548.755 343.8 554.031 342.5C556.455 342.016 558.951 342.016 561.375 342.5C575 345.125 581.25 362.719 580.938 376.219Z" fill="black"/>
<path d="M264.219 410.031C263.098 411.445 261.807 412.715 260.375 413.813C260.216 413.938 260.049 414.052 259.875 414.156C258.074 415.481 256.004 416.392 253.811 416.824C251.617 417.256 249.356 417.199 247.187 416.656C247.054 416.686 246.915 416.686 246.781 416.656C245.103 416.21 243.479 415.581 241.937 414.781C230.375 408.781 220.062 392.438 219.594 376.281C219.187 362.781 225.469 345.031 239.187 342.438C239.351 342.392 239.524 342.392 239.687 342.438C241.936 341.983 244.252 341.983 246.5 342.438C251.809 343.678 256.622 346.487 260.312 350.5C261.094 351.286 261.825 352.121 262.5 353C265.867 356.896 268.531 361.348 270.375 366.156C275.969 381.25 272.562 400 264.219 410.031Z" fill="#843F2C"/>
<path d="M553.937 342.438C553.718 347.406 553.312 352.312 552.75 357.25C550.644 376.443 546.291 395.322 539.781 413.5C525.312 454.125 500.968 490.281 471.656 513.875C470 515.188 468.343 516.5 466.593 517.75C458.602 523.696 450.002 528.777 440.937 532.906L440.25 533.187L437.718 534.281L437.093 534.5C435.093 535.312 433.093 536.094 431.031 536.781C430.667 536.929 430.29 537.044 429.906 537.125C429.877 537.139 429.845 537.146 429.812 537.146C429.78 537.146 429.748 537.139 429.718 537.125C419.969 540.368 409.773 542.065 399.5 542.156H397.781C397.093 542.156 396.468 542.156 395.781 542.156H394.031C393.437 542.156 392.718 542.156 392.125 542H391.093H389.625C384.882 541.512 380.182 540.676 375.562 539.5L373.343 538.875L372.25 538.625C371.406 538.406 370.656 538.125 369.843 537.906L368.25 537.375C368.079 537.337 367.912 537.285 367.75 537.219L365.562 536.406H365.343L363.281 535.563L361.625 534.969C361.422 534.862 361.214 534.768 361 534.688L359.625 534.125L358.187 533.5L357 532.969C356.553 532.736 356.094 532.527 355.625 532.344C354.875 531.906 354.031 531.563 353.343 531.219L351.343 530.25C350.781 529.906 350.25 529.656 349.687 529.375C344.191 526.378 338.889 523.038 333.812 519.375C331.968 518 330.031 516.531 328.25 515.094C318.455 507.203 309.502 498.323 301.531 488.594C283.488 466.408 269.55 441.179 260.375 414.094C259.875 413 259.531 411.844 259.125 410.656C253.367 393.418 249.501 375.605 247.593 357.531C247.593 356.375 247.343 355.125 247.25 353.938C247 350.813 246.718 347.687 246.562 344.375C246.562 343.812 246.562 343.344 246.562 342.781C245.911 327.421 246.959 312.036 249.687 296.906C253.327 277.616 259.472 258.884 267.968 241.187C280.372 214.32 298.505 190.492 321.093 171.375C322.062 170.531 323.031 169.781 324 169.031C345.47 151.436 372.245 141.594 400 141.094C430.281 141.094 457.187 152.594 479.656 170.969C491.669 180.837 502.361 192.212 511.468 204.812C522.304 219.777 531.286 236 538.218 253.125C540 257.406 541.593 261.75 543.031 266.094C546.486 276.08 549.161 286.319 551.031 296.719C553.677 311.805 554.651 327.137 553.937 342.438Z" fill="#843F2C"/>
<path opacity="0.2" d="M571.875 272.281V272.438C568.871 275.863 565.554 279.001 561.969 281.813C561.688 282.094 560.375 283.063 558.656 284.375C555.813 286.375 552.906 288.375 549.937 290.313C517.483 311.387 479.846 323.103 441.165 324.172C402.484 325.242 364.257 315.623 330.687 296.375C324.148 292.546 317.816 288.374 311.719 283.875C309.625 282.375 307.625 280.75 305.469 279.25C300.121 275.077 294.989 270.633 290.094 265.937C287.812 263.75 285.531 261.469 283.344 259.125C280.437 256 277.625 252.875 274.906 249.75C273.786 248.423 272.927 246.896 272.375 245.25C277.96 250.811 283.877 256.029 290.094 260.875C298.023 267.086 306.377 272.735 315.094 277.781C344.36 294.591 377.239 304.117 410.958 305.559C444.678 307 478.25 300.313 508.844 286.063C520.914 280.398 532.424 273.608 543.219 265.781L544.469 264.875L545.844 263.844C546.121 263.671 546.373 263.46 546.594 263.219C552.062 258.966 556.92 253.981 561.031 248.406C562.205 246.848 563.045 245.063 563.497 243.165C563.948 241.267 564.003 239.295 563.656 237.375C568.275 248.486 571.051 260.276 571.875 272.281Z" fill="black"/>
<path d="M560.843 248.563C556.732 254.138 551.874 259.122 546.406 263.375C546.185 263.617 545.933 263.827 545.656 264L544.281 265.031L543.031 265.938C532.236 273.764 520.726 280.555 508.656 286.219C478.062 300.47 444.49 307.156 410.771 305.715C377.051 304.274 344.172 294.747 314.906 277.938C306.189 272.892 297.835 267.242 289.906 261.031C283.689 256.186 277.772 250.968 272.187 245.406C270.656 243.906 269.062 242.281 267.687 240.875C264.812 237.906 262.031 234.781 259.343 231.5C257.193 228.922 256.015 225.67 256.015 222.313C256.015 218.955 257.193 215.704 259.343 213.125C270.772 199.675 283.867 187.735 298.312 177.594C302.25 174.761 306.312 172.063 310.5 169.5C343.429 149.377 381.283 138.756 419.875 138.813C429.75 138.813 456.968 138.813 481.812 148.188C508.437 158.125 527.687 177.031 540.999 195.5C549.63 207.66 556.843 220.766 562.5 234.563C562.915 235.563 563.199 236.614 563.343 237.688C563.685 239.575 563.64 241.513 563.21 243.382C562.78 245.251 561.975 247.014 560.843 248.563Z" fill="#2D2D2D"/>
</svg>
