<svg width="800" height="800" viewBox="0 0 800 800" fill="none" xmlns="http://www.w3.org/2000/svg">
<path d="M782.063 399.437C782.07 450.979 771.6 501.984 751.288 549.355C730.977 596.726 701.247 639.473 663.906 675H140.625C130.681 666.29 121.287 656.97 112.5 647.094L109.938 643.969C88.0627 617.938 17.1877 525.594 20.8439 399.219C25.7502 224.406 172.906 18.75 401.375 18.75C502.34 18.75 599.169 58.858 670.562 130.251C741.955 201.644 782.063 298.473 782.063 399.437Z" fill="#FFB6B6"/>
<path d="M692.906 644.312C657.153 686.846 612.529 721.045 562.163 744.511C511.797 767.978 456.908 780.144 401.344 780.156C277.562 780.156 184.875 714.531 140.531 675.156C130.595 666.427 121.202 657.097 112.406 647.219L109.844 644.094C152.281 601.281 209.438 568.031 275.469 549.188C293.75 595.125 343.156 628.125 401.281 628.125C455.313 628.125 501.844 599.781 523.156 559.062C524.75 555.937 526.281 552.813 527.5 549.438C528.75 549.781 529.531 549.969 531.125 550.469C595.312 569.375 651.219 602.187 692.906 644.312Z" fill="#25A18E"/>
<path d="M527.344 549.281C526.031 552.406 524.594 555.719 523 558.906C501.844 599.531 455.313 627.969 401.125 627.969C343 627.969 293.469 595.125 275.094 549.281C276.5 548.844 277.875 548.5 279.25 548.094C279.905 547.941 280.552 547.753 281.188 547.531C281.906 547.531 282.656 547.187 283.406 547L284.375 546.875C284.375 546.875 289.844 545.406 294.969 544.25C304.666 564.23 319.791 581.076 338.614 592.863C357.437 604.65 379.197 610.901 401.406 610.901C423.615 610.901 445.375 604.65 464.198 592.863C483.021 581.076 498.146 564.23 507.844 544.25C514.516 545.171 521.059 546.859 527.344 549.281Z" fill="#135E52"/>
<path d="M507.75 544.156C498.044 564.126 482.915 580.962 464.094 592.742C445.272 604.521 423.516 610.767 401.312 610.767C379.109 610.767 357.353 604.521 338.531 592.742C319.71 580.962 304.581 564.126 294.875 544.156C299.094 543.094 303.313 542.125 307.625 541.312L310.75 540.625L312.344 540.344C313.219 540.125 314.125 540 315.031 539.781L318.781 539.156L321.625 538.594H321.875C322.969 535.906 324 533 325 529.812C325.344 528.781 325.687 527.594 326.062 526.469C327.281 521.906 328.188 517.625 328.813 513.812C335.51 519.292 342.733 524.096 350.375 528.156C350.943 528.417 351.496 528.71 352.031 529.031L354.031 530C354.719 530.375 355.562 530.719 356.312 531.125L357.719 531.75L358.875 532.312L360.344 532.937L361.719 533.469C361.921 533.575 362.13 533.669 362.344 533.75L364 534.375L366.094 535.219H366.281L368.5 536.031C368.662 536.097 368.829 536.149 369 536.187L370.594 536.719L373.031 537.437L374.125 537.719L376.344 538.312C380.994 539.446 385.712 540.281 390.469 540.812C390.969 540.812 391.437 540.812 391.937 540.969H392.969H394.906H396.625C397.344 540.969 397.969 540.969 398.656 540.969H400.375C410.697 540.937 420.945 539.227 430.719 535.906C430.79 535.93 430.867 535.93 430.937 535.906C431.313 535.829 431.679 535.714 432.031 535.563C434.531 534.719 436.75 533.812 438.688 533.062L441.313 531.937L442 531.687C453.184 526.9 463.583 520.452 472.844 512.562C473.812 516.844 475 521.406 476.438 526.188C477.75 530.5 479.156 534.5 480.594 538.312C481.719 538.531 482.875 538.656 484 538.938C485.125 539.219 486.281 539.375 487.375 539.562L490.781 540.187L493.281 540.687C493.906 540.687 494.437 540.875 495 541.031C499.281 542.219 503.531 543.094 507.75 544.156Z" fill="#EAB198"/>
<path d="M321.594 168.531C298.915 187.732 280.718 211.668 268.281 238.656C259.763 256.431 253.616 275.249 250 294.625C247.261 309.796 246.213 325.223 246.875 340.625C244.617 340.171 242.29 340.171 240.031 340.625C237.938 332.844 236.094 321.875 233.5 307.844C230.375 289.563 228.657 280.406 229.157 270.344C230.755 249.733 237.88 229.934 249.782 213.031C269.5 185.594 302.5 171.094 321.594 168.531Z" fill="#2D2D2D"/>
<path d="M569.063 307.781C566.563 321.906 564.625 332.781 562.531 340.563C560.313 349 557.906 353.906 554.438 355.594C555 350.594 555.406 345.687 555.594 340.687C556.925 314.618 553.211 288.537 544.656 263.875L545.906 262.969L547.281 261.937C547.559 261.752 547.82 261.543 548.063 261.312C553.533 257.026 558.391 252.011 562.5 246.406C563.69 244.844 564.538 243.049 564.99 241.138C565.442 239.227 565.488 237.242 565.125 235.312C569.779 246.428 572.586 258.229 573.438 270.25C573.969 280.406 572.313 289.562 569.063 307.781Z" fill="#2D2D2D"/>
<path opacity="0.2" d="M530.969 550.313C528.375 553.438 525.688 556.125 523 558.906C516.832 565.023 510.254 570.714 503.313 575.937C494.181 582.786 484.216 588.446 473.656 592.781C467.014 595.47 460.128 597.51 453.094 598.875C446.863 600.055 440.528 600.589 434.188 600.469C421.723 600.246 409.408 597.703 397.875 592.969C397.187 592.728 396.518 592.436 395.875 592.094C386.7 588.191 378.007 583.241 369.969 577.344C354.774 566.087 341.409 552.553 330.344 537.219C328.531 534.781 326.813 532.312 325.062 529.812C325.406 528.781 325.75 527.594 326.125 526.469C327.344 521.906 328.25 517.625 328.875 513.812C330.688 515.25 332.625 516.719 334.5 518.094C339.593 521.784 344.916 525.145 350.438 528.156C351.005 528.417 351.558 528.71 352.094 529.031L354.094 530C354.781 530.375 355.625 530.719 356.375 531.125L357.781 531.75L358.938 532.312L360.406 532.937L361.781 533.469C361.984 533.575 362.192 533.669 362.406 533.75L364.063 534.375L366.156 535.219H366.344L368.563 536.031C368.725 536.097 368.892 536.149 369.063 536.187L370.656 536.719L373.094 537.437L374.188 537.719L376.406 538.312C381.044 539.506 385.766 540.342 390.531 540.812C391.031 540.812 391.5 540.812 392 540.969H393.031H394.969H396.688C397.406 540.969 398.031 540.969 398.719 540.969H400.438C410.754 540.87 420.992 539.162 430.781 535.906C430.852 535.93 430.929 535.93 431 535.906C431.375 535.829 431.742 535.714 432.094 535.563C434.188 534.844 436.188 534.094 438.188 533.281L438.813 533.062L441.375 531.937L442.063 531.687C451.166 527.519 459.807 522.408 467.844 516.437C469.563 515.187 471.25 513.875 472.906 512.562C473.875 516.844 475.062 521.406 476.5 526.188C477.812 530.5 479.219 534.5 480.656 538.312C481.781 538.531 482.937 538.656 484.062 538.938C485.187 539.219 486.344 539.375 487.437 539.562L490.844 540.187L493.344 540.688C493.969 540.688 494.5 540.875 495.063 541.031C499.281 541.938 503.531 542.812 507.75 543.875C514.312 545.375 520.906 547 527.344 549L530.969 550.313Z" fill="black"/>
<path d="M582.688 374.625C582.188 390.844 571.844 407.25 560.25 413.281C558.693 414.095 557.047 414.724 555.344 415.156H554.969C552.87 415.67 550.687 415.734 548.563 415.344C546.303 414.894 544.17 413.955 542.313 412.594L541.438 411.969C540.157 410.933 538.984 409.771 537.938 408.5C529.594 398.437 526.188 379.531 531.688 364.469C533.939 358.62 537.376 353.301 541.781 348.844C545.5 344.853 550.299 342.03 555.594 340.719C558.039 340.234 560.555 340.234 563 340.719C576.75 343.406 583.094 361.062 582.688 374.625Z" fill="#EAB198"/>
<path opacity="0.3" d="M582.688 374.625C582.188 390.844 571.844 407.25 560.25 413.281C558.693 414.095 557.047 414.724 555.344 415.156H554.969C552.87 415.67 550.687 415.734 548.563 415.344C546.303 414.894 544.17 413.955 542.313 412.594L541.438 411.969C540.157 410.933 538.984 409.771 537.938 408.5C529.594 398.437 526.188 379.531 531.688 364.469C533.939 358.62 537.376 353.301 541.781 348.844C545.5 344.853 550.299 342.03 555.594 340.719C558.039 340.234 560.555 340.234 563 340.719C576.75 343.406 583.094 361.062 582.688 374.625Z" fill="black"/>
<path d="M264.594 408.562C263.471 410.03 262.169 411.353 260.719 412.5C260.56 412.625 260.393 412.74 260.219 412.844C258.406 414.168 256.325 415.078 254.122 415.51C251.919 415.942 249.648 415.885 247.469 415.344C247.335 415.371 247.197 415.371 247.063 415.344C245.38 414.911 243.754 414.282 242.219 413.469C230.594 407.437 220.344 391.031 219.781 374.812C219.344 361.25 225.657 343.562 239.438 340.812C239.603 340.782 239.772 340.782 239.938 340.812C242.214 340.284 244.574 340.22 246.875 340.625C252.208 341.869 257.042 344.689 260.75 348.719C261.534 349.512 262.275 350.346 262.969 351.219C266.333 355.152 268.997 359.633 270.844 364.469C276.375 379.625 272.969 398.531 264.594 408.562Z" fill="#EAB198"/>
<path d="M555.531 340.625C555.344 345.625 554.938 350.531 554.375 355.531C552.228 374.784 547.855 393.723 541.344 411.969C526.813 452.844 502.344 489.094 472.906 512.781C471.25 514.094 469.563 515.406 467.844 516.656C459.807 522.627 451.166 527.738 442.063 531.906L441.375 532.156L438.813 533.281L438.188 533.5C436.188 534.313 434.188 535.062 432.094 535.781C431.742 535.933 431.375 536.048 431 536.125C430.929 536.149 430.852 536.149 430.781 536.125C420.992 539.381 410.754 541.089 400.438 541.187H398.719C398.031 541.187 397.406 541.187 396.688 541.187H394.969H393.031H392C391.5 541.187 391.031 541.187 390.531 541.031C385.766 540.561 381.044 539.725 376.406 538.531L374.188 537.938L373.094 537.656L370.656 536.938L369.063 536.406C368.892 536.368 368.725 536.316 368.563 536.25L366.344 535.437H366.156L364.063 534.594L362.406 533.969C362.192 533.888 361.984 533.794 361.781 533.688L360.406 533.156L358.938 532.531L357.781 531.969L356.25 531.25C355.5 530.844 354.656 530.5 353.969 530.125L351.969 529.156C351.433 528.835 350.88 528.542 350.313 528.281C344.791 525.27 339.468 521.909 334.375 518.219C332.5 516.844 330.563 515.375 328.75 513.938C318.917 506.013 309.931 497.09 301.938 487.313C283.852 465.029 269.893 439.693 260.719 412.5C260.219 411.406 259.875 410.219 259.469 409.062C253.682 391.724 249.804 373.805 247.906 355.625C247.906 354.469 247.625 353.219 247.563 352.031C247.281 348.906 247 345.781 246.875 342.406C246.875 341.844 246.875 341.375 246.875 340.812C246.209 325.39 247.257 309.941 250 294.75C253.646 275.369 259.824 256.552 268.375 238.781C280.811 211.793 299.009 187.857 321.688 168.656C322.656 167.844 323.656 167.063 324.625 166.313C346.235 148.777 373.112 139.015 400.938 138.594C431.375 138.594 458.375 150.156 480.969 168.594C492.991 178.486 503.694 189.881 512.813 202.5C523.714 217.466 532.759 233.699 539.75 250.844C541.563 255.125 543.156 259.5 544.594 263.875C553.149 288.537 556.863 314.618 555.531 340.687V340.625Z" fill="#EAB198"/>
<path opacity="0.2" d="M573.406 270.25C570.402 273.697 567.063 276.838 563.438 279.625C563.156 279.906 561.844 280.875 560.125 282.188C557.281 284.219 554.375 286.219 551.375 288.156C518.793 309.351 480.997 321.148 442.145 322.251C403.292 323.353 364.887 313.719 331.156 294.406C324.602 290.57 318.25 286.397 312.125 281.906C310.031 280.375 308.031 278.781 306.031 277.281C300.599 273.091 295.384 268.627 290.406 263.906C288.125 261.687 285.844 259.406 283.625 257.031C280.719 253.906 277.875 250.781 275.187 247.656C274.046 246.339 273.176 244.81 272.625 243.156C278.241 248.708 284.178 253.926 290.406 258.781C298.325 265.026 306.679 270.697 315.406 275.75C344.784 292.705 377.811 302.34 411.697 303.842C445.583 305.343 479.332 298.666 510.094 284.375C522.165 278.688 533.675 271.877 544.469 264.031L545.719 263.125L547.094 262.094C547.371 261.908 547.633 261.699 547.875 261.469C553.423 257.148 558.344 252.079 562.5 246.406C563.69 244.844 564.538 243.049 564.99 241.138C565.442 239.227 565.488 237.242 565.125 235.312C569.768 246.43 572.565 258.231 573.406 270.25Z" fill="black"/>
<path d="M562.5 246.406C558.381 252.013 553.513 257.028 548.031 261.312C547.789 261.543 547.528 261.752 547.25 261.937L545.875 262.969L544.625 263.875C533.831 271.72 522.322 278.532 510.25 284.219C479.521 298.546 445.797 305.27 411.923 303.823C378.049 302.377 345.02 292.801 315.625 275.906C306.898 270.853 298.544 265.182 290.625 258.937C284.397 254.082 278.46 248.865 272.844 243.312C271.313 241.781 269.719 240.187 268.344 238.75C265.406 235.625 262.656 232.5 259.938 229.375C257.773 226.797 256.586 223.538 256.586 220.172C256.586 216.805 257.773 213.547 259.938 210.969C271.332 197.392 284.394 185.307 298.813 175C302.75 172.167 306.833 169.469 311.063 166.906C344.112 146.671 382.123 135.994 420.875 136.062C430.781 136.062 458.156 136.062 483.094 145.437C509.813 155.437 529.156 174.406 542.469 192.969C551.237 205.184 558.576 218.364 564.344 232.25C564.767 233.246 565.04 234.299 565.156 235.375C565.506 237.297 565.45 239.271 564.993 241.171C564.536 243.071 563.687 244.854 562.5 246.406Z" fill="#2D2D2D"/>
</svg>
