<svg width="80" height="80" viewBox="0 0 80 80" fill="none" xmlns="http://www.w3.org/2000/svg">
<path d="M23.1908 13.9621C25.9418 13.9621 28.1719 11.732 28.1719 8.98107C28.1719 6.2301 25.9418 4 23.1908 4C20.4398 4 18.2097 6.2301 18.2097 8.98107C18.2097 11.732 20.4398 13.9621 23.1908 13.9621Z" fill="#25A18E"/>
<path d="M25.3077 20.1888H14.8474C15.1955 19.074 15.8907 18.0996 16.8315 17.4078C17.7724 16.7159 18.9097 16.3428 20.0775 16.3428C21.2454 16.3428 22.3827 16.7159 23.3235 17.4078C24.2644 18.0996 24.9596 19.074 25.3077 20.1888Z" fill="#25A18E"/>
<path d="M66.7751 26.4148V28.9053C66.7751 29.8961 66.3815 30.8463 65.6809 31.5469C64.9803 32.2475 64.0301 32.6411 63.0393 32.6411H44.2357C44.435 31.5631 44.3947 30.4545 44.1175 29.3938C43.8404 28.3332 43.3333 27.3465 42.6321 26.5038C41.9309 25.6611 41.0529 24.983 40.0603 24.5177C39.0677 24.0523 37.9849 23.8111 36.8886 23.8111C35.7924 23.8111 34.7096 24.0523 33.717 24.5177C32.7244 24.983 31.8464 25.6611 31.1452 26.5038C30.444 27.3465 29.9369 28.3332 29.6597 29.3938C29.3826 30.4545 29.3423 31.5631 29.5416 32.6411H10.738C9.74723 32.6411 8.79701 32.2475 8.09642 31.5469C7.39582 30.8463 7.00223 29.8961 7.00223 28.9053V26.4148C6.98483 25.9195 7.06956 25.4259 7.25115 24.9648C7.43273 24.5037 7.70729 24.0849 8.05772 23.7345C8.40815 23.384 8.82696 23.1095 9.28807 22.9279C9.74919 22.7463 10.2427 22.6616 10.738 22.679H63.0393C63.5345 22.6616 64.0281 22.7463 64.4892 22.9279C64.9503 23.1095 65.3691 23.384 65.7196 23.7345C66.07 24.0849 66.3445 24.5037 66.5261 24.9648C66.7077 25.4259 66.7925 25.9195 66.7751 26.4148Z" fill="#25A18E"/>
<path d="M70.8844 45.3427L62.4166 37.2485L62.6657 35.1315H42.4923L41.1225 33.8863C41.6122 33.1481 41.8722 32.2815 41.8697 31.3957C41.8874 30.296 41.5406 29.2213 40.8834 28.3393C40.2262 27.4573 39.2956 26.8177 38.2367 26.5202C37.1778 26.2226 36.0502 26.284 35.0298 26.6946C34.0094 27.1052 33.1536 27.842 32.5959 28.79C32.0383 29.7381 31.8101 30.8441 31.9469 31.9354C32.0838 33.0268 32.5781 34.0421 33.3526 34.8231C34.1271 35.6041 35.1384 36.1067 36.2285 36.2526C37.3187 36.3985 38.4265 36.1795 39.3792 35.6296L60.2997 54.9313L61.1714 55.6785C61.8637 56.3219 62.6796 56.8179 63.5696 57.1362C64.4595 57.4546 65.4049 57.5888 66.3482 57.5305C67.2916 57.4723 68.2133 57.2229 69.0573 56.7975C69.9013 56.3721 70.6501 55.7795 71.258 55.0558C72.4431 53.6931 73.0641 51.9299 72.9947 50.1253C72.9253 48.3207 72.1707 46.6104 70.8844 45.3427ZM69.3901 53.437C68.9975 53.899 68.5152 54.2766 67.9724 54.5468C67.4296 54.8171 66.8377 54.9744 66.2324 55.0094C65.627 55.0443 65.0209 54.9561 64.4507 54.75C63.8804 54.5439 63.3579 54.2243 62.9147 53.8106L60.6732 51.8181L62.043 40.3617L69.1411 47.2106C69.9818 48.0136 70.4778 49.1118 70.5243 50.2735C70.5707 51.4351 70.1641 52.5694 69.3901 53.437Z" fill="#25A18E"/>
<path d="M30.4132 35.1318H11.1116L14.9719 68.505C15.215 70.6189 16.2229 72.5708 17.8056 73.9929C19.3883 75.4151 21.4365 76.2092 23.5642 76.2257H50.213C52.3407 76.2092 54.3889 75.4151 55.9716 73.9929C57.5543 72.5708 58.5622 70.6189 58.8053 68.505L60.0506 57.9202L38.881 38.6186C37.2828 39.0592 35.5834 38.9558 34.0503 38.3246C32.5173 37.6933 31.2378 36.5701 30.4132 35.1318Z" fill="#25A18E"/>
<path d="M56.4394 15.581C55.5573 15.2769 54.6181 15.175 53.6912 15.2828C52.7644 15.3906 51.8736 15.7053 51.0848 16.2037L49.715 14.0867C51.325 13.0094 53.2767 12.5658 55.1942 12.8414C54.2685 11.288 52.9559 10.0011 51.3845 9.10627C49.8131 8.21145 48.0366 7.73928 46.2283 7.73584C43.8179 7.76039 41.4863 8.59741 39.6106 10.1115C37.735 11.6256 36.425 13.7282 35.8925 16.0791L33.402 15.4565C33.6793 14.5649 34.012 13.6915 34.3982 12.8414C32.6606 13.1351 31.0827 14.0336 29.9434 15.378C28.8041 16.7224 28.1766 18.4263 28.1719 20.1885H60.4243C60.2104 19.1435 59.7316 18.171 59.0338 17.3642C58.336 16.5574 57.4427 15.9434 56.4394 15.581Z" fill="#25A18E"/>
</svg>
