<svg width="80" height="80" viewBox="0 0 80 80" fill="none" xmlns="http://www.w3.org/2000/svg">
<path d="M63.9999 5.25828L61.25 4.7583V14.5078L63.9999 14.0078C64.2864 13.9494 64.5435 13.7923 64.7262 13.5639C64.9089 13.3355 65.0057 13.0503 64.9998 12.7579V6.50821C65.0057 6.21579 64.9089 5.93057 64.7262 5.70218C64.5435 5.47379 64.2864 5.31671 63.9999 5.25828Z" fill="#25A18E"/>
<path d="M50.5004 17.7572C49.0926 17.6179 47.6809 17.9804 46.5144 18.7809C45.348 19.5814 44.502 20.7683 44.1257 22.132C44.9397 24.9393 46.1162 27.6285 47.6256 30.1316C47.793 30.3254 48.0072 30.4731 48.2479 30.5606C48.4886 30.6481 48.7477 30.6725 49.0005 30.6316L51.5004 29.8816C51.6576 29.8259 51.802 29.7393 51.9252 29.6269C52.0485 29.5146 52.1479 29.3786 52.2178 29.2272C52.2877 29.0758 52.3266 28.9119 52.3322 28.7452C52.3378 28.5786 52.3099 28.4124 52.2503 28.2567C51.2319 24.8434 50.644 21.3163 50.5004 17.7572Z" fill="#25A18E"/>
<path d="M22.502 26.5068V31.6316H41.251V26.5068H22.502Z" fill="#25A18E"/>
<path d="M57.5001 4.00787H26.2517C23.2681 4.00787 20.4068 5.19308 18.2971 7.30276C16.1874 9.41243 15.0022 12.2738 15.0022 15.2573V16.5072C14.9848 17.0044 15.0698 17.4998 15.2521 17.9626C15.4344 18.4255 15.7099 18.8459 16.0617 19.1976C16.4134 19.5493 16.8338 19.8249 17.2967 20.0072C17.7595 20.1895 18.2549 20.2745 18.752 20.257C19.2492 20.2396 19.7446 20.3246 20.2074 20.5069C20.6703 20.6892 21.0907 20.9648 21.4424 21.3165C21.7941 21.6682 22.0697 22.0886 22.252 22.5515C22.4343 23.0143 22.5193 23.5097 22.5019 24.0069H41.2509C41.2509 21.6863 42.1727 19.4608 43.8136 17.82C45.4544 16.1791 47.6799 15.2573 50.0005 15.2573H57.5001C57.6691 15.2774 57.8404 15.2589 58.0012 15.2032C58.162 15.1475 58.3081 15.056 58.4284 14.9357C58.5487 14.8154 58.6402 14.6693 58.6959 14.5085C58.7516 14.3477 58.7701 14.1764 58.75 14.0074V5.25781C58.7701 5.08883 58.7516 4.91748 58.6959 4.75668C58.6402 4.59589 58.5487 4.44982 58.4284 4.32949C58.3081 4.20916 58.162 4.11769 58.0012 4.06198C57.8404 4.00628 57.6691 3.98777 57.5001 4.00787Z" fill="#25A18E"/>
<path d="M53.1254 47.2557L50.2505 46.1307C49.0858 45.6814 48.0824 44.8936 47.3695 43.8689C46.6566 42.8441 46.2669 41.6293 46.2507 40.381C46.2507 38.7235 45.5923 37.1339 44.4202 35.9618C43.2482 34.7898 41.6586 34.1313 40.0011 34.1313H23.7519C22.0944 34.1313 20.5047 34.7898 19.3327 35.9618C18.1606 37.1339 17.5022 38.7235 17.5022 40.381V70.2545C17.5022 71.912 18.1606 73.5017 19.3327 74.6737C20.5047 75.8457 22.0944 76.5042 23.7519 76.5042H52.5004C53.3211 76.5042 54.1338 76.3425 54.8921 76.0285C55.6503 75.7144 56.3393 75.254 56.9196 74.6737C57.4999 74.0934 57.9603 73.4044 58.2744 72.6462C58.5884 71.8879 58.7501 71.0752 58.7501 70.2545V55.3803C58.758 53.6129 58.2227 51.8857 57.2167 50.4326C56.2106 48.9794 54.7824 47.8704 53.1254 47.2557ZM37.5012 69.0046C35.5235 69.0046 33.5902 68.4181 31.9458 67.3194C30.3014 66.2206 29.0197 64.6589 28.2629 62.8317C27.506 61.0046 27.308 58.994 27.6938 57.0543C28.0797 55.1146 29.032 53.3328 30.4305 51.9344C31.8289 50.5359 33.6107 49.5836 35.5504 49.1977C37.4901 48.8119 39.5007 49.0099 41.3278 49.7668C43.155 50.5236 44.7167 51.8053 45.8155 53.4497C46.9142 55.0941 47.5007 57.0274 47.5007 59.0051C47.5007 61.6571 46.4472 64.2005 44.5719 66.0758C42.6966 67.9511 40.1532 69.0046 37.5012 69.0046Z" fill="#25A18E"/>
</svg>
