<svg width="280" height="280" viewBox="0 0 280 280" fill="none" xmlns="http://www.w3.org/2000/svg">
<g clip-path="url(#clip0_13_416)">
<path d="M120.047 175.622C120.047 175.622 156.199 171.306 168.852 164.472C181.505 157.639 275.499 154.402 275.499 175.622C275.499 196.841 167.406 206.193 167.406 206.193L110.647 202.956L120.047 175.622Z" fill="#FBBEBE"/>
<path opacity="0.1" d="M120.047 175.622C120.047 175.622 156.199 171.306 168.852 164.472C181.505 157.639 275.499 154.402 275.499 175.622C275.499 196.841 167.406 206.193 167.406 206.193L110.647 202.956L120.047 175.622Z" fill="black"/>
<path d="M130.531 171.664L122.939 193.604L4 195.042V162.673C4 162.673 49.5511 152.243 85.7028 174.542C85.7028 174.542 128.362 169.506 130.531 171.664Z" fill="#25A18E"/>
<path opacity="0.1" d="M130.531 171.629L122.939 193.568L4 195.007V162.638C4 162.638 49.5511 152.208 85.7028 174.507C85.7028 174.507 128.362 169.471 130.531 171.629Z" fill="black"/>
<path d="M266.515 162.493C266.515 163.719 263.751 164.629 263.48 165.811C263.21 166.984 264.852 168.768 264.333 169.888C263.796 171.033 263.161 172.131 262.436 173.168C261.756 174.138 259.654 173.996 258.792 174.905C257.948 175.731 257.054 176.504 256.115 177.221C255.2 177.978 253.961 178.137 252.921 178.833C251.932 179.496 252.052 181.925 250.958 182.529C249.912 183.105 248.312 182.641 247.179 183.159C246.09 183.657 245.516 185.455 244.353 185.895C243.231 186.319 241.842 186.137 240.655 186.504C239.507 186.86 238.222 186.802 237.019 187.101C235.851 187.392 234.959 189.134 233.743 189.369C232.559 189.598 231.172 188.988 229.947 189.161C228.751 189.33 227.361 187.825 226.131 187.939C224.927 188.05 223.792 188.747 222.559 188.803C221.35 188.859 220.155 189.388 218.922 189.388C217.689 189.388 216.416 190.539 215.207 190.484C213.975 190.428 212.858 188.683 211.654 188.572C210.424 188.458 208.957 190.28 207.761 190.111C206.537 189.937 205.567 188.154 204.383 187.925C203.167 187.69 201.597 188.965 200.429 188.674C199.225 188.374 198.511 186.3 197.363 185.944C196.176 185.576 194.706 186.074 193.584 185.65C192.42 185.21 191.002 185.281 189.914 184.783C188.78 184.265 187.966 183.039 186.921 182.463C185.827 181.86 185.323 180.364 184.334 179.701C183.294 179.005 181.709 179.093 180.794 178.337C179.828 177.538 178.019 177.496 177.204 176.636C176.342 175.727 175.994 174.201 175.313 173.231C174.596 172.21 176.003 170.051 175.503 168.972C174.983 167.852 172.812 167.397 172.543 166.224C172.265 165 172.123 163.749 172.118 162.493C172.118 161.267 173.974 160.33 174.246 159.148C174.516 157.975 173.149 156.291 173.669 155.171C174.169 154.091 174.105 152.432 174.822 151.411C175.503 150.442 177.201 150.062 178.063 149.152C178.878 148.293 180.336 148.053 181.302 147.254C182.217 146.498 182.1 144.215 183.14 143.519C184.129 142.856 185.51 142.554 186.604 141.951C187.649 141.375 189.128 141.472 190.262 140.954C191.35 140.456 193.055 141.436 194.219 140.996C195.341 140.572 196.251 139.645 197.437 139.278C198.585 138.922 199.125 136.21 200.328 135.911C201.496 135.62 202.934 136.103 204.149 135.868C205.333 135.639 206.927 137.779 208.151 137.605C209.347 137.436 210.241 134.58 211.471 134.466C212.675 134.354 214.033 135.834 215.266 135.777C216.475 135.722 217.689 136.589 218.922 136.589C220.155 136.589 221.384 135.399 222.592 135.455C223.825 135.511 224.912 137.083 226.116 137.194C227.346 137.308 228.856 134.917 230.052 135.087C231.277 135.26 232.223 137.108 233.407 137.337C234.623 137.572 236.145 136.425 237.314 136.715C238.517 137.015 239.241 138.979 240.389 139.335C241.576 139.702 242.307 141.088 243.429 141.512C244.592 141.952 246.754 139.894 247.843 140.392C248.976 140.91 249.956 141.806 251.001 142.383C252.095 142.986 253.834 142.683 254.823 143.345C255.863 144.042 256.119 145.912 257.034 146.669C257.999 147.468 259.592 147.708 260.407 148.568C261.269 149.477 261.389 151.106 262.069 152.076C262.786 153.097 262.763 154.512 263.264 155.591C263.783 156.711 265.169 157.558 265.439 158.73C265.71 159.912 266.515 161.268 266.515 162.493Z" fill="#00332B"/>
<path d="M136.315 184.972C136.315 184.972 177.167 164.112 203.557 172.024C229.948 179.937 266.823 166.27 271.161 170.945C275.499 175.621 281.645 225.973 229.587 228.85C177.528 231.728 133.062 220.219 133.062 220.219L136.315 184.972Z" fill="#FBBEBE"/>
<path d="M126.695 182.751C126.695 182.751 142.822 181.735 142.099 187.49C141.376 193.244 140.653 237.842 136.315 238.921C131.977 240 97.6329 240 83.5337 240H4V171.049C4 171.049 60.3966 167.709 88.595 181.735C88.595 181.735 122.497 181.248 126.695 182.751Z" fill="#25A18E"/>
<path d="M202.249 74.9014C200.708 74.988 199.221 75.4999 197.957 76.3798C196.692 77.2597 195.698 78.4728 195.087 79.883C193.296 84.1895 195.602 89.2481 199.064 92.3884C202.525 95.5288 206.971 97.3238 211.011 99.6832C216.437 102.852 221.313 107.251 224.028 112.898C226.743 118.545 227.032 125.54 223.841 130.935C220.878 135.943 215.492 138.939 210.355 141.703" stroke="#00332B" stroke-miterlimit="10"/>
<path d="M216.71 48.6465C215.169 48.7331 213.682 49.245 212.417 50.1249C211.152 51.0048 210.159 52.2179 209.548 53.6281C207.757 57.9346 210.063 62.9932 213.524 66.1336C216.986 69.2739 221.432 71.0689 225.472 73.4283C230.898 76.5973 235.774 80.9965 238.489 86.6435C241.204 92.2906 241.493 99.2856 238.301 104.68C235.339 109.688 229.953 112.685 224.816 115.449" stroke="#00332B" stroke-miterlimit="10"/>
<path d="M264.255 54.6844C262.983 53.8143 261.493 53.3139 259.951 53.2393C258.41 53.1646 256.878 53.5187 255.527 54.2618C251.461 56.5764 250.171 61.9806 250.976 66.5718C251.781 71.163 254.192 75.2903 255.934 79.6163C258.275 85.4269 259.423 91.875 258.095 97.9937C256.768 104.112 252.692 109.819 246.848 112.142C241.425 114.297 235.322 113.386 229.559 112.443" stroke="#00332B" stroke-miterlimit="10"/>
<path d="M222.356 108.96C227.148 108.96 231.033 107.083 231.033 104.768C231.033 102.452 227.148 100.575 222.356 100.575C217.564 100.575 213.68 102.452 213.68 104.768C213.68 107.083 217.564 108.96 222.356 108.96Z" fill="#57B894"/>
<path d="M221.272 108.242C226.064 108.242 229.948 106.365 229.948 104.049C229.948 101.734 226.064 99.8564 221.272 99.8564C216.48 99.8564 212.595 101.734 212.595 104.049C212.595 106.365 216.48 108.242 221.272 108.242Z" stroke="#00332B" stroke-miterlimit="10"/>
<path d="M241.155 105.364C245.947 105.364 249.832 103.487 249.832 101.171C249.832 98.8556 245.947 96.9785 241.155 96.9785C236.363 96.9785 232.479 98.8556 232.479 101.171C232.479 103.487 236.363 105.364 241.155 105.364Z" fill="#57B894"/>
<path d="M240.071 104.645C244.862 104.645 248.747 102.768 248.747 100.452C248.747 98.1369 244.862 96.2598 240.071 96.2598C235.279 96.2598 231.394 98.1369 231.394 100.452C231.394 102.768 235.279 104.645 240.071 104.645Z" stroke="#00332B" stroke-miterlimit="10"/>
<path d="M244.047 121.189C248.839 121.189 252.724 119.312 252.724 116.996C252.724 114.681 248.839 112.804 244.047 112.804C239.255 112.804 235.371 114.681 235.371 116.996C235.371 119.312 239.255 121.189 244.047 121.189Z" fill="#57B894"/>
<path d="M242.963 120.47C247.754 120.47 251.639 118.593 251.639 116.278C251.639 113.962 247.754 112.085 242.963 112.085C238.171 112.085 234.286 113.962 234.286 116.278C234.286 118.593 238.171 120.47 242.963 120.47Z" stroke="#00332B" stroke-miterlimit="10"/>
<path d="M242.24 81.6264C247.031 81.6264 250.916 79.7493 250.916 77.4338C250.916 75.1183 247.031 73.2412 242.24 73.2412C237.448 73.2412 233.563 75.1183 233.563 77.4338C233.563 79.7493 237.448 81.6264 242.24 81.6264Z" fill="#57B894"/>
<path d="M241.155 80.9077C245.947 80.9077 249.832 79.0306 249.832 76.7151C249.832 74.3996 245.947 72.5225 241.155 72.5225C236.363 72.5225 232.479 74.3996 232.479 76.7151C232.479 79.0306 236.363 80.9077 241.155 80.9077Z" stroke="#00332B" stroke-miterlimit="10"/>
<path d="M220.549 79.1088C225.341 79.1088 229.225 77.2317 229.225 74.9162C229.225 72.6007 225.341 70.7236 220.549 70.7236C215.757 70.7236 211.872 72.6007 211.872 74.9162C211.872 77.2317 215.757 79.1088 220.549 79.1088Z" fill="#57B894"/>
<path d="M219.464 78.3901C224.256 78.3901 228.14 76.513 228.14 74.1975C228.14 71.882 224.256 70.0049 219.464 70.0049C214.672 70.0049 210.788 71.882 210.788 74.1975C210.788 76.513 214.672 78.3901 219.464 78.3901Z" stroke="#00332B" stroke-miterlimit="10"/>
<path d="M230.31 70.1176C235.101 70.1176 238.986 68.2405 238.986 65.925C238.986 63.6095 235.101 61.7324 230.31 61.7324C225.518 61.7324 221.633 63.6095 221.633 65.925C221.633 68.2405 225.518 70.1176 230.31 70.1176Z" fill="#57B894"/>
<path d="M229.225 69.3979C234.017 69.3979 237.901 67.5208 237.901 65.2053C237.901 62.8898 234.017 61.0127 229.225 61.0127C224.433 61.0127 220.549 62.8898 220.549 65.2053C220.549 67.5208 224.433 69.3979 229.225 69.3979Z" stroke="#00332B" stroke-miterlimit="10"/>
<path d="M251.639 71.9155C256.431 71.9155 260.316 70.0384 260.316 67.7229C260.316 65.4074 256.431 63.5303 251.639 63.5303C246.847 63.5303 242.963 65.4074 242.963 67.7229C242.963 70.0384 246.847 71.9155 251.639 71.9155Z" fill="#57B894"/>
<path d="M250.555 71.1967C255.346 71.1967 259.231 69.3196 259.231 67.0041C259.231 64.6886 255.346 62.8115 250.555 62.8115C245.763 62.8115 241.878 64.6886 241.878 67.0041C241.878 69.3196 245.763 71.1967 250.555 71.1967Z" stroke="#00332B" stroke-miterlimit="10"/>
<path d="M267.546 83.7846C272.338 83.7846 276.222 81.9075 276.222 79.592C276.222 77.2765 272.338 75.3994 267.546 75.3994C262.754 75.3994 258.869 77.2765 258.869 79.592C258.869 81.9075 262.754 83.7846 267.546 83.7846Z" fill="#57B894"/>
<path d="M266.461 83.0649C271.253 83.0649 275.138 81.1878 275.138 78.8723C275.138 76.5568 271.253 74.6797 266.461 74.6797C261.669 74.6797 257.785 76.5568 257.785 78.8723C257.785 81.1878 261.669 83.0649 266.461 83.0649Z" stroke="#00332B" stroke-miterlimit="10"/>
<path d="M211.511 62.9243C216.303 62.9243 220.187 61.0472 220.187 58.7317C220.187 56.4162 216.303 54.5391 211.511 54.5391C206.719 54.5391 202.834 56.4162 202.834 58.7317C202.834 61.0472 206.719 62.9243 211.511 62.9243Z" fill="#57B894"/>
<path d="M210.426 62.2055C215.218 62.2055 219.103 60.3284 219.103 58.0129C219.103 55.6974 215.218 53.8203 210.426 53.8203C205.634 53.8203 201.75 55.6974 201.75 58.0129C201.75 60.3284 205.634 62.2055 210.426 62.2055Z" stroke="#00332B" stroke-miterlimit="10"/>
<path d="M216.933 49.2573C221.725 49.2573 225.61 47.3802 225.61 45.0647C225.61 42.7492 221.725 40.8721 216.933 40.8721C212.142 40.8721 208.257 42.7492 208.257 45.0647C208.257 47.3802 212.142 49.2573 216.933 49.2573Z" fill="#57B894"/>
<path d="M215.849 48.5385C220.641 48.5385 224.525 46.6614 224.525 44.3459C224.525 42.0304 220.641 40.1533 215.849 40.1533C211.057 40.1533 207.172 42.0304 207.172 44.3459C207.172 46.6614 211.057 48.5385 215.849 48.5385Z" stroke="#00332B" stroke-miterlimit="10"/>
<path d="M267.184 59.3276C271.976 59.3276 275.861 57.4505 275.861 55.135C275.861 52.8195 271.976 50.9424 267.184 50.9424C262.392 50.9424 258.508 52.8195 258.508 55.135C258.508 57.4505 262.392 59.3276 267.184 59.3276Z" fill="#57B894"/>
<path d="M266.1 58.6088C270.892 58.6088 274.776 56.7317 274.776 54.4162C274.776 52.1007 270.892 50.2236 266.1 50.2236C261.308 50.2236 257.423 52.1007 257.423 54.4162C257.423 56.7317 261.308 58.6088 266.1 58.6088Z" stroke="#00332B" stroke-miterlimit="10"/>
<path d="M187.289 92.4164C192.081 92.4164 195.965 90.5394 195.965 88.2238C195.965 85.9083 192.081 84.0312 187.289 84.0312C182.497 84.0312 178.613 85.9083 178.613 88.2238C178.613 90.5394 182.497 92.4164 187.289 92.4164Z" fill="#57B894"/>
<path d="M186.204 91.6967C190.996 91.6967 194.881 89.8196 194.881 87.5041C194.881 85.1886 190.996 83.3115 186.204 83.3115C181.413 83.3115 177.528 85.1886 177.528 87.5041C177.528 89.8196 181.413 91.6967 186.204 91.6967Z" stroke="#00332B" stroke-miterlimit="10"/>
<path d="M217.295 90.2582C222.087 90.2582 225.971 88.3812 225.971 86.0656C225.971 83.7501 222.087 81.873 217.295 81.873C212.503 81.873 208.619 83.7501 208.619 86.0656C208.619 88.3812 212.503 90.2582 217.295 90.2582Z" fill="#57B894"/>
<path d="M216.21 89.5395C221.002 89.5395 224.887 87.6624 224.887 85.3469C224.887 83.0314 221.002 81.1543 216.21 81.1543C211.419 81.1543 207.534 83.0314 207.534 85.3469C207.534 87.6624 211.419 89.5395 216.21 89.5395Z" stroke="#00332B" stroke-miterlimit="10"/>
<path d="M256.7 93.4955C261.492 93.4955 265.377 91.6185 265.377 89.303C265.377 86.9874 261.492 85.1104 256.7 85.1104C251.908 85.1104 248.024 86.9874 248.024 89.303C248.024 91.6185 251.908 93.4955 256.7 93.4955Z" fill="#57B894"/>
<path d="M255.616 92.7758C260.408 92.7758 264.292 90.8987 264.292 88.5832C264.292 86.2677 260.408 84.3906 255.616 84.3906C250.824 84.3906 246.939 86.2677 246.939 88.5832C246.939 90.8987 250.824 92.7758 255.616 92.7758Z" stroke="#00332B" stroke-miterlimit="10"/>
<path d="M235.732 94.934C240.524 94.934 244.409 93.0569 244.409 90.7414C244.409 88.4259 240.524 86.5488 235.732 86.5488C230.94 86.5488 227.056 88.4259 227.056 90.7414C227.056 93.0569 230.94 94.934 235.732 94.934Z" fill="#57B894"/>
<path d="M234.648 94.2143C239.44 94.2143 243.324 92.3372 243.324 90.0217C243.324 87.7062 239.44 85.8291 234.648 85.8291C229.856 85.8291 225.971 87.7062 225.971 90.0217C225.971 92.3372 229.856 94.2143 234.648 94.2143Z" stroke="#00332B" stroke-miterlimit="10"/>
<path d="M237.178 58.9682C241.97 58.9682 245.855 57.0911 245.855 54.7756C245.855 52.4601 241.97 50.583 237.178 50.583C232.387 50.583 228.502 52.4601 228.502 54.7756C228.502 57.0911 232.387 58.9682 237.178 58.9682Z" fill="#57B894"/>
<path d="M236.094 58.2485C240.886 58.2485 244.77 56.3714 244.77 54.0559C244.77 51.7404 240.886 49.8633 236.094 49.8633C231.302 49.8633 227.417 51.7404 227.417 54.0559C227.417 56.3714 231.302 58.2485 236.094 58.2485Z" stroke="#00332B" stroke-miterlimit="10"/>
<path d="M199.942 81.267C204.734 81.267 208.619 79.3899 208.619 77.0744C208.619 74.7589 204.734 72.8818 199.942 72.8818C195.15 72.8818 191.266 74.7589 191.266 77.0744C191.266 79.3899 195.15 81.267 199.942 81.267Z" fill="#57B894"/>
<path d="M198.858 80.5473C203.649 80.5473 207.534 78.6702 207.534 76.3547C207.534 74.0392 203.649 72.1621 198.858 72.1621C194.066 72.1621 190.181 74.0392 190.181 76.3547C190.181 78.6702 194.066 80.5473 198.858 80.5473Z" stroke="#00332B" stroke-miterlimit="10"/>
<path d="M205.003 97.4516C209.795 97.4516 213.68 95.5745 213.68 93.259C213.68 90.9435 209.795 89.0664 205.003 89.0664C200.212 89.0664 196.327 90.9435 196.327 93.259C196.327 95.5745 200.212 97.4516 205.003 97.4516Z" fill="#57B894"/>
<path d="M203.919 96.7319C208.711 96.7319 212.595 94.8548 212.595 92.5393C212.595 90.2238 208.711 88.3467 203.919 88.3467C199.127 88.3467 195.242 90.2238 195.242 92.5393C195.242 94.8548 199.127 96.7319 203.919 96.7319Z" stroke="#00332B" stroke-miterlimit="10"/>
<g opacity="0.3">
<path d="M205.205 121.886C206.43 119.706 206.654 117.511 205.705 116.983C204.755 116.456 202.993 117.795 201.769 119.975C200.544 122.156 200.32 124.351 201.269 124.878C202.218 125.406 203.98 124.066 205.205 121.886Z" fill="#57B894"/>
<path d="M204.633 122.216C205.858 120.036 206.082 117.841 205.132 117.313C204.183 116.786 202.421 118.125 201.197 120.305C199.972 122.486 199.748 124.681 200.697 125.208C201.646 125.736 203.408 124.396 204.633 122.216Z" stroke="#00332B" stroke-miterlimit="10"/>
</g>
<g opacity="0.3">
<path d="M250.431 132.338C251.156 131.532 250.227 129.528 248.356 127.863C246.486 126.197 244.381 125.5 243.656 126.306C242.931 127.112 243.86 129.116 245.731 130.781C247.601 132.447 249.706 133.144 250.431 132.338Z" fill="#57B894"/>
<path d="M250.232 131.711C250.957 130.905 250.029 128.901 248.158 127.236C246.288 125.57 244.183 124.873 243.458 125.679C242.733 126.485 243.662 128.489 245.533 130.154C247.403 131.82 249.507 132.517 250.232 131.711Z" stroke="#00332B" stroke-miterlimit="10"/>
</g>
<g opacity="0.3">
<path d="M209.941 109.679C210.666 108.873 209.737 106.869 207.866 105.204C205.996 103.538 203.892 102.841 203.166 103.647C202.441 104.453 203.37 106.457 205.241 108.122C207.111 109.788 209.216 110.485 209.941 109.679Z" fill="#57B894"/>
<path d="M209.743 109.052C210.468 108.246 209.539 106.242 207.668 104.577C205.798 102.911 203.693 102.214 202.968 103.02C202.243 103.826 203.172 105.83 205.043 107.495C206.913 109.161 209.018 109.858 209.743 109.052Z" stroke="#00332B" stroke-miterlimit="10"/>
</g>
</g>
<defs>
<clipPath id="clip0_13_416">
<rect width="272.222" height="200" fill="white" transform="translate(4 40)"/>
</clipPath>
</defs>
</svg>
