<svg width="80" height="80" viewBox="0 0 80 80" fill="none" xmlns="http://www.w3.org/2000/svg">
<path d="M74.0138 31.8067C72.6483 30.5654 72.6483 30.5654 73.269 28.8274C73.545 28.2455 73.6882 27.6094 73.6882 26.9654C73.6882 26.3213 73.545 25.6852 73.269 25.1033C72.6483 23.8619 71.2828 23.6136 70.0414 23.3654C68.8 23.1171 68.3034 22.9929 67.8069 21.1309C67.7794 20.4792 67.6095 19.8415 67.3093 19.2625C67.009 18.6834 66.5857 18.1772 66.069 17.7792C65.4708 17.5528 64.8337 17.4473 64.1945 17.4686C63.5553 17.4899 62.9266 17.6376 62.3448 17.9033C60.6069 18.3998 60.6069 18.524 59.3655 17.1585C58.9998 16.6168 58.5227 16.1595 57.9661 15.817C57.4095 15.4744 56.7863 15.2546 56.1379 15.1723C55.4723 15.1479 54.8104 15.2814 54.2063 15.5619C53.6022 15.8424 53.073 16.2619 52.6621 16.786C52.4268 17.0495 52.1404 17.2624 51.8203 17.4117C51.5002 17.5611 51.1531 17.6439 50.8 17.655C48.9379 17.655 48.4414 15.1723 45.3379 15.1723C42.2345 15.1723 41.8621 17.655 40 17.655C38.1379 17.655 37.7655 15.1723 34.6621 15.1723C31.5586 15.1723 31.0621 17.655 29.2 17.655C27.3379 17.655 26.9655 15.1723 23.8621 15.1723C23.2137 15.2546 22.5905 15.4744 22.0339 15.817C21.4773 16.1595 21.0002 16.6168 20.6345 17.1585C19.3931 18.524 19.3931 18.3998 17.6552 17.9033C17.0734 17.6376 16.4447 17.4899 15.8055 17.4686C15.1663 17.4473 14.5292 17.5528 13.931 17.7792C13.4143 18.1772 12.991 18.6834 12.6907 19.2625C12.3905 19.8415 12.2206 20.4792 12.1931 21.1309C11.6966 22.9929 11.8207 22.8688 9.95862 23.3654C8.09655 23.8619 7.35172 23.8619 6.73103 25.1033C6.11034 26.3447 7.35172 29.4481 7.10345 30.5654C6.85517 31.6826 4 32.7998 4 35.0343C4.08239 35.6826 4.30219 36.3059 4.6447 36.8625C4.98722 37.4191 5.44457 37.8962 5.98621 38.2619C7.35172 39.5033 7.35172 39.5033 6.73103 41.2412C6.45499 41.8232 6.31179 42.4592 6.31179 43.1033C6.31179 43.7474 6.45499 44.3834 6.73103 44.9654C7.35172 46.2067 8.71724 46.455 9.95862 46.7033C11.2 46.9516 11.6966 47.1998 12.1931 48.9378C12.6897 50.6757 12.6897 51.5447 13.931 52.1654C14.513 52.4414 15.149 52.5846 15.7931 52.5846C16.4372 52.5846 17.0732 52.4414 17.6552 52.1654C19.3931 51.5447 19.3931 51.5447 20.6345 52.9102C21.0002 53.4518 21.4773 53.9092 22.0339 54.2517C22.5905 54.5942 23.2137 54.814 23.8621 54.8964C27.2138 54.8964 26.9655 52.786 29.2 52.4136C31.4345 52.0412 31.4345 54.3998 33.7931 54.7723V46.2067H23.8621C20.899 46.2067 18.0572 45.0296 15.962 42.9344C13.8667 40.8392 12.6897 37.9974 12.6897 35.0343C12.6897 32.0712 13.8667 29.2295 15.962 27.1342C18.0572 25.039 20.899 23.8619 23.8621 23.8619H56.1379C59.101 23.8619 61.9428 25.039 64.038 27.1342C66.1333 29.2295 67.3103 32.0712 67.3103 35.0343C67.3103 37.9974 66.1333 40.8392 64.038 42.9344C61.9428 45.0296 59.101 46.2067 56.1379 46.2067H46.2069V54.7723C48.5655 54.3998 49.0621 52.4136 50.8 52.4136C52.5379 52.4136 53.0345 54.8964 56.1379 54.8964C56.7863 54.814 57.4095 54.5942 57.9661 54.2517C58.5227 53.9092 58.9998 53.4518 59.3655 52.9102C60.6069 51.5447 60.6069 51.5447 62.3448 52.1654C62.9268 52.4414 63.5628 52.5846 64.2069 52.5846C64.851 52.5846 65.487 52.4414 66.069 52.1654C67.3103 51.5447 67.5586 50.1792 67.8069 48.9378C68.0552 47.6964 68.3034 47.1998 70.0414 46.7033C71.7793 46.2067 72.6483 46.2067 73.269 44.9654C73.545 44.3834 73.6882 43.7474 73.6882 43.1033C73.6882 42.4592 73.545 41.8232 73.269 41.2412C72.6483 39.5033 72.6483 39.5033 74.0138 38.2619C74.5554 37.8962 75.0128 37.4191 75.3553 36.8625C75.6978 36.3059 75.9176 35.6826 76 35.0343C75.9176 34.386 75.6978 33.7627 75.3553 33.2061C75.0128 32.6495 74.5554 32.1724 74.0138 31.8067Z" fill="#25A18E"/>
<path d="M41.2413 4H38.7585V13.931H41.2413V4Z" fill="#25A18E"/>
<path d="M48.6897 4H46.2069V10.2069H48.6897V4Z" fill="#25A18E"/>
<path d="M33.7932 4H31.3104V10.2069H33.7932V4Z" fill="#25A18E"/>
<path d="M68.5517 4H66.069V13.931H68.5517V4Z" fill="#25A18E"/>
<path d="M76.0001 4H73.5173V10.2069H76.0001V4Z" fill="#25A18E"/>
<path d="M61.1034 4H58.6206V10.2069H61.1034V4Z" fill="#25A18E"/>
<path d="M13.9311 4H11.4484V13.931H13.9311V4Z" fill="#25A18E"/>
<path d="M21.3792 4H18.8965V10.2069H21.3792V4Z" fill="#25A18E"/>
<path d="M6.48276 4H4V10.2069H6.48276V4Z" fill="#25A18E"/>
<path d="M21.8758 62.717C19.2689 61.7239 17.9034 60.1101 17.6551 57.8757C17.6551 57.5464 17.5243 57.2307 17.2915 56.9979C17.0587 56.7651 16.743 56.6343 16.4137 56.6343C16.0845 56.6343 15.7688 56.7651 15.5359 56.9979C15.3031 57.2307 15.1724 57.5464 15.1724 57.8757C14.9241 60.1101 13.5586 61.7239 10.8275 62.717C10.6215 62.8373 10.4505 63.0095 10.3317 63.2164C10.2129 63.4233 10.1504 63.6577 10.1504 63.8963C10.1504 64.1349 10.2129 64.3694 10.3317 64.5763C10.4505 64.7832 10.6215 64.9554 10.8275 65.0757C13.5586 66.0688 14.9241 67.6826 15.1724 69.917C15.1724 70.2463 15.3031 70.562 15.5359 70.7948C15.7688 71.0276 16.0845 71.1584 16.4137 71.1584C16.743 71.1584 17.0587 71.0276 17.2915 70.7948C17.5243 70.562 17.6551 70.2463 17.6551 69.917C17.9034 67.6826 19.2689 66.0688 21.8758 65.0757C22.1242 64.994 22.3404 64.8361 22.4937 64.6243C22.647 64.4125 22.7296 64.1578 22.7296 63.8963C22.7296 63.6349 22.647 63.3802 22.4937 63.1684C22.3404 62.9566 22.1242 62.7987 21.8758 62.717Z" fill="#25A18E"/>
<path d="M70.2896 61.4758C67.6827 60.4827 66.3172 58.8689 66.0689 56.6344C66.0689 56.3052 65.9381 55.9895 65.7053 55.7567C65.4725 55.5239 65.1568 55.3931 64.8276 55.3931C64.4983 55.3931 64.1826 55.5239 63.9498 55.7567C63.717 55.9895 63.5862 56.3052 63.5862 56.6344C63.3379 58.8689 61.9724 60.4827 59.2414 61.4758C59.0353 61.5961 58.8643 61.7683 58.7455 61.9752C58.6267 62.1821 58.5642 62.4165 58.5642 62.6551C58.5642 62.8937 58.6267 63.1282 58.7455 63.3351C58.8643 63.542 59.0353 63.7142 59.2414 63.8344C61.9724 64.8275 63.3379 66.4413 63.5862 68.6758C63.5862 69.0051 63.717 69.3208 63.9498 69.5536C64.1826 69.7864 64.4983 69.9172 64.8276 69.9172C65.1568 69.9172 65.4725 69.7864 65.7053 69.5536C65.9381 69.3208 66.0689 69.0051 66.0689 68.6758C66.3172 66.4413 67.6827 64.8275 70.2896 63.8344C70.538 63.7528 70.7542 63.5949 70.9075 63.3831C71.0608 63.1713 71.1434 62.9166 71.1434 62.6551C71.1434 62.3937 71.0608 62.1389 70.9075 61.9272C70.7542 61.7154 70.538 61.5575 70.2896 61.4758Z" fill="#25A18E"/>
<path d="M56.138 26.3447H23.8621C21.5575 26.3447 19.3473 27.2602 17.7176 28.8899C16.088 30.5195 15.1725 32.7297 15.1725 35.0344C15.1725 37.339 16.088 39.5493 17.7176 41.1789C19.3473 42.8085 21.5575 43.724 23.8621 43.724H33.7932V39.9999C33.4733 39.9719 33.1736 39.8322 32.9466 39.6051C32.7195 39.3781 32.5798 39.0784 32.5518 38.7585V31.3102C32.5798 30.9904 32.7195 30.6906 32.9466 30.4636C33.1736 30.2366 33.4733 30.0968 33.7932 30.0689H46.207C46.5268 30.0968 46.8266 30.2366 47.0536 30.4636C47.2806 30.6906 47.4204 30.9904 47.4483 31.3102V38.7585C47.4204 39.0784 47.2806 39.3781 47.0536 39.6051C46.8266 39.8322 46.5268 39.9719 46.207 39.9999V43.724H56.138C58.4426 43.724 60.6529 42.8085 62.2825 41.1789C63.9121 39.5493 64.8277 37.339 64.8277 35.0344C64.8277 32.7297 63.9121 30.5195 62.2825 28.8899C60.6529 27.2602 58.4426 26.3447 56.138 26.3447Z" fill="#25A18E"/>
<path d="M40 33.7932C39.5063 33.7759 39.0143 33.8604 38.5546 34.0414C38.0949 34.2224 37.6774 34.4961 37.3281 34.8454C36.9787 35.1948 36.7051 35.6123 36.524 36.0719C36.343 36.5316 36.2585 37.0236 36.2759 37.5174V74.7588C36.2559 74.9266 36.2743 75.0967 36.3296 75.2564C36.385 75.4161 36.4758 75.5612 36.5953 75.6807C36.7148 75.8002 36.8599 75.8911 37.0196 75.9464C37.1793 76.0017 37.3494 76.0201 37.5173 76.0001H42.4828C42.6506 76.0201 42.8208 76.0017 42.9805 75.9464C43.1402 75.8911 43.2852 75.8002 43.4047 75.6807C43.5243 75.5612 43.6151 75.4161 43.6704 75.2564C43.7258 75.0967 43.7441 74.9266 43.7242 74.7588V37.5174C43.7415 37.0236 43.657 36.5316 43.476 36.0719C43.295 35.6123 43.0213 35.1948 42.672 34.8454C42.3226 34.4961 41.9051 34.2224 41.4455 34.0414C40.9858 33.8604 40.4938 33.7759 40 33.7932Z" fill="#25A18E"/>
</svg>
