<svg width="280" height="280" viewBox="0 0 280 280" fill="none" xmlns="http://www.w3.org/2000/svg">
<g clip-path="url(#clip0_13_474)">
<g clip-path="url(#clip1_13_474)">
<path d="M-5.19436 193.499C-3.66108 177.896 5.60618 162.322 20.3515 156.874C14.9028 173.034 15.3633 190.594 21.6516 206.448C24.0989 212.554 27.4586 219.091 25.4707 225.36C24.2339 229.261 21.0381 232.304 17.4278 234.248C13.8173 236.193 9.77969 237.18 5.79247 238.148L5.02033 238.819C-1.71994 224.655 -6.72765 209.101 -5.19436 193.499Z" fill="#F0F0F0"/>
<path d="M20.5068 157.165C12.1814 166.961 6.9414 179.472 6.02522 192.299C5.82714 195.072 5.86829 197.902 6.54611 200.613C7.22714 203.25 8.6041 205.657 10.5339 207.584C12.297 209.417 14.3135 211.088 15.599 213.316C16.954 215.665 17.0744 218.371 16.2556 220.924C15.2538 224.048 13.1857 226.627 11.0753 229.079C8.73214 231.802 6.25505 234.593 5.32169 238.146C5.20859 238.576 4.54519 238.376 4.65811 237.946C6.28202 231.765 12.1647 228.125 14.8691 222.525C16.131 219.912 16.6107 216.904 15.2932 214.215C14.1412 211.863 12.0634 210.138 10.262 208.297C8.37063 206.365 6.90329 204.229 6.10808 201.626C5.29463 198.963 5.14241 196.128 5.2685 193.363C5.60135 187.093 6.921 180.914 9.17911 175.053C11.7191 168.349 15.3906 162.128 20.0348 156.658C20.3224 156.32 20.7925 156.828 20.5068 157.165Z" fill="white"/>
<path d="M6.10237 188.114C3.94789 187.651 2.02849 186.44 0.686931 184.697C-0.654625 182.954 -1.33097 180.792 -1.22132 178.598C-1.21604 178.508 -1.17612 178.425 -1.10999 178.364C-1.04386 178.303 -0.956679 178.27 -0.86682 178.273C-0.776962 178.275 -0.691443 178.312 -0.628288 178.375C-0.565134 178.439 -0.529276 178.525 -0.528269 178.614C-0.634161 180.658 -0.00394399 182.671 1.24864 184.292C2.50123 185.913 4.29366 187.033 6.30244 187.452C6.73887 187.544 6.53629 188.205 6.10237 188.114Z" fill="white"/>
<path d="M9.51712 206.772C13.3237 204.369 16.0822 200.625 17.2426 196.285C17.3572 195.855 18.0206 196.055 17.9062 196.485C16.6902 200.999 13.8116 204.889 9.84486 207.38C9.46662 207.618 9.14093 207.008 9.51712 206.772Z" fill="white"/>
<path d="M12.3789 168.986C13.1752 169.338 14.0466 169.488 14.9151 169.421C15.7836 169.354 16.6218 169.074 17.3547 168.604C17.7297 168.363 18.055 168.973 17.6824 169.213C16.8703 169.728 15.9442 170.037 14.9848 170.113C14.0254 170.188 13.0621 170.029 12.1789 169.648C12.0926 169.619 12.0206 169.558 11.9776 169.478C11.9345 169.398 11.9236 169.305 11.9471 169.217C11.974 169.13 12.0345 169.056 12.1154 169.013C12.1962 168.97 12.291 168.96 12.3789 168.986Z" fill="white"/>
<path d="M66.4271 183.474C66.1972 183.631 65.9673 183.789 65.7373 183.952C62.6578 186.088 59.7574 188.469 57.0647 191.073C56.8533 191.271 56.642 191.475 56.4368 191.679C50.0166 198.02 44.8332 205.496 41.1502 213.724C39.6876 217 38.4772 220.381 37.5293 223.84C36.2205 228.617 35.1826 233.9 32.4479 237.85C32.1673 238.265 31.8611 238.663 31.5311 239.04L5.90155 239.707C5.84254 239.679 5.7834 239.657 5.72411 239.63L4.70202 239.703C4.73841 239.521 4.78007 239.333 4.81646 239.151C4.83713 239.046 4.8635 238.94 4.88417 238.835C4.89976 238.764 4.91564 238.694 4.92566 238.629C4.93076 238.606 4.93615 238.582 4.9414 238.565C4.95143 238.5 4.9676 238.442 4.97778 238.383C5.20775 237.333 5.44552 236.283 5.69109 235.232C5.69094 235.226 5.69094 235.226 5.69649 235.22C7.58813 227.22 10.1663 219.307 13.8673 212.035C13.9787 211.817 14.0897 211.592 14.2129 211.373C15.8993 208.105 17.8509 204.979 20.0482 202.028C21.2566 200.416 22.546 198.865 23.9116 197.383C27.4475 193.56 31.5645 190.315 36.1119 187.768C45.1777 182.69 55.7714 180.56 65.6726 183.26C65.9259 183.329 66.1737 183.399 66.4271 183.474Z" fill="#F0F0F0"/>
<path d="M66.378 183.799C53.8143 186.624 42.0744 193.469 33.5968 203.16C31.7639 205.255 30.0876 207.54 28.9918 210.111C27.9429 212.625 27.5886 215.374 27.9656 218.071C28.2665 220.592 28.8672 223.137 28.5479 225.688C28.2113 228.376 26.6736 230.609 24.4778 232.156C21.791 234.049 18.5822 234.867 15.4163 235.558C11.9012 236.326 8.23797 237.067 5.34706 239.344C4.99679 239.62 4.58796 239.062 4.9377 238.786C9.96738 234.826 16.8627 235.45 22.4038 232.602C24.9894 231.273 27.1889 229.16 27.7612 226.222C28.2617 223.652 27.6445 221.028 27.3178 218.477C26.9747 215.799 27.0931 213.212 28.0302 210.657C28.9888 208.042 30.5791 205.688 32.3502 203.555C36.4025 198.749 41.1877 194.607 46.5304 191.283C52.6069 187.455 59.2955 184.691 66.3068 183.112C66.7407 183.014 66.8091 183.702 66.378 183.799Z" fill="white"/>
<path d="M36.1857 199.865C34.7448 198.203 33.9436 196.084 33.9252 193.887C33.9067 191.69 34.6723 189.558 36.085 187.872C36.3721 187.531 36.9159 187.96 36.6285 188.301C35.31 189.869 34.5971 191.855 34.6185 193.9C34.6398 195.946 35.394 197.917 36.745 199.457C37.0382 199.792 36.4772 200.198 36.1857 199.865Z" fill="white"/>
<path d="M27.6442 216.812C32.1343 217.178 36.5981 215.845 40.1455 213.076C40.4967 212.801 40.9056 213.359 40.5548 213.634C36.8579 216.508 32.2098 217.886 27.5382 217.495C27.0929 217.457 27.2014 216.774 27.6442 216.812Z" fill="white"/>
<path d="M52.7487 188.36C53.1718 189.12 53.7774 189.762 54.511 190.23C55.2447 190.698 56.0835 190.977 56.9521 191.042C57.3976 191.074 57.2887 191.757 56.8461 191.725C55.8867 191.649 54.9608 191.339 54.149 190.824C53.3373 190.309 52.6645 189.603 52.1895 188.769C52.1381 188.694 52.1172 188.602 52.1312 188.512C52.1451 188.423 52.1927 188.342 52.2644 188.286C52.3387 188.232 52.4313 188.21 52.522 188.224C52.6127 188.238 52.6942 188.287 52.7487 188.36Z" fill="white"/>
<path d="M216.85 53.6892C216.467 52.5628 211.668 48.7337 214.609 48.0901L217.02 51.2956L228.107 40.2432L229.222 41.3548L216.85 53.6892Z" fill="#25A18E"/>
<path d="M216.85 91.2722C216.467 90.1458 211.668 86.3167 214.609 85.6731L217.02 88.8786L228.107 77.8262L229.222 78.9378L216.85 91.2722Z" fill="#25A18E"/>
<path d="M216.85 129.392C216.467 128.266 211.668 124.437 214.609 123.793L217.02 126.999L228.107 115.946L229.222 117.058L216.85 129.392Z" fill="#25A18E"/>
<path d="M206.641 98.5732C208.53 98.5732 210.062 97.0462 210.062 95.1626C210.062 93.2789 208.53 91.752 206.641 91.752C204.751 91.752 203.22 93.2789 203.22 95.1626C203.22 97.0462 204.751 98.5732 206.641 98.5732Z" fill="#00332B"/>
<path d="M206.641 61.3974C208.53 61.3974 210.062 59.8704 210.062 57.9868C210.062 56.1032 208.53 54.5762 206.641 54.5762C204.751 54.5762 203.22 56.1032 203.22 57.9868C203.22 59.8704 204.751 61.3974 206.641 61.3974Z" fill="#00332B"/>
<path d="M294.392 50.1426H239.312V50.8247H294.392V50.1426Z" fill="#00332B"/>
<path d="M208.351 138.202C210.241 138.202 211.772 136.675 211.772 134.791C211.772 132.908 210.241 131.381 208.351 131.381C206.462 131.381 204.93 132.908 204.93 134.791C204.93 136.675 206.462 138.202 208.351 138.202Z" fill="#00332B"/>
<path d="M294.392 87.7256H239.312V88.4077H294.392V87.7256Z" fill="#00332B"/>
<path d="M294.392 125.845H239.312V126.527H294.392V125.845Z" fill="#00332B"/>
<path d="M225.491 134.474H208.385V117.08H220.017V117.762H209.069V133.792H224.806V125.948H225.491V134.474Z" fill="#00332B"/>
<path d="M225.491 96.275H208.385V78.8809H220.017V79.563H209.069V95.5928H224.806V87.7484H225.491V96.275Z" fill="#00332B"/>
<path d="M225.491 57.3941H208.385V40H220.017V40.6821H209.069V56.712H224.806V48.8676H225.491V57.3941Z" fill="#00332B"/>
<path d="M113.807 101.995C113.807 101.995 109.235 121.238 114.822 121.238C120.41 121.238 133.617 99.4629 133.617 99.4629L129.045 93.8926L120.84 105.25L120.41 99.4629L113.807 101.995Z" fill="#A0616A"/>
<path d="M132.399 100.3C134.855 100.3 136.846 98.3151 136.846 95.8664C136.846 93.4177 134.855 91.4326 132.399 91.4326C129.942 91.4326 127.951 93.4177 127.951 95.8664C127.951 98.3151 129.942 100.3 132.399 100.3Z" fill="#A0616A"/>
<path d="M109.93 233.057L115.85 233.056L118.667 210.292L109.929 210.292L109.93 233.057Z" fill="#A0616A"/>
<path d="M109.722 239.213L127.927 239.213V238.983C127.926 237.11 127.18 235.313 125.851 233.988C124.522 232.664 122.72 231.919 120.841 231.919H120.84L117.515 229.404L111.311 231.92L109.722 231.92L109.722 239.213Z" fill="#2F2E41"/>
<path d="M46.2509 225.693L51.5478 228.328L64.2648 209.214L56.4469 205.324L46.2509 225.693Z" fill="#A0616A"/>
<path d="M43.3064 231.109L59.5954 239.213L59.6982 239.008C60.5373 237.332 60.6741 235.392 60.0785 233.615C59.483 231.838 58.2038 230.37 56.5224 229.533L56.522 229.533L54.6733 225.802L47.9952 225.29L46.5733 224.583L43.3064 231.109Z" fill="#2F2E41"/>
<path d="M179.952 239.235H-15V240H179.952V239.235Z" fill="#CCCCCC"/>
<path d="M71.6562 136.905C71.6562 136.905 69.2904 165.264 68.7824 171.341C68.4341 175.15 67.5801 178.896 66.2426 182.481C66.2426 182.481 65.2267 184.507 65.2267 186.532L53.713 207.393C53.713 207.393 50.1947 209.971 50.7026 211.997C51.2106 214.022 48.5814 215.237 48.5814 215.237L60.7063 217.567C60.7063 217.567 60.1984 216.048 61.7223 215.542C63.2461 215.035 64.4591 210.643 64.4591 210.643L81.4813 182.988L93.6723 157.668C93.6723 157.668 100.784 180.456 102.308 182.988C102.308 182.988 107.895 211.346 108.911 213.878C109.927 216.41 110.435 216.41 109.927 217.423C109.419 218.435 109.419 219.448 109.927 219.955C110.435 220.461 120.086 219.955 120.086 219.955L117.546 184L112.975 140.957L89.6086 133.867L71.6562 136.905Z" fill="#2F2E41"/>
<path d="M94.5327 69.2052C100.424 69.2052 105.2 64.444 105.2 58.5708C105.2 52.6977 100.424 47.9365 94.5327 47.9365C88.6415 47.9365 83.8657 52.6977 83.8657 58.5708C83.8657 64.444 88.6415 69.2052 94.5327 69.2052Z" fill="#A0616A"/>
<path d="M113.99 84.7469L101.292 77.0769C101.292 77.0769 100.94 72.3141 97.3219 72.09C95.5055 71.9774 92.7796 71.8054 88.6889 71.5425C87.8244 71.4869 87.241 76.2021 86.2503 76.1382L72.8461 79.6829L74.8779 114.118C74.8779 114.118 71.8301 127.791 72.8461 130.323C73.862 132.855 70.3063 133.867 71.3222 134.374C72.3381 134.88 71.3222 138.425 71.3222 138.425C71.3222 138.425 91.1325 148.553 112.975 140.957L110.943 134.374C111.219 133.513 111.271 132.597 111.093 131.71C110.916 130.824 110.514 129.998 109.927 129.31C109.927 129.31 111.959 126.271 109.419 123.739C109.419 123.739 110.435 119.182 107.895 117.156L107.387 110.067L108.911 106.522L113.99 84.7469Z" fill="#E6E6E6"/>
<path d="M85.2765 64.6466L84.9783 63.9562C84.9399 63.8669 81.1675 54.9764 84.5112 49.4924C86.0591 46.9536 88.8736 45.5203 92.8764 45.2325C99.1395 44.781 103.426 46.2622 105.62 49.6316C105.988 50.2027 106.195 50.862 106.219 51.5403C106.243 52.2186 106.083 52.8908 105.756 53.4862C105.43 54.0817 104.948 54.5783 104.362 54.924C103.776 55.2696 103.108 55.4515 102.427 55.4505H102.343L101.192 53.9608L101.125 54.1057C100.708 55.0043 99.7514 55.4963 98.6307 55.3885C98.4401 55.3749 98.2712 55.5389 98.1355 55.89C98.0899 56.0435 98.0037 56.182 97.8858 56.2909C97.768 56.3997 97.6229 56.475 97.4658 56.5087C96.6378 56.6694 95.4574 55.6295 94.9291 55.1113C94.9087 55.2306 94.8629 55.3441 94.7947 55.4442C94.7265 55.5443 94.6376 55.6286 94.5339 55.6915C93.9771 56.0117 93.1106 55.5934 92.8619 55.4602C90.8806 55.8798 89.598 55.7676 89.0486 55.1269C88.676 57.7543 87.8766 62.4835 86.9179 62.7457C86.8177 62.7686 86.7127 62.7589 86.6185 62.7178C86.5243 62.6768 86.4458 62.6066 86.3947 62.5177C86.1638 62.2189 85.9575 62.07 85.8287 62.1118C85.5169 62.2108 85.3328 63.2346 85.3064 63.8954L85.2765 64.6466Z" fill="#2F2E41"/>
<path d="M108.403 85.2533L113.47 84.4326C117.12 87.929 119.607 92.4574 120.594 97.4069C122.118 105.509 122.626 107.028 122.626 107.028L110.435 110.067L103.831 97.4068L108.403 85.2533Z" fill="#E6E6E6"/>
<path d="M85.9184 95.7915L82.787 135.366L162.699 141.651L165.83 102.076L85.9184 95.7915Z" fill="white"/>
<path d="M94.456 98.8578C92.5004 97.4655 90.0175 97.3649 89.069 97.3849C89.3584 98.2853 90.2576 100.595 92.2132 101.988C94.1736 103.383 96.6534 103.481 97.6005 103.462C97.3112 102.561 96.4119 100.251 94.456 98.8578Z" fill="#25A18E"/>
<path d="M102.171 124.04L89.3393 123.03C88.9601 123.001 88.5788 123.046 88.2171 123.163C87.8553 123.28 87.5203 123.467 87.2311 123.713C86.9418 123.959 86.7041 124.26 86.5313 124.597C86.3586 124.935 86.2543 125.304 86.2244 125.682C86.1945 126.06 86.2396 126.44 86.357 126.8C86.4745 127.161 86.662 127.495 86.909 127.783C87.1559 128.072 87.4574 128.309 87.7963 128.481C88.1351 128.653 88.5046 128.757 88.8838 128.787L101.715 129.796C102.481 129.856 103.239 129.611 103.824 129.114C104.408 128.616 104.77 127.908 104.83 127.145C104.891 126.381 104.644 125.625 104.146 125.043C103.647 124.461 102.937 124.1 102.171 124.04Z" fill="#25A18E"/>
<path d="M162.68 98.2296L90.7376 92.5714C89.9008 92.5057 89.0592 92.605 88.2609 92.8636C87.4626 93.1221 86.7232 93.5349 86.085 94.0783C85.4467 94.6218 84.922 95.2852 84.541 96.0308C84.1599 96.7764 83.9299 97.5895 83.864 98.4237L81.0972 133.366C80.9642 135.051 81.508 136.72 82.609 138.005C83.7099 139.291 85.278 140.088 86.9684 140.221L158.911 145.88C159.748 145.945 160.589 145.846 161.388 145.588C162.186 145.329 162.925 144.916 163.564 144.373C164.202 143.829 164.726 143.166 165.108 142.42C165.489 141.675 165.719 140.862 165.785 140.027L168.414 106.816L168.467 106.138L168.551 105.082C168.616 104.248 168.517 103.409 168.257 102.613C167.998 101.817 167.584 101.08 167.039 100.444C166.494 99.8075 165.828 99.2844 165.08 98.9045C164.333 98.5246 163.517 98.2953 162.68 98.2296ZM160.556 128.631L160.1 134.388C160.017 135.404 159.533 136.347 158.754 137.009C157.976 137.671 156.966 137.999 155.946 137.921L146.321 137.165C145.302 137.082 144.356 136.6 143.692 135.824C143.028 135.048 142.699 134.041 142.777 133.024L143.233 127.268C143.316 126.251 143.8 125.309 144.578 124.647C145.357 123.985 146.366 123.656 147.386 123.734L157.008 124.491C158.028 124.574 158.973 125.056 159.638 125.832C160.302 126.608 160.632 127.614 160.556 128.631ZM85.5877 125.629C85.6624 124.698 86.1046 123.834 86.8175 123.227C87.5303 122.62 88.4555 122.32 89.39 122.392L102.221 123.402C102.685 123.438 103.137 123.564 103.551 123.774C103.966 123.984 104.334 124.273 104.637 124.625C104.939 124.977 105.169 125.385 105.313 125.826C105.457 126.267 105.512 126.731 105.476 127.193C105.44 127.655 105.313 128.106 105.102 128.519C104.891 128.932 104.601 129.3 104.247 129.601C103.894 129.902 103.485 130.13 103.042 130.274C102.6 130.417 102.134 130.472 101.671 130.435L101.664 130.437L88.833 129.427C88.3696 129.391 87.918 129.264 87.504 129.053C87.09 128.842 86.7217 128.552 86.4202 128.199C86.1188 127.847 85.8901 127.438 85.7473 126.997C85.6044 126.556 85.5502 126.091 85.5877 125.629ZM88.3346 97.157L88.2469 96.7991L88.616 96.7654C88.7603 96.75 92.1735 96.4445 94.8304 98.3365C97.4873 100.229 98.3021 103.548 98.3375 103.687L98.4219 104.046L98.0536 104.083C97.5309 104.122 97.0059 104.118 96.4837 104.072C94.8226 103.975 93.2182 103.435 91.8383 102.508C89.1814 100.616 88.3667 97.2967 88.3346 97.157Z" fill="#25A18E"/>
<path d="M149.762 132.448L145.592 132.121C145.294 132.098 145 132.193 144.773 132.387C144.546 132.58 144.406 132.855 144.382 133.152C144.359 133.448 144.454 133.742 144.648 133.968C144.841 134.195 145.117 134.335 145.415 134.359L149.585 134.687C149.882 134.71 150.177 134.614 150.403 134.421C150.63 134.228 150.771 133.952 150.794 133.656C150.818 133.359 150.722 133.066 150.529 132.839C150.335 132.613 150.059 132.472 149.762 132.448Z" fill="#25A18E"/>
<path d="M157.461 133.054L153.291 132.726C152.993 132.703 152.699 132.799 152.472 132.992C152.246 133.186 152.105 133.461 152.082 133.757C152.059 134.054 152.154 134.347 152.347 134.573C152.541 134.8 152.816 134.94 153.113 134.965L157.284 135.293C157.581 135.315 157.875 135.219 158.102 135.026C158.328 134.833 158.469 134.558 158.492 134.261C158.516 133.965 158.42 133.671 158.227 133.445C158.034 133.219 157.758 133.078 157.461 133.054Z" fill="#25A18E"/>
<path d="M149.99 129.57L145.819 129.243C145.522 129.22 145.228 129.316 145.001 129.509C144.775 129.702 144.634 129.977 144.611 130.274C144.587 130.57 144.683 130.864 144.876 131.09C145.07 131.316 145.345 131.457 145.642 131.481L149.813 131.809C150.11 131.832 150.404 131.736 150.631 131.543C150.858 131.35 150.998 131.074 151.022 130.778C151.045 130.481 150.95 130.188 150.756 129.961C150.563 129.735 150.287 129.594 149.99 129.57Z" fill="#25A18E"/>
<path d="M157.689 130.176L153.518 129.848C153.221 129.825 152.926 129.921 152.7 130.114C152.473 130.308 152.332 130.583 152.309 130.879C152.286 131.176 152.381 131.469 152.575 131.696C152.768 131.922 153.044 132.063 153.341 132.087L157.511 132.415C157.809 132.438 158.103 132.342 158.33 132.148C158.557 131.955 158.697 131.68 158.721 131.383C158.744 131.087 158.649 130.793 158.455 130.567C158.262 130.34 157.986 130.2 157.689 130.176Z" fill="#25A18E"/>
<path d="M150.217 126.692L146.047 126.364C145.75 126.341 145.455 126.437 145.229 126.63C145.002 126.823 144.861 127.098 144.838 127.395C144.814 127.691 144.91 127.985 145.103 128.211C145.297 128.438 145.573 128.578 145.87 128.602L150.04 128.93C150.338 128.953 150.632 128.857 150.858 128.664C151.085 128.47 151.225 128.195 151.249 127.899C151.272 127.603 151.177 127.309 150.984 127.083C150.79 126.856 150.515 126.716 150.217 126.692Z" fill="#25A18E"/>
<path d="M157.916 127.297L153.746 126.969C153.449 126.946 153.155 127.042 152.928 127.236C152.701 127.429 152.561 127.704 152.538 128C152.514 128.297 152.609 128.59 152.803 128.817C152.996 129.043 153.272 129.184 153.569 129.208L157.739 129.536C158.037 129.558 158.331 129.462 158.557 129.269C158.784 129.076 158.924 128.801 158.948 128.504C158.971 128.208 158.876 127.914 158.682 127.688C158.489 127.462 158.214 127.321 157.916 127.297Z" fill="#25A18E"/>
<path d="M82.7946 109.449L82.741 110.129L167.192 116.743L167.246 116.062L82.7946 109.449Z" fill="white"/>
<path d="M168.467 106.138L168.414 106.817L165.475 106.587L134.16 104.134L134.217 103.455L165.528 105.908L168.467 106.138Z" fill="#00332B"/>
<path d="M65.2267 98.9256C65.2267 98.9256 60.6551 118.169 66.2426 118.169C71.8302 118.169 85.037 96.3936 85.037 96.3936L80.4654 90.8232L72.2598 102.181L71.8301 96.3936L65.2267 98.9256Z" fill="#A0616A"/>
<path d="M83.8188 97.2299C86.2751 97.2299 88.2663 95.2448 88.2663 92.7961C88.2663 90.3474 86.2751 88.3623 83.8188 88.3623C81.3626 88.3623 79.3714 90.3474 79.3714 92.7961C79.3714 95.2448 81.3626 97.2299 83.8188 97.2299Z" fill="#A0616A"/>
<path d="M76.5464 82.721L73.4986 79.6826C73.4986 79.6826 67.4031 83.2274 66.8952 86.7722C66.3872 90.317 63.8474 101.458 63.8474 101.458L73.2446 102.217L76.2924 97.6597L76.5464 82.721Z" fill="#E6E6E6"/>
</g>
</g>
<defs>
<clipPath id="clip0_13_474">
<rect width="280" height="280" fill="white"/>
</clipPath>
<clipPath id="clip1_13_474">
<rect width="309.392" height="200" fill="white" transform="translate(-15 40)"/>
</clipPath>
</defs>
</svg>
