<svg width="80" height="80" viewBox="0 0 80 80" fill="none" xmlns="http://www.w3.org/2000/svg">
<g clip-path="url(#clip0_8_107)">
<path d="M68.9344 70.411C70.4412 70.411 71.6627 69.2217 71.6627 67.7546C71.6627 66.2875 70.4412 65.0981 68.9344 65.0981C67.4277 65.0981 66.2062 66.2875 66.2062 67.7546C66.2062 69.2217 67.4277 70.411 68.9344 70.411Z" fill="#25A18E"/>
<path d="M17.9164 36.1431L6.59412 66.4264H15.3245L25.5555 39.0651L17.9164 36.1431Z" fill="#25A18E"/>
<path d="M43.8347 4C39.7926 4.02166 35.853 5.24036 32.5392 7.49418C29.2255 9.74799 26.6945 12.9302 25.2826 16.6181L18.8712 33.6192L26.5103 36.5413L33.0581 19.2745C33.9762 16.8005 35.7625 14.722 38.1016 13.4058C40.4407 12.0897 43.1822 11.6206 45.842 12.0813C48.5018 12.5421 50.9089 13.9031 52.6383 15.924C54.3676 17.945 55.308 20.4959 55.2934 23.1263V26.5797H63.4781V23.1263C63.4424 18.0644 61.3613 13.2198 57.6852 9.64042C54.0091 6.06105 49.0334 4.03479 43.8347 4Z" fill="#25A18E"/>
<path d="M41.652 59.3863C43.461 59.3863 45.1958 58.6866 46.475 57.4412C47.7541 56.1957 48.4727 54.5066 48.4727 52.7452V29.7671C44.5999 30.6614 41.1487 32.7982 38.6744 35.8338C36.2 38.8694 34.8465 42.6272 34.8314 46.5026V59.3863H41.652Z" fill="#25A18E"/>
<path d="M70.2987 59.9181V35.8774C70.2987 34.1161 69.5801 32.4269 68.301 31.1815C67.0218 29.936 65.287 29.2363 63.478 29.2363H51.2009V52.7458C51.2009 55.2116 50.1949 57.5765 48.4041 59.3201C46.6134 61.0637 44.1846 62.0433 41.652 62.0433H34.8314V69.0828C34.8314 70.8441 35.55 72.5333 36.8291 73.7788C38.1083 75.0242 39.8431 75.7239 41.652 75.7239H68.9345C70.9658 75.6951 72.9135 74.9317 74.3989 73.5823C75.8843 72.2329 76.8012 70.3939 76.9713 68.4228C77.1414 66.4517 76.5526 64.4894 75.3193 62.9176C74.0861 61.3457 72.2965 60.2766 70.2987 59.9181ZM68.9345 73.0675C67.8554 73.0675 66.8004 72.7559 65.9031 72.1721C65.0058 71.5883 64.3064 70.7585 63.8934 69.7878C63.4804 68.8169 63.3723 67.7487 63.5829 66.7181C63.7934 65.6875 64.3131 64.7409 65.0762 63.9978C65.8393 63.2548 66.8116 62.7488 67.87 62.5438C68.9285 62.3388 70.0256 62.444 71.0227 62.8462C72.0197 63.2483 72.8719 63.9292 73.4715 64.8029C74.071 65.6766 74.391 66.7038 74.391 67.7546C74.391 69.1637 73.8162 70.515 72.7929 71.5114C71.7696 72.5077 70.3817 73.0675 68.9345 73.0675Z" fill="#25A18E"/>
<path d="M4.30014 58.7779C5.02604 56.6914 7.30592 55.5885 9.39239 56.3144L17.8926 59.2717C19.9791 59.9976 21.0821 62.2775 20.3562 64.3639L18.056 70.9753L1.99999 65.3892L4.30014 58.7779Z" fill="#25A18E"/>
<rect x="4.05847" y="67" width="2" height="5" rx="1" transform="rotate(24.312 4.05847 67)" fill="#25A18E"/>
<rect x="6.83862" y="70" width="2" height="6.89494" rx="1" transform="rotate(24.312 6.83862 70)" fill="#25A18E"/>
<rect x="12.8386" y="72" width="2" height="6.89494" rx="1" transform="rotate(24.312 12.8386 72)" fill="#25A18E"/>
<rect x="1.30701" y="73" width="2" height="3.17461" rx="1" transform="rotate(24.312 1.30701 73)" fill="#25A18E"/>
<rect x="9.30701" y="72" width="2" height="3.17461" rx="1" transform="rotate(24.312 9.30701 72)" fill="#25A18E"/>
<rect x="7.30701" y="76" width="2" height="3.17461" rx="1" transform="rotate(24.312 7.30701 76)" fill="#25A18E"/>
</g>
<defs>
<clipPath id="clip0_8_107">
<rect width="80" height="80" fill="white"/>
</clipPath>
</defs>
</svg>
