<svg width="80" height="80" viewBox="0 0 80 80" fill="none" xmlns="http://www.w3.org/2000/svg">
<path d="M53.6876 5.4992C53.5635 5.87156 51.8258 12.4499 47.7299 16.4217H32.3391C28.2431 12.4499 26.5054 5.87156 26.3813 5.4992C26.3441 5.31678 26.3483 5.12831 26.3937 4.94774C26.4392 4.76718 26.5247 4.59916 26.6439 4.45612C26.7631 4.31308 26.9129 4.19869 27.0823 4.12143C27.2517 4.04416 27.4364 4.006 27.6225 4.00977C32.9597 4.13389 35.8144 3.14094 40.0345 7.85747C41.5168 9.52122 42.7312 11.4056 43.6339 13.4428L45.9922 12.4499C44.9102 10.1695 43.5331 8.0412 41.8963 6.1198C43.4711 4.81407 45.4368 4.07147 47.4816 4.00977H52.4464C52.6326 4.006 52.8172 4.04416 52.9866 4.12143C53.156 4.19869 53.3058 4.31308 53.425 4.45612C53.5442 4.59916 53.6297 4.76718 53.6752 4.94774C53.7206 5.12831 53.7249 5.31678 53.6876 5.4992Z" fill="#25A18E"/>
<path d="M48.4746 21.3867H31.5944C31.4075 20.9996 31.3104 20.5753 31.3104 20.1455C31.3104 19.7157 31.4075 19.2914 31.5944 18.9043H48.4746C48.6615 19.2914 48.7586 19.7157 48.7586 20.1455C48.7586 20.5753 48.6615 20.9996 48.4746 21.3867Z" fill="#25A18E"/>
<path d="M65.9754 59.3668C65.2881 59.1143 64.6942 58.6583 64.2728 58.0595C63.8514 57.4608 63.6227 56.7477 63.6171 56.0156V40.0042C63.6171 35.7248 61.9171 31.6206 58.8911 28.5946C55.8651 25.5686 51.761 23.8687 47.4816 23.8687H32.5873C28.3079 23.8687 24.2037 25.5686 21.1777 28.5946C18.1517 31.6206 16.4517 35.7248 16.4517 40.0042V56.0156C16.4461 56.7477 16.2174 57.4608 15.7961 58.0595C15.3747 58.6583 14.7807 59.1143 14.0935 59.3668C12.531 60.0769 11.2138 61.2339 10.3081 62.6919C9.40244 64.1498 8.94885 65.8433 9.00458 67.5587C9.13254 69.8633 10.1473 72.0291 11.8362 73.6024C13.5252 75.1756 15.7574 76.0344 18.0653 75.9988H62.0036C64.3115 76.0344 66.5437 75.1756 68.2326 73.6024C69.9216 72.0291 70.9363 69.8633 71.0643 67.5587C71.12 65.8433 70.6664 64.1498 69.7607 62.6919C68.8551 61.2339 67.5379 60.0769 65.9754 59.3668ZM33.9526 52.9126L33.4561 51.4232L28.7396 59.4909H33.332V61.9733H26.5054C26.284 61.9809 26.0646 61.9291 25.8699 61.8233C25.6753 61.7174 25.5125 61.5614 25.3985 61.3714C25.2845 61.1814 25.2235 60.9644 25.2217 60.7429C25.2199 60.5213 25.2774 60.3033 25.3883 60.1115L31.222 50.3061L29.8566 50.6784L29.236 48.3202L33.4561 47.079C33.7686 47.0026 34.0985 47.0505 34.3763 47.2125C34.6542 47.3746 34.8582 47.6382 34.9455 47.9478L36.3108 52.0438L33.9526 52.9126ZM35.5661 42.983L38.9174 37.0253C39.053 36.8526 39.2283 36.7152 39.4284 36.6247C39.6285 36.5342 39.8475 36.4933 40.0668 36.5055C40.286 36.5177 40.4991 36.5826 40.688 36.6947C40.8768 36.8068 41.0358 36.9628 41.1515 37.1494L46.7369 47.079L47.1092 45.5895L49.4675 46.2101L48.4745 50.5543C48.3926 50.8159 48.2264 51.0429 48.0019 51.2001C47.7774 51.3573 47.5071 51.4357 47.2333 51.4232H46.9851L42.6409 50.5543L43.1374 48.0719L44.6268 48.4443L40.0344 40.2524L37.6762 44.2242L35.5661 42.983ZM53.5634 61.9733H42.1445L43.1374 62.9663L41.3997 64.7039L38.2968 61.6009C38.1795 61.5053 38.0828 61.3869 38.0127 61.2527C37.9425 61.1186 37.9004 60.9717 37.8888 60.8208C37.8772 60.6699 37.8964 60.5182 37.9451 60.3749C37.9939 60.2317 38.0713 60.0998 38.1726 59.9874L41.1515 56.6362L43.0133 58.2497L41.8962 59.4909H51.4534L49.0951 55.5191L51.2052 54.2779L54.6805 60.1115C54.7914 60.3033 54.849 60.5213 54.8472 60.7429C54.8454 60.9644 54.7843 61.1814 54.6703 61.3714C54.5564 61.5614 54.3936 61.7174 54.1989 61.8233C54.0043 61.9291 53.7849 61.9809 53.5634 61.9733Z" fill="#25A18E"/>
</svg>
