<svg width="280" height="280" viewBox="0 0 280 280" fill="none" xmlns="http://www.w3.org/2000/svg">
<g clip-path="url(#clip0_13_512)">
<path d="M186.462 239.362C186.209 239.579 185.947 239.79 185.683 239.999H153.598C153.413 239.79 153.229 239.579 153.048 239.362C151.566 237.579 150.262 235.655 149.154 233.618C146.52 228.857 145.612 222.615 145.612 216.258C145.612 215.87 145.615 215.482 145.623 215.094C145.652 213.31 145.751 211.524 145.898 209.768C145.925 209.462 145.951 209.16 145.981 208.857C146.218 206.337 146.552 203.885 146.931 201.593C146.979 201.301 147.027 201.011 147.077 200.725C147.85 196.173 148.885 191.669 150.179 187.237C150.179 187.237 150.221 187.248 150.304 187.269C150.542 187.336 151.11 187.494 151.946 187.743C154.246 188.429 158.567 189.811 163.55 191.864C163.822 191.974 164.097 192.089 164.374 192.207C168.59 193.951 172.67 196.007 176.582 198.358C176.825 198.505 177.065 198.655 177.305 198.805V198.826L176.779 215.902L181.477 201.686C182.435 202.417 183.35 203.175 184.223 203.96C184.463 204.174 184.703 204.393 184.936 204.621C186.918 206.444 188.61 208.562 189.953 210.9C196.98 223.611 194.031 232.957 186.462 239.362Z" fill="#F2F2F2"/>
<path d="M181.938 239.998H181.084C181.079 239.787 181.071 239.575 181.058 239.361C180.713 232.937 177.967 225.844 174.228 218.997C174.095 218.748 173.958 218.493 173.814 218.244C171.999 214.988 169.976 211.802 167.887 208.773C167.727 208.538 167.561 208.299 167.396 208.064C164.615 204.082 161.743 200.397 159.149 197.251C158.967 197.026 158.78 196.807 158.596 196.59C154.75 191.963 151.577 188.591 150.304 187.269C150.115 187.073 149.968 186.923 149.866 186.819C149.773 186.717 149.717 186.663 149.706 186.653L150.005 186.353L150.008 186.345L150.312 186.045C150.323 186.058 150.507 186.235 150.832 186.575C151.107 186.856 151.484 187.25 151.946 187.743C153.558 189.456 156.224 192.372 159.309 196.07C159.488 196.285 159.672 196.507 159.856 196.729C161.962 199.281 164.244 202.173 166.504 205.282C167.073 206.064 167.624 206.839 168.159 207.609C168.327 207.844 168.493 208.08 168.653 208.315C170.913 211.588 172.887 214.735 174.575 217.757L174.997 218.515C179.299 226.387 181.615 233.36 181.914 239.361C181.925 239.575 181.933 239.787 181.938 239.998Z" fill="white"/>
<path d="M164.02 191.237C163.867 191.449 163.713 191.658 163.55 191.864C162.326 193.446 160.9 194.861 159.309 196.071C159.077 196.242 158.839 196.419 158.596 196.59C157.934 197.054 157.248 197.483 156.541 197.875C153.63 199.502 150.401 200.474 147.077 200.724C146.971 200.735 146.861 200.743 146.755 200.749C146.706 201.035 146.661 201.322 146.61 201.613C146.717 201.608 146.824 201.603 146.931 201.592C150.451 201.362 153.876 200.35 156.958 198.628C157.712 198.208 158.443 197.749 159.149 197.251C159.389 197.083 159.624 196.906 159.856 196.729C161.558 195.432 163.078 193.911 164.374 192.207C164.529 192 164.681 191.792 164.831 191.583C164.553 191.465 164.284 191.35 164.02 191.237Z" fill="white"/>
<path d="M176.873 197.752C176.779 197.955 176.681 198.156 176.582 198.357C174.679 202.162 171.764 205.364 168.159 207.609C167.908 207.767 167.655 207.919 167.396 208.064C167.318 208.109 167.236 208.158 167.158 208.2C163.936 209.995 160.332 210.99 156.649 211.104C152.965 211.218 149.307 210.448 145.981 208.856C145.9 208.819 145.823 208.781 145.746 208.744C145.716 209.049 145.69 209.354 145.668 209.662C145.743 209.697 145.82 209.735 145.898 209.767C149.32 211.35 153.066 212.101 156.832 211.959C160.598 211.818 164.277 210.788 167.572 208.953C167.679 208.894 167.783 208.835 167.887 208.773C168.146 208.623 168.402 208.471 168.653 208.316C172.347 206.005 175.339 202.723 177.305 198.826C177.409 198.625 177.508 198.421 177.604 198.215C177.361 198.06 177.118 197.905 176.873 197.752Z" fill="white"/>
<path d="M184.364 203.352C184.319 203.555 184.274 203.759 184.223 203.959C182.85 209.612 179.405 214.538 174.575 217.758C174.327 217.926 174.071 218.087 173.814 218.245C173.539 218.411 173.265 218.577 172.982 218.732C168.634 221.146 163.629 222.096 158.704 221.441C153.778 220.786 149.193 218.561 145.623 215.093C145.561 215.037 145.503 214.978 145.444 214.919C145.444 215.318 145.441 215.712 145.447 216.108C145.5 216.159 145.556 216.21 145.612 216.258C149.329 219.637 154.007 221.765 158.989 222.343C163.972 222.922 169.01 221.922 173.398 219.485C173.681 219.329 173.958 219.169 174.228 218.997C174.49 218.842 174.743 218.681 174.997 218.515C179.896 215.263 183.433 210.318 184.936 204.621C184.986 204.428 185.037 204.235 185.082 204.04C184.85 203.804 184.607 203.582 184.364 203.352Z" fill="white"/>
<path d="M161.988 159.748H10V45.3398H161.988V159.748Z" fill="white"/>
<path d="M46.8296 69.217C50.1709 69.217 52.8795 66.4994 52.8795 63.1471C52.8795 59.7947 50.1709 57.0771 46.8296 57.0771C43.4883 57.0771 40.7797 59.7947 40.7797 63.1471C40.7797 66.4994 43.4883 69.217 46.8296 69.217Z" fill="#E6E6E6"/>
<path d="M60.802 59.1006C60.5349 59.1011 60.2789 59.2079 60.0902 59.3975C59.9015 59.5872 59.7955 59.8442 59.7955 60.1122C59.7955 60.3802 59.9015 60.6373 60.0902 60.8269C60.2789 61.0166 60.5349 61.1234 60.802 61.1239H134.421C134.688 61.1234 134.944 61.0166 135.133 60.8269C135.321 60.6373 135.427 60.3802 135.427 60.1122C135.427 59.8442 135.321 59.5872 135.133 59.3975C134.944 59.2079 134.688 59.1011 134.421 59.1006H60.802Z" fill="#E6E6E6"/>
<path d="M60.802 65.1709C60.5346 65.1703 60.2779 65.2764 60.0884 65.4657C59.8989 65.655 59.7921 65.9121 59.7915 66.1804C59.791 66.4487 59.8967 66.7063 60.0854 66.8964C60.2741 67.0865 60.5303 67.1936 60.7977 67.1942H107.34C107.473 67.1944 107.604 67.1685 107.727 67.1177C107.849 67.067 107.961 66.9925 108.055 66.8985C108.148 66.8046 108.223 66.693 108.274 66.5701C108.324 66.4473 108.35 66.3156 108.35 66.1826C108.35 66.0495 108.324 65.9178 108.274 65.795C108.223 65.6721 108.148 65.5605 108.055 65.4666C107.961 65.3726 107.849 65.2981 107.727 65.2474C107.604 65.1967 107.473 65.1707 107.34 65.1709H60.802Z" fill="#E6E6E6"/>
<path d="M161.988 159.748H10V45.3398H161.988V159.748ZM11.7011 158.041H160.287V47.0466H11.7011V158.041Z" fill="#E6E6E6"/>
<path d="M18.495 80.2295V148.277H153.493V80.2295H18.495ZM152.844 97.0787H119.906V80.8807H152.844V97.0787ZM86.3185 97.0787V80.8807H119.257V97.0787H86.3185ZM119.257 97.7299V113.928H86.3185V97.7299H119.257ZM85.6695 97.0787H52.7313V80.8807H85.6695V97.0787ZM85.6695 97.7299V113.928H52.7313V97.7299H85.6695ZM52.0823 113.928H19.1441V97.7299H52.0823V113.928ZM52.0823 114.579V130.777H19.1441V114.579H52.0823ZM52.7313 114.579H85.6695V130.777H52.7313V114.579ZM85.6695 131.428V147.626H52.7313V131.428H85.6695ZM86.3185 131.428H119.257V147.626H86.3185V131.428ZM86.3185 130.777V114.579H119.257V130.777H86.3185ZM119.906 114.579H152.844V130.777H119.906V114.579ZM119.906 113.928V97.7299H152.844V113.928H119.906ZM52.0823 80.8807V97.0787H19.1441V80.8807H52.0823ZM19.1441 131.428H52.0823V147.626H19.1441V131.428ZM119.906 147.626V131.428H152.844V147.626H119.906Z" fill="#E4E4E4"/>
<path d="M73.9129 98.5362L60.4804 98.231C59.1368 93.009 59.7417 88.0369 60.8139 83.4551L74.2464 83.7602C72.8877 88.5774 72.773 93.6622 73.9129 98.5362Z" fill="#25A18E"/>
<path d="M63.1152 86.7208L63.1223 86.208L70.0816 86.4574L70.0741 86.9702L63.1152 86.7208Z" fill="white"/>
<path d="M63.086 88.7716L63.0931 88.2588L70.052 88.5085L70.0449 89.0213L63.086 88.7716Z" fill="white"/>
<path d="M63.0565 90.8233L63.064 90.3105L70.0228 90.5603L70.0157 91.0731L63.0565 90.8233Z" fill="white"/>
<path d="M63.0273 92.8741L63.0344 92.3613L69.9936 92.6111L69.9862 93.1239L63.0273 92.8741Z" fill="white"/>
<path d="M62.998 94.9259L63.0052 94.4131L69.9644 94.6628L69.9569 95.1756L62.998 94.9259Z" fill="white"/>
<path d="M44.7066 136.305L31.2741 136C29.9305 130.778 30.5354 125.805 31.6076 121.224L45.0401 121.529C43.6814 126.346 43.5667 131.431 44.7066 136.305Z" fill="#F0F0F0"/>
<path d="M33.9089 124.488L33.9161 123.976L40.8753 124.225L40.8678 124.738L33.9089 124.488Z" fill="white"/>
<path d="M33.8797 126.54L33.8868 126.027L40.8457 126.277L40.8386 126.79L33.8797 126.54Z" fill="white"/>
<path d="M33.8502 128.591L33.8577 128.078L40.8165 128.328L40.8094 128.841L33.8502 128.591Z" fill="white"/>
<path d="M33.821 130.643L33.8281 130.13L40.7873 130.38L40.7799 130.892L33.821 130.643Z" fill="white"/>
<path d="M33.7918 132.693L33.7989 132.181L40.7581 132.43L40.7507 132.943L33.7918 132.693Z" fill="white"/>
<path d="M114.802 119.048L101.369 118.743C100.026 113.521 100.631 108.549 101.703 103.967L115.135 104.272C113.776 109.089 113.662 114.174 114.802 119.048Z" fill="#F0F0F0"/>
<path d="M104.004 107.233L104.011 106.72L110.97 106.969L110.963 107.482L104.004 107.233Z" fill="white"/>
<path d="M103.975 109.284L103.982 108.771L110.941 109.021L110.934 109.534L103.975 109.284Z" fill="white"/>
<path d="M103.945 111.335L103.953 110.822L110.912 111.072L110.904 111.585L103.945 111.335Z" fill="white"/>
<path d="M103.916 113.386L103.923 112.873L110.882 113.123L110.875 113.636L103.916 113.386Z" fill="white"/>
<path d="M103.887 115.438L103.894 114.925L110.853 115.175L110.846 115.687L103.887 115.438Z" fill="white"/>
<path d="M108.96 115.792L95.528 115.487C94.1844 110.265 94.7893 105.293 95.8615 100.711L109.294 101.016C107.935 105.833 107.821 110.918 108.96 115.792Z" fill="#25A18E"/>
<path d="M98.1628 103.977L98.1699 103.464L105.129 103.713L105.122 104.226L98.1628 103.977Z" fill="white"/>
<path d="M98.1335 106.028L98.1407 105.516L105.1 105.765L105.092 106.278L98.1335 106.028Z" fill="white"/>
<path d="M98.104 108.079L98.1115 107.566L105.07 107.816L105.063 108.329L98.104 108.079Z" fill="white"/>
<path d="M98.0748 110.13L98.082 109.617L105.041 109.867L105.034 110.38L98.0748 110.13Z" fill="white"/>
<path d="M98.0456 112.182L98.0527 111.669L105.012 111.919L105.004 112.431L98.0456 112.182Z" fill="white"/>
<path d="M158.503 145.534L145.07 145.229C143.727 140.007 144.332 135.035 145.404 130.453L158.836 130.758C157.478 135.575 157.363 140.66 158.503 145.534Z" fill="#25A18E"/>
<path d="M147.705 133.719L147.713 133.206L154.671 133.456L154.664 133.969L147.705 133.719Z" fill="white"/>
<path d="M147.676 135.771L147.683 135.258L154.642 135.508L154.635 136.02L147.676 135.771Z" fill="white"/>
<path d="M147.646 137.821L147.654 137.309L154.613 137.558L154.606 138.071L147.646 137.821Z" fill="white"/>
<path d="M147.617 139.873L147.625 139.36L154.583 139.61L154.576 140.123L147.617 139.873Z" fill="white"/>
<path d="M147.588 141.924L147.595 141.411L154.554 141.661L154.547 142.174L147.588 141.924Z" fill="white"/>
<path d="M144.008 101.141L130.576 100.836C129.232 95.6135 129.837 90.6414 130.909 86.0596L144.341 86.3647C142.983 91.1819 142.868 96.2667 144.008 101.141Z" fill="#F0F0F0"/>
<path d="M133.21 89.3253L133.217 88.8125L140.177 89.0619L140.169 89.5747L133.21 89.3253Z" fill="white"/>
<path d="M133.181 91.3761L133.188 90.8633L140.147 91.113L140.14 91.6258L133.181 91.3761Z" fill="white"/>
<path d="M133.152 93.4278L133.159 92.915L140.118 93.1648L140.111 93.6776L133.152 93.4278Z" fill="white"/>
<path d="M133.122 95.4786L133.13 94.9658L140.089 95.2155L140.081 95.7283L133.122 95.4786Z" fill="white"/>
<path d="M133.093 97.5304L133.1 97.0176L140.059 97.2673L140.052 97.7801L133.093 97.5304Z" fill="white"/>
<path d="M157.778 134.646C158.242 134.531 158.674 134.316 159.046 134.016C159.417 133.716 159.719 133.337 159.928 132.907C160.138 132.478 160.252 132.007 160.261 131.528C160.27 131.05 160.174 130.575 159.981 130.138L168.45 122.19L162.591 120.777L155.446 128.541C154.735 128.916 154.186 129.54 153.903 130.294C153.62 131.048 153.622 131.88 153.91 132.633C154.197 133.385 154.75 134.006 155.463 134.377C156.176 134.748 157 134.843 157.778 134.646Z" fill="#FFB6B6"/>
<path d="M162.154 128.243L158.204 122.656L173.04 107.26L176.485 82.9919C176.655 81.7923 177.087 80.6451 177.749 79.6317C178.411 78.6182 179.287 77.7634 180.315 77.1279C181.343 76.4924 182.498 76.0918 183.698 75.9545C184.898 75.8172 186.113 75.9467 187.258 76.3337C189.324 77.0349 191.029 78.5299 191.998 80.4906C192.967 82.4513 193.121 84.7176 192.426 86.7923L183.637 112.956L162.154 128.243Z" fill="#E4E4E4"/>
<path d="M190.011 231.647L185.626 231.646L183.54 214.678L190.012 214.678L190.011 231.647Z" fill="#FFB6B6"/>
<path d="M192.37 240H189.258L188.703 237.053L187.281 240H179.028C178.633 240 178.248 239.873 177.929 239.638C177.61 239.403 177.375 239.072 177.257 238.693C177.14 238.314 177.146 237.907 177.275 237.532C177.404 237.157 177.649 236.833 177.974 236.607L184.564 232.041V229.062L191.496 229.477L192.37 240Z" fill="#2F2E41"/>
<path d="M217.063 227.17L213.211 229.272L203.295 215.368L208.979 212.265L217.063 227.17Z" fill="#FFB6B6"/>
<path d="M223.114 233.376L220.381 234.868L218.489 232.546L218.644 235.817L211.395 239.774C211.048 239.964 210.649 240.037 210.257 239.983C209.865 239.929 209.501 239.751 209.217 239.475C208.933 239.199 208.744 238.838 208.679 238.447C208.614 238.056 208.675 237.654 208.853 237.299L212.466 230.128L211.047 227.511L217.333 224.552L223.114 233.376Z" fill="#2F2E41"/>
<path d="M191.858 225.604H182.796V193.23L177.187 172.123C173.16 157.029 172.09 141.294 174.036 125.791L174.044 125.728L174.092 125.687C174.236 125.565 188.595 113.654 197.677 122.766C203.798 128.908 198.046 150.993 197.724 152.206V190.278L191.858 225.604Z" fill="#2F2E41"/>
<path d="M171.276 131.672L174.197 102.369C173.817 101.57 168.355 96.5086 174.066 87.6095L180.235 73.0825L191.787 72.9023L191.835 72.9512C194.553 75.6719 196.557 79.025 197.67 82.7116C198.782 86.3982 198.968 90.3036 198.211 94.0799L194.807 111.156L197.757 122.993L171.276 131.672Z" fill="#E4E4E4"/>
<path d="M186.452 193.397L205.068 219.668L212.208 214.574L196.661 182.52L186.452 193.397Z" fill="#2F2E41"/>
<path d="M184.931 70.1298C190.822 70.1298 195.598 65.3383 195.598 59.4277C195.598 53.5171 190.822 48.7256 184.931 48.7256C179.04 48.7256 174.265 53.5171 174.265 59.4277C174.265 65.3383 179.04 70.1298 184.931 70.1298Z" fill="#FFB6B6"/>
<path opacity="0.1" d="M182.31 98.1367L185.23 115.718L182.31 130.37H176.468L179.124 115.718L182.31 98.1367Z" fill="black"/>
<path d="M185.096 145.465C185.451 145.145 185.732 144.751 185.919 144.311C186.105 143.871 186.194 143.394 186.177 142.916C186.161 142.438 186.04 141.969 185.823 141.542C185.607 141.116 185.3 140.742 184.923 140.448L188.666 129.436L182.834 130.957L180.174 141.181C179.723 141.848 179.531 142.658 179.635 143.457C179.739 144.256 180.132 144.989 180.738 145.517C181.345 146.045 182.124 146.331 182.927 146.322C183.73 146.312 184.502 146.008 185.096 145.465Z" fill="#FFB6B6"/>
<path d="M185.952 137.751L179.845 134.688L185.709 114.096L177.359 91.0593C176.947 89.9206 176.789 88.7047 176.897 87.4979C177.006 86.2912 177.377 85.1231 177.986 84.0767C178.595 83.0304 179.426 82.1313 180.42 81.4434C181.415 80.7555 182.547 80.2956 183.739 80.0963C185.891 79.7389 188.096 80.2526 189.871 81.5246C191.646 82.7967 192.846 84.7232 193.206 86.8815L197.731 114.116L185.952 137.751Z" fill="#E4E4E4"/>
<path d="M270 239.611C270 239.662 269.99 239.712 269.971 239.76C269.952 239.807 269.923 239.849 269.887 239.885C269.851 239.921 269.809 239.95 269.762 239.969C269.715 239.989 269.665 239.999 269.614 239.999H59.5589C59.4565 239.999 59.3583 239.958 59.2859 239.885C59.2134 239.812 59.1728 239.714 59.1728 239.611C59.1728 239.508 59.2134 239.41 59.2859 239.337C59.3583 239.264 59.4565 239.224 59.5589 239.224H269.614C269.716 239.224 269.814 239.265 269.887 239.337C269.959 239.41 270 239.508 270 239.611Z" fill="#CACACA"/>
<path d="M226.417 58.904C225.071 61.0959 222.22 62.0622 219.692 61.6233C217.164 61.1845 214.967 59.5472 213.344 57.553C211.721 55.5588 210.599 53.2114 209.494 50.8878C208.39 48.5642 207.272 46.215 205.658 44.2142C204.043 42.2134 201.858 40.5635 199.333 40.104C197.959 39.8539 196.403 40.019 195.4 40.9943C194.709 41.7253 194.332 42.6994 194.35 43.7069C193.913 43.5525 193.445 43.5084 192.987 43.5784C192.529 43.6483 192.095 43.8302 191.723 44.1081C191.352 44.3859 191.055 44.7511 190.857 45.1716C190.66 45.592 190.568 46.0547 190.591 46.5189C190.554 46.5182 190.517 46.5157 190.479 46.5157C185.775 43.8323 178.635 45.3912 178.635 48.3215C176.054 48.3215 172.899 50.879 172.899 54.7628C178.237 54.7628 181.378 61.6245 178.262 66.5444C177.457 67.7993 176.57 68.9991 175.607 70.1359H182.282C182.842 69.3297 183.18 68.3895 183.261 67.4103C183.507 68.2999 183.653 69.214 183.698 70.1359C183.698 70.1359 201.931 72.4931 197.225 54.2592C197.537 54.2436 197.84 54.1515 198.107 53.991C198.818 53.5613 199.205 52.6525 199.273 51.7304C199.448 51.7776 199.624 51.8246 199.799 51.8716C201.053 52.2113 202.356 52.6516 203.217 53.6279C204.672 55.2781 204.366 57.7827 204.895 59.9213C205.532 62.5003 207.438 64.5863 209.556 66.1818C211.831 67.8961 214.489 69.1985 217.321 69.4688C220.154 69.7392 223.168 68.875 225.131 66.8081C227.093 64.7412 227.777 61.4116 226.417 58.904Z" fill="#2F2E41"/>
</g>
<defs>
<clipPath id="clip0_13_512">
<rect width="260" height="200" fill="white" transform="translate(10 40)"/>
</clipPath>
</defs>
</svg>
