<svg width="280" height="280" viewBox="0 0 280 280" fill="none" xmlns="http://www.w3.org/2000/svg">
<path d="M126.275 189.716H1.28706C0.945828 189.715 0.618677 189.581 0.377388 189.341C0.136099 189.101 0.000378411 188.775 0 188.436V67.2798C0.000378411 66.9405 0.136099 66.6152 0.377388 66.3753C0.618677 66.1353 0.945828 66.0004 1.28706 66H126.275C126.617 66.0004 126.944 66.1353 127.185 66.3753C127.426 66.6152 127.562 66.9405 127.562 67.2798V188.436C127.562 188.775 127.426 189.101 127.185 189.341C126.944 189.581 126.617 189.715 126.275 189.716Z" fill="#F0F0F0"/>
<path d="M112.69 77.0918H14.8727C14.5315 77.0923 14.2044 77.2273 13.9632 77.4672C13.7219 77.7071 13.5861 78.0323 13.5856 78.3716V153.739C13.5861 154.078 13.7219 154.403 13.9632 154.643C14.2044 154.883 14.5315 155.018 14.8727 155.019H112.69C113.031 155.018 113.358 154.883 113.599 154.643C113.84 154.403 113.976 154.078 113.977 153.739V78.3716C113.976 78.0323 113.84 77.7071 113.599 77.4672C113.358 77.2273 113.031 77.0923 112.69 77.0918Z" fill="white"/>
<path d="M107.112 169.807H20.45C20.2604 169.807 20.0787 169.732 19.9447 169.599C19.8106 169.466 19.7352 169.285 19.735 169.096V165.115C19.7352 164.926 19.8106 164.746 19.9447 164.612C20.0787 164.479 20.2604 164.404 20.45 164.404H107.112C107.302 164.404 107.484 164.479 107.618 164.612C107.752 164.746 107.827 164.926 107.827 165.115V169.096C107.827 169.285 107.752 169.466 107.618 169.599C107.484 169.732 107.302 169.807 107.112 169.807Z" fill="white"/>
<path d="M77.0808 179.477H20.45C20.2605 179.477 20.0787 179.402 19.9447 179.268C19.8106 179.135 19.7352 178.954 19.735 178.766V174.784C19.7352 174.596 19.8106 174.415 19.9447 174.282C20.0787 174.148 20.2604 174.073 20.45 174.073H77.0808C77.2704 174.073 77.4522 174.148 77.5862 174.282C77.7203 174.415 77.7957 174.596 77.7959 174.784V178.766C77.7957 178.954 77.7203 179.135 77.5862 179.268C77.4522 179.402 77.2704 179.477 77.0808 179.477Z" fill="white"/>
<path d="M61.3647 128.162C68.2334 128.162 73.8016 122.625 73.8016 115.795C73.8016 108.965 68.2334 103.428 61.3647 103.428C54.4959 103.428 48.9277 108.965 48.9277 115.795C48.9277 122.625 54.4959 128.162 61.3647 128.162Z" fill="#FFB8B8"/>
<path d="M79.5605 155.018H51.986L52.8869 134.859L53.1016 134.635L56.1961 131.384H66.0435L69.693 134.899L69.9878 135.184L77.7588 142.59L79.5605 155.018Z" fill="#25A18E"/>
<path d="M56.728 155.018H35.8662C35.8148 150.468 35.7861 147.743 35.7861 147.743L36.993 147.012C36.9945 147.011 36.9966 147.01 36.9988 147.009H37.0017L50.2956 138.983L53.087 134.476L53.1014 134.635L53.9223 144.137C53.9223 144.137 55.278 148.494 56.728 155.018Z" fill="#2F2E41"/>
<path d="M91.7906 155.018H69.6931C70.0277 141.748 68.2259 134.476 69.1526 134.476L69.6931 134.899L76.2056 140.013L84.789 143.144H84.7947L90.7124 145.303L91.7506 145.681V146.167C91.7534 147.334 91.7591 150.522 91.7906 155.018Z" fill="#2F2E41"/>
<path d="M49.5986 119.664C49.5986 119.664 50.6553 117.819 50.4096 111.654C50.1639 105.49 59.604 108.976 67.4922 108.388C75.3803 107.8 73.7105 118.68 73.7105 118.68C73.7105 118.68 74.2796 118.033 75.498 112.782C76.7164 107.532 73.95 102.299 73.95 102.299C73.1352 96.7812 68.7443 98.5496 68.7443 98.5496C70.8589 99.3682 70.4528 101.118 70.4528 101.118C68.6628 97.9979 64.2719 99.7663 64.2719 99.7663C58.4156 96.112 52.4804 100.924 52.4804 100.924C45.4057 102.521 49.5547 108.115 49.5547 108.115C42.44 111.691 49.5986 119.664 49.5986 119.664Z" fill="#2F2E41"/>
<path d="M38.652 155.018H30.0801C30.1469 153.968 30.1488 152.915 30.0858 151.864C29.5738 149.836 36.7757 147.095 36.993 147.012C36.9945 147.011 36.9966 147.009 36.9988 147.009H37.0017L38.3745 147.743L38.652 155.018Z" fill="#2F2E41"/>
<path d="M93.338 155.019H84.3342L83.2102 143.984L84.4714 143.068C84.4714 143.068 84.586 143.093 84.789 143.145H84.7947C85.8043 143.392 88.9276 144.211 90.7124 145.303C91.1094 145.525 91.4615 145.818 91.7506 146.168C91.9276 146.379 92.0157 146.65 91.9965 146.924C91.9508 147.337 92.477 150.374 93.338 155.019Z" fill="#2F2E41"/>
<path d="M278.275 166.716H153.287C152.946 166.716 152.619 166.581 152.377 166.341C152.136 166.101 152 165.775 152 165.436V44.2798C152 43.9405 152.136 43.6152 152.377 43.3753C152.619 43.1353 152.946 43.0004 153.287 43H278.275C278.617 43.0004 278.944 43.1353 279.185 43.3753C279.426 43.6152 279.562 43.9405 279.562 44.2798V165.436C279.562 165.775 279.426 166.101 279.185 166.341C278.944 166.581 278.617 166.716 278.275 166.716Z" fill="#F0F0F0"/>
<path d="M264.69 54.0918H166.873C166.532 54.0923 166.205 54.2273 165.963 54.4672C165.722 54.7071 165.586 55.0323 165.586 55.3716V130.739C165.586 131.078 165.722 131.403 165.963 131.643C166.205 131.883 166.532 132.018 166.873 132.019H264.69C265.031 132.018 265.358 131.883 265.599 131.643C265.84 131.403 265.976 131.078 265.977 130.739V55.3716C265.976 55.0323 265.84 54.7071 265.599 54.4672C265.358 54.2273 265.031 54.0923 264.69 54.0918Z" fill="white"/>
<path d="M259.112 146.807H172.45C172.26 146.807 172.079 146.732 171.945 146.599C171.811 146.466 171.735 146.285 171.735 146.096V142.115C171.735 141.926 171.811 141.746 171.945 141.612C172.079 141.479 172.26 141.404 172.45 141.404H259.112C259.302 141.404 259.484 141.479 259.618 141.612C259.752 141.746 259.827 141.926 259.827 142.115V146.096C259.827 146.285 259.752 146.466 259.618 146.599C259.484 146.732 259.302 146.807 259.112 146.807Z" fill="white"/>
<path d="M229.081 156.477H172.45C172.26 156.477 172.079 156.402 171.945 156.269C171.811 156.136 171.735 155.955 171.735 155.766V151.785C171.735 151.596 171.811 151.416 171.945 151.282C172.079 151.149 172.26 151.074 172.45 151.074H229.081C229.27 151.074 229.452 151.149 229.586 151.282C229.72 151.416 229.796 151.596 229.796 151.785V155.766C229.796 155.955 229.72 156.136 229.586 156.269C229.452 156.402 229.27 156.477 229.081 156.477Z" fill="white"/>
<path d="M239.858 132.019C240.41 130.042 240.839 128.339 241.059 127.133C241.127 126.761 241.134 126.381 241.079 126.007C240.256 120.179 225.377 115.253 223.469 114.645L223.009 109.571L204.281 107.566L201.91 114.056L195.188 116.562C194.945 116.651 194.714 116.769 194.499 116.914C193.935 117.293 193.502 117.834 193.257 118.465C193.012 119.096 192.967 119.787 193.129 120.444L195.992 132.019L239.858 132.019Z" fill="#25A18E"/>
<path d="M193.034 126.019H178.502C179.023 122.793 179.489 119.941 179.792 118.126C180.902 111.523 185.741 110.959 186.499 110.914C186.559 110.908 186.596 110.908 186.599 110.908H189.657L193.034 126.019Z" fill="#25A18E"/>
<path d="M239.858 132.019H243.382C243.07 129.172 242.08 127.255 241.079 126.007C240.411 125.129 239.549 124.416 238.559 123.922L238.293 123.808L235.196 132.019H239.858Z" fill="#25A18E"/>
<path d="M212.913 104.354C220.36 104.354 226.398 98.3508 226.398 90.9453C226.398 83.5399 220.36 77.5366 212.913 77.5366C205.466 77.5366 199.428 83.5399 199.428 90.9453C199.428 98.3508 205.466 104.354 212.913 104.354Z" fill="#A0616A"/>
<path d="M203.862 84.413C205.258 86.0557 207.62 86.519 209.799 86.7074C214.225 87.0935 220.66 86.4674 224.985 85.4746C225.296 88.4494 224.453 91.6572 226.214 94.1048C227.04 91.1419 227.521 88.0944 227.646 85.0223C227.699 83.7048 227.678 82.3418 227.14 81.1324C226.602 79.923 225.427 78.8962 224.075 78.8856C225.08 78.128 226.256 77.6279 227.501 77.4296L223.22 75.29L224.319 74.1675L216.568 73.6958L218.813 72.2777C215.433 71.8161 212.013 71.7092 208.61 71.9587C207.03 72.0743 205.379 72.2954 204.099 73.2056C202.819 74.1159 202.08 75.9245 202.874 77.2606C201.88 77.423 200.943 77.8353 200.153 78.4584C199.364 79.0814 198.747 79.8946 198.362 80.8209C197.791 82.2594 197.844 83.8571 198.019 85.3899C198.311 87.8414 198.884 90.2516 199.727 92.5737" fill="#2F2E41"/>
<path d="M208.872 237H83.8839C83.5427 237 83.2155 236.865 82.9743 236.625C82.733 236.385 82.5972 236.06 82.5969 235.72V114.564C82.5972 114.225 82.733 113.899 82.9743 113.659C83.2155 113.42 83.5427 113.285 83.8839 113.284H208.872C209.213 113.285 209.541 113.42 209.782 113.659C210.023 113.899 210.159 114.225 210.159 114.564V235.72C210.159 236.06 210.023 236.385 209.782 236.625C209.541 236.865 209.213 237 208.872 237Z" fill="#E4E4E4"/>
<path d="M195.287 124.376H97.4698C97.1286 124.376 96.8015 124.511 96.5602 124.751C96.319 124.991 96.1832 125.317 96.1827 125.656V201.023C96.1832 201.362 96.319 201.687 96.5602 201.927C96.8015 202.167 97.1286 202.302 97.4698 202.303H195.287C195.628 202.302 195.955 202.167 196.196 201.927C196.437 201.687 196.573 201.362 196.574 201.023V125.656C196.573 125.317 196.437 124.991 196.196 124.751C195.955 124.511 195.628 124.376 195.287 124.376Z" fill="white"/>
<path d="M189.709 217.092H103.047C102.857 217.091 102.676 217.016 102.542 216.883C102.408 216.75 102.332 216.569 102.332 216.381V212.399C102.332 212.211 102.408 212.03 102.542 211.896C102.676 211.763 102.857 211.688 103.047 211.688H189.709C189.899 211.688 190.081 211.763 190.215 211.896C190.349 212.03 190.424 212.211 190.424 212.399V216.381C190.424 216.569 190.349 216.75 190.215 216.883C190.081 217.016 189.899 217.091 189.709 217.092Z" fill="white"/>
<path d="M159.678 226.762H103.047C102.857 226.761 102.676 226.686 102.542 226.553C102.408 226.42 102.332 226.239 102.332 226.051V222.069C102.332 221.88 102.408 221.7 102.542 221.566C102.676 221.433 102.857 221.358 103.047 221.358H159.678C159.867 221.358 160.049 221.433 160.183 221.566C160.317 221.7 160.393 221.88 160.393 222.069V226.051C160.393 226.239 160.317 226.42 160.183 226.553C160.049 226.686 159.867 226.761 159.678 226.762Z" fill="white"/>
<path d="M156.003 202.303H136.316L137.543 183.993L144.645 185.623L151.552 182.981L151.735 182.912L151.747 182.907C151.749 182.912 151.751 182.918 151.752 182.924C151.861 183.359 154.029 191.991 156.003 202.303Z" fill="#25A18E"/>
<path d="M167.867 186.982L166.027 202.303H149.436L151.552 182.981L151.572 182.793L151.735 182.912L151.752 182.924L155.845 185.893L167.867 186.982Z" fill="#2F2E41"/>
<path d="M139.228 202.303H124.369L124.155 190.242L135.089 186.635L137.543 183.993C137.543 183.993 138.318 191.942 139.228 202.303Z" fill="#2F2E41"/>
<path d="M175.02 202.303H162.707L163.496 191.328L167.866 186.982C167.866 186.982 171.324 194.194 175.02 202.303Z" fill="#2F2E41"/>
<path d="M127.873 202.303H121.378C121.406 198.788 121.423 196.359 121.423 195.673C121.391 194.614 121.623 193.563 122.1 192.615C122.577 191.667 123.283 190.851 124.155 190.241L127.435 191.328L127.873 202.303Z" fill="#2F2E41"/>
<path d="M126.86 165.146C126.87 162.167 127.657 159.243 129.145 156.658C130.632 154.073 132.769 151.916 135.346 150.398C140.822 147.184 147.428 147.242 153.47 150.557C157.776 152.92 161.278 158.863 161.278 163.807V178.231H126.86V165.146Z" fill="#2F2E41"/>
<path d="M149.35 176.361C155.375 173.086 157.589 165.575 154.296 159.585C151.002 153.594 143.449 151.393 137.424 154.667C131.4 157.942 129.186 165.453 132.479 171.443C135.772 177.434 143.326 179.636 149.35 176.361Z" fill="#FFB8B8"/>
<path d="M130.423 165.631C130.329 165.523 130.109 165.269 131.642 153.537L131.691 153.345H131.829C139.602 149.543 147.488 149.447 155.27 153.059C155.509 153.172 155.715 153.345 155.867 153.561C156.02 153.777 156.113 154.029 156.138 154.291C157.046 165.315 156.826 165.555 156.733 165.658C156.59 165.813 156.417 165.938 156.223 166.023C156.03 166.108 155.82 166.152 155.609 166.152H152.161L152.089 166.022C151.497 164.929 150.847 163.866 150.143 162.84C149.819 163.862 149.554 164.9 149.348 165.952L149.306 166.152H131.571C131.353 166.152 131.138 166.106 130.94 166.016C130.742 165.926 130.566 165.795 130.423 165.631Z" fill="#2F2E41"/>
</svg>
