<svg width="280" height="280" viewBox="0 0 280 280" fill="none" xmlns="http://www.w3.org/2000/svg">
<g clip-path="url(#clip0_13_417)">
<path d="M186.61 77.1609C186.585 84.9251 186.058 92.6796 185.032 100.376C184.996 100.646 184.957 100.917 184.921 101.187H111.964C111.748 100.92 111.536 100.65 111.33 100.376C110.644 99.4709 110 98.5396 109.408 97.5756C106.566 92.9319 105.246 87.4839 106.517 83.7129L106.539 83.6543C106.814 82.8285 107.249 82.0649 107.82 81.4073C110.748 78.0857 116.708 78.6035 122.129 81.2412C117.251 75.9788 113.352 69.3258 113.026 63.3698C112.705 57.5603 115.731 53.392 119.018 49.8457C119.126 49.7285 119.234 49.6145 119.342 49.5005C119.394 49.4419 119.45 49.3865 119.502 49.3279C122.067 46.6251 125.06 43.958 129.415 44.2544C134.192 44.58 139.509 48.5366 143.247 53.1608C146.985 57.7817 149.481 63.0409 152.01 68.1731C154.543 73.302 157.281 78.5612 161.323 82.9346C155.843 76.1058 151.412 68.3261 149.749 60.7451C148.086 53.1641 149.472 45.8663 154.301 42.2647C155.767 41.2047 157.467 40.5102 159.258 40.2392C159.467 40.2033 159.679 40.174 159.895 40.148C164.381 39.6139 169.75 41.1314 174.331 44.8047C179.376 48.8492 182.892 54.8672 184.656 60.5888C186.421 66.3104 186.636 71.8268 186.61 77.1609Z" fill="#F2F2F2"/>
<path d="M139.012 101.187H137.617C137.173 100.913 136.726 100.643 136.277 100.376C136 100.203 135.719 100.037 135.437 99.868C130.794 97.0772 126.123 94.4015 121.423 91.8408C116.728 89.278 112.009 86.8345 107.268 84.5105C107.143 84.4568 107.04 84.361 106.978 84.2396C106.916 84.1182 106.898 83.979 106.928 83.8462C106.933 83.8288 106.941 83.8123 106.951 83.7973C107.017 83.6736 107.164 83.6215 107.379 83.7257C107.961 84.0123 108.546 84.2988 109.127 84.5919C113.882 86.9561 118.616 89.4397 123.331 92.0427C128.043 94.6446 132.729 97.3627 137.388 100.197C137.486 100.255 137.584 100.317 137.682 100.376C138.127 100.646 138.568 100.917 139.012 101.187Z" fill="white"/>
<path d="M157 101.187H156.137C155.941 100.917 155.748 100.646 155.552 100.376C150.945 94.0131 146.339 87.6499 141.734 81.2868C134.193 70.8694 126.653 60.452 119.116 50.0346C119.072 49.9785 119.038 49.9144 119.018 49.8457C118.953 49.6145 119.123 49.4777 119.342 49.5005C119.434 49.5131 119.523 49.5452 119.601 49.5946C119.68 49.644 119.748 49.7097 119.799 49.7871C124.027 55.6292 128.254 61.4691 132.48 67.3068C139.983 77.6722 147.484 88.0364 154.984 98.3995C155.461 99.0573 155.938 99.7184 156.415 100.376C156.611 100.646 156.807 100.917 157 101.187Z" fill="white"/>
<path d="M176.19 96.0872C176.154 97.5363 176.066 98.9627 175.948 100.376C175.925 100.646 175.903 100.917 175.88 101.187H174.975C175.001 100.917 175.027 100.646 175.05 100.376C175.229 98.3342 175.354 96.2696 175.36 94.1496C175.351 88.2723 174.744 82.411 173.547 76.6559C172.274 70.4592 170.462 64.3847 168.132 58.5012C165.687 52.2958 162.746 46.2956 159.34 40.5581C159.275 40.4646 159.247 40.3516 159.258 40.2389C159.294 39.9817 159.637 39.9035 159.895 40.1477C159.946 40.1957 159.99 40.2505 160.026 40.3106C160.447 41.0237 160.861 41.7391 161.267 42.4566C164.55 48.2268 167.366 54.2486 169.688 60.4648C171.899 66.3683 173.591 72.4527 174.743 78.6489C175.821 84.3972 176.306 90.2404 176.19 96.0872Z" fill="white"/>
<path d="M239.188 100.376H40.8492C40.0937 100.377 39.3694 100.676 38.8352 101.208C38.3011 101.741 38.0007 102.463 38 103.216V237.16C38.0007 237.913 38.3011 238.635 38.8352 239.167C39.3694 239.7 40.0937 239.999 40.8492 240H239.188C239.6 240 240.007 239.911 240.381 239.739C240.755 239.567 241.087 239.316 241.354 239.003C241.377 238.979 241.398 238.953 241.416 238.925C241.587 238.718 241.724 238.486 241.825 238.238C241.968 237.897 242.042 237.53 242.04 237.16V103.216C242.04 102.462 241.739 101.74 241.204 101.207C240.669 100.675 239.944 100.376 239.188 100.376ZM241.227 237.16C241.227 237.557 241.11 237.944 240.89 238.274C240.695 238.565 240.43 238.802 240.119 238.964C239.831 239.113 239.512 239.19 239.188 239.189H40.8492C40.3095 239.188 39.7921 238.974 39.4105 238.594C39.0289 238.214 38.8142 237.698 38.8135 237.16V103.216C38.8142 102.678 39.0289 102.162 39.4105 101.782C39.7921 101.401 40.3095 101.187 40.8492 101.187H239.188C239.728 101.187 240.246 101.4 240.629 101.781C241.011 102.161 241.226 102.677 241.227 103.216V237.16Z" fill="#00332B"/>
<path d="M241.632 111.757H38.406V112.569H241.632V111.757Z" fill="#00332B"/>
<path d="M45.3296 108.9C46.6791 108.9 47.7732 107.81 47.7732 106.465C47.7732 105.12 46.6791 104.029 45.3296 104.029C43.98 104.029 42.886 105.12 42.886 106.465C42.886 107.81 43.98 108.9 45.3296 108.9Z" fill="#00332B"/>
<path d="M52.3549 108.9C53.7045 108.9 54.7985 107.81 54.7985 106.465C54.7985 105.12 53.7045 104.029 52.3549 104.029C51.0054 104.029 49.9113 105.12 49.9113 106.465C49.9113 107.81 51.0054 108.9 52.3549 108.9Z" fill="#00332B"/>
<path d="M59.3802 108.9C60.7298 108.9 61.8238 107.81 61.8238 106.465C61.8238 105.12 60.7298 104.029 59.3802 104.029C58.0307 104.029 56.9366 105.12 56.9366 106.465C56.9366 107.81 58.0307 108.9 59.3802 108.9Z" fill="#00332B"/>
<path d="M128.503 180.768C126.059 179.183 124.843 175.498 125.442 172.128C126.041 168.759 128.296 165.856 131 164.604C132.315 164.014 133.756 163.758 135.195 163.86C136.634 163.962 138.025 164.418 139.243 165.188C141.722 166.699 145.228 167.527 146.405 170.549C147.31 172.872 146.162 177.589 144.945 179.845C143.892 181.795 141.893 182.687 140.014 183.075C137.935 183.497 135.79 183.47 133.723 182.994C131.655 182.519 129.715 181.607 128.032 180.319L128.503 180.768Z" fill="#2F2E41"/>
<path d="M127.228 198.666L125.274 202.023L125.016 202.466L124.64 203.117H118.88L119.269 202.466L120.275 200.776L122.621 196.829L125.278 197.887L127.228 198.666Z" fill="#FFB8B8"/>
<path d="M118.448 203.118L117.396 202.466L117.266 202.385L123.869 190.391C124.153 189.872 124.538 189.414 125 189.044C125.463 188.674 125.995 188.399 126.565 188.236C127.285 188.022 128.047 187.994 128.78 188.154C129.208 188.244 129.62 188.398 130.002 188.61C130.16 188.696 130.311 188.792 130.457 188.897C131.015 189.287 131.474 189.802 131.796 190.401C132.18 191.102 132.37 191.893 132.345 192.691C132.321 193.489 132.084 194.267 131.659 194.944L129.114 198.998L126.937 202.466L126.529 203.118H118.448Z" fill="#2F2E41"/>
<path d="M135.415 185.025C139.847 185.025 143.44 181.444 143.44 177.027C143.44 172.609 139.847 169.028 135.415 169.028C130.982 169.028 127.389 172.609 127.389 177.027C127.389 181.444 130.982 185.025 135.415 185.025Z" fill="#FFB8B8"/>
<path d="M143.471 203.118H125.431L125.513 202.886C125.467 202.746 125.425 202.606 125.385 202.466C125.343 202.32 125.307 202.17 125.274 202.023C124.981 200.66 124.982 199.25 125.278 197.888C126.274 193.01 130.251 189.046 130.251 189.046C130.319 188.994 130.388 188.945 130.457 188.897C131.048 188.465 131.69 188.106 132.368 187.828C135.322 186.607 138.42 187.099 140.501 187.731C141.226 187.949 141.934 188.218 142.622 188.535C142.863 188.649 142.994 188.721 142.994 188.721L143.2 194.976L143.448 202.466L143.471 203.118Z" fill="#25A18E"/>
<path d="M151.816 202.466L150.437 195.478L149.046 188.431C148.988 188.14 148.843 187.873 148.63 187.666C148.417 187.458 148.146 187.32 147.853 187.269L144.938 186.767L142.226 186.301C141.965 186.254 141.695 186.28 141.447 186.374C141.199 186.469 140.981 186.63 140.818 186.839C140.614 187.092 140.502 187.406 140.501 187.731C140.501 187.931 140.542 188.13 140.622 188.314C142.037 191.603 142.063 196.81 141.703 202.466C141.687 202.681 141.674 202.9 141.658 203.118H151.947L151.816 202.466Z" fill="#2F2E41"/>
<path d="M132.368 187.828C132.308 187.591 132.19 187.373 132.024 187.193C131.858 187.013 131.65 186.876 131.419 186.796C131.187 186.716 130.939 186.695 130.697 186.734C130.455 186.773 130.226 186.872 130.032 187.021L128.78 188.154L123.657 192.804C123.497 192.947 123.372 193.124 123.291 193.322C122.712 194.699 121.585 197.419 120.275 200.776C120.063 201.323 119.844 201.886 119.618 202.466C119.54 202.681 119.455 202.899 119.37 203.117H127.813C127.882 202.899 127.95 202.681 128.019 202.466C128.395 201.284 128.761 200.125 129.114 198.998C130.146 195.725 131.077 192.752 131.796 190.401C131.996 189.75 132.177 189.148 132.342 188.597C132.419 188.347 132.428 188.082 132.368 187.828Z" fill="#2F2E41"/>
<path d="M153.712 203.117H154.257L154.182 202.935L153.983 202.466L150.908 195.194L150.437 195.478L146.66 197.754L148.598 202.466L148.866 203.117H151.947H153.712Z" fill="#FFB8B8"/>
<path d="M150.594 189.427C150.178 188.342 149.357 187.459 148.303 186.963C147.249 186.467 146.043 186.397 144.938 186.766C144.797 186.813 144.658 186.867 144.523 186.929C143.749 187.273 143.089 187.83 142.622 188.535C142.431 188.816 142.274 189.119 142.154 189.437C141.942 189.989 141.842 190.577 141.859 191.168C141.877 191.759 142.011 192.34 142.256 192.879L143.2 194.976L146.578 202.466L146.873 203.117H153.711L154.182 202.935L155.404 202.466L155.574 202.401L150.594 189.427Z" fill="#2F2E41"/>
<path d="M141.718 167.841C141.998 167.924 142.297 167.914 142.57 167.81C142.843 167.707 143.074 167.517 143.228 167.27C143.374 167.017 143.459 166.735 143.478 166.445C143.498 166.154 143.45 165.864 143.339 165.595C143.111 165.057 142.752 164.586 142.295 164.222C141.775 163.754 141.143 163.427 140.459 163.275C140.117 163.202 139.764 163.203 139.423 163.277C139.082 163.352 138.761 163.499 138.481 163.708C138.207 163.925 138.004 164.217 137.898 164.549C137.791 164.881 137.787 165.237 137.885 165.572C138.092 166.172 138.655 166.575 139.217 166.874C140.333 167.468 141.562 167.816 142.824 167.896L141.718 167.841Z" fill="#2F2E41"/>
<path d="M143.279 176.788C141.989 176.965 142.154 176.311 141.638 175.119C141.121 173.928 140.429 172.513 139.132 172.392C138.07 172.294 137.194 173.14 136.333 173.769C134.799 174.89 132.731 175.438 130.952 174.766C129.173 174.094 127.937 171.981 128.612 170.208C128.822 169.719 129.131 169.277 129.519 168.912C129.907 168.546 130.366 168.264 130.868 168.082C131.876 167.725 132.946 167.577 134.013 167.647C136.385 167.722 138.713 168.316 140.83 169.386C142.291 170.126 143.714 171.185 144.268 172.722C144.823 174.259 145.187 176.419 143.602 176.835L143.279 176.788Z" fill="#2F2E41"/>
<path d="M141.058 163.612C140.421 162.506 140.947 160.988 141.99 160.249C143.034 159.509 144.434 159.437 145.679 159.733C146.91 160.042 148.039 160.669 148.951 161.55C149.862 162.431 150.526 163.535 150.874 164.752C151.403 166.687 151.089 168.765 151.536 170.72C151.775 171.762 152.225 172.744 152.859 173.606C153.492 174.468 154.297 175.192 155.222 175.733C156.147 176.274 157.173 176.62 158.238 176.75C159.302 176.881 160.382 176.793 161.411 176.492C162.752 176.099 164.114 175.146 164.246 173.76C164.384 175.351 164.02 176.946 163.204 178.322C162.388 179.697 161.161 180.783 159.695 181.428C157.968 182.146 156.041 182.193 154.171 182.145C152.952 182.114 151.705 182.041 150.581 181.571C149.803 181.217 149.103 180.712 148.523 180.086C147.944 179.46 147.495 178.724 147.204 177.923C146.632 176.312 146.477 174.583 146.755 172.896C146.939 171.584 147.305 170.299 147.407 168.978C147.51 167.657 147.315 166.247 146.499 165.202C145.682 164.158 144.121 163.624 142.96 164.268C142.493 164.527 142.116 164.949 141.609 165.116C141.102 165.283 140.383 164.99 140.429 164.459L141.058 163.612Z" fill="#2F2E41"/>
<path d="M195.823 203.117L195.885 202.466L197.728 183.357C198.332 182.885 198.981 182.474 199.666 182.129C203.46 180.224 207.119 181.136 209.099 181.924C209.624 182.129 210.131 182.376 210.615 182.663L211.694 202.466L211.73 203.117H195.823Z" fill="#25A18E"/>
<path d="M204.454 178.272C208.886 178.272 212.479 174.691 212.479 170.274C212.479 165.856 208.886 162.275 204.454 162.275C200.021 162.275 196.428 165.856 196.428 170.274C196.428 174.691 200.021 178.272 204.454 178.272Z" fill="#FFB8B8"/>
<path d="M210.965 175.15C211.562 174.523 211.958 173.734 212.103 172.882C212.248 172.031 212.136 171.156 211.781 170.368C211.425 169.58 210.843 168.915 210.107 168.459C209.372 168.002 208.517 167.773 207.65 167.802C206.541 167.839 205.495 168.291 204.436 168.624C202.831 169.168 201.118 169.321 199.441 169.072C197.755 168.811 196.232 167.915 195.188 166.569C194.195 165.209 193.886 163.323 194.587 161.793C195.397 160.027 197.289 159.053 199.068 158.263C199.786 157.905 200.552 157.654 201.343 157.518C201.739 157.452 202.145 157.469 202.534 157.567C202.924 157.665 203.289 157.841 203.606 158.086C204.106 158.515 204.399 159.159 204.944 159.531C205.556 159.949 206.352 159.938 207.091 160.012C208.755 160.178 210.329 160.845 211.603 161.924C212.878 163.003 213.792 164.444 214.225 166.053C214.658 167.663 214.589 169.366 214.027 170.936C213.465 172.506 212.437 173.868 211.08 174.842L210.965 175.15Z" fill="#2F2E41"/>
<path d="M200.862 185.438L199.666 182.13L199.591 181.923C199.556 181.826 199.499 181.737 199.424 181.665C199.349 181.592 199.259 181.538 199.16 181.505C199.061 181.473 198.955 181.463 198.852 181.477C198.749 181.491 198.65 181.528 198.563 181.586L197.205 182.488C197.205 182.488 188.498 182.488 187.798 187.695C187.789 187.776 187.775 187.868 187.766 187.965C187.765 187.97 187.764 187.974 187.762 187.978C187.674 188.32 186.031 194.651 184.619 202.466C184.58 202.681 184.541 202.899 184.501 203.118H203.424C204.039 195.267 203.695 187.967 200.862 185.438Z" fill="#2F2E41"/>
<path d="M223.434 202.466C222.401 194.448 220.925 187.965 220.925 187.965C220.911 187.867 220.898 187.776 220.888 187.694C220.193 182.487 211.485 182.487 211.485 182.487L210.128 181.586C210.041 181.528 209.942 181.491 209.839 181.477C209.735 181.463 209.63 181.473 209.531 181.505C209.432 181.538 209.341 181.592 209.267 181.665C209.192 181.738 209.135 181.826 209.099 181.924L207.828 185.438C204.995 187.966 204.651 195.266 205.266 203.117L223.516 203.117C223.489 202.899 223.46 202.681 223.434 202.466Z" fill="#2F2E41"/>
<path d="M70.1609 184.21L68.22 202.466L68.1514 203.117H62.9005C62.9626 202.905 63.0247 202.687 63.0901 202.466C64.5801 197.373 66.6092 189.938 66.3902 187.968C66.0471 184.894 68.4488 183.868 68.4488 183.868L68.5991 183.897L70.1609 184.21Z" fill="#25A18E"/>
<path d="M78.6293 178.575C83.0615 178.575 86.6546 174.995 86.6546 170.577C86.6546 166.16 83.0615 162.579 78.6293 162.579C74.197 162.579 70.6039 166.16 70.6039 170.577C70.6039 174.995 74.197 178.575 78.6293 178.575Z" fill="#A0616A"/>
<path d="M89.0178 199.242C88.6131 199.986 88.2815 200.766 88.0278 201.574C87.933 201.86 87.8416 202.16 87.7565 202.466C87.6945 202.678 87.6389 202.896 87.5834 203.117H66.4163C66.4458 202.902 66.4718 202.684 66.5013 202.466C67.5829 193.95 68.4585 185.308 68.5991 183.898C68.6121 183.764 68.6187 183.696 68.6187 183.696C81.3031 177.033 90.5601 185.747 90.5601 185.747C90.5601 185.747 90.5731 185.809 90.5928 185.93C90.7954 187.148 91.8278 194.26 89.0178 199.242Z" fill="#25A18E"/>
<path d="M88.0278 201.574L86.6162 198.559L86.9593 186.601L90.5928 185.93L90.7203 185.907C92.5984 186.995 94.0517 188.685 94.8438 190.701C95.5496 192.459 96.8925 197.748 98.0264 202.466C98.0787 202.685 98.1309 202.903 98.1832 203.118H88.7499L88.4459 202.466L88.0278 201.574Z" fill="#25A18E"/>
<path d="M100.938 149.386H54.5324C53.5371 149.387 52.5828 149.782 51.879 150.483C51.1752 151.184 50.7792 152.135 50.778 153.127V199.376C50.7792 200.368 51.1752 201.319 51.879 202.02C52.5828 202.722 53.5371 203.116 54.5324 203.117H100.938C101.933 203.117 102.888 202.722 103.592 202.021C104.296 201.319 104.691 200.368 104.692 199.376V153.127C104.691 152.135 104.296 151.184 103.592 150.482C102.888 149.781 101.933 149.386 100.938 149.386ZM104.039 199.376C104.038 200.195 103.711 200.981 103.13 201.56C102.548 202.14 101.76 202.465 100.938 202.466H54.5324C53.7104 202.465 52.9224 202.139 52.3411 201.56C51.7599 200.98 51.4327 200.195 51.4315 199.376V153.127C51.4327 152.308 51.7599 151.523 52.3411 150.944C52.9224 150.364 53.7104 150.038 54.5324 150.037H100.938C101.76 150.038 102.548 150.364 103.13 150.943C103.711 151.522 104.038 152.308 104.039 153.127V199.376ZM68.22 202.466L68.1514 203.117H87.5834C87.6389 202.896 87.6944 202.678 87.7565 202.466H68.22Z" fill="#00332B"/>
<path d="M163.22 149.386H116.815C115.819 149.387 114.865 149.782 114.161 150.483C113.457 151.184 113.061 152.135 113.06 153.127V199.376C113.061 200.368 113.457 201.319 114.161 202.02C114.865 202.722 115.819 203.116 116.815 203.117H163.22C164.216 203.117 165.17 202.722 165.874 202.021C166.578 201.319 166.974 200.368 166.974 199.376V153.127C166.974 152.135 166.578 151.184 165.874 150.482C165.17 149.781 164.216 149.386 163.22 149.386ZM166.321 199.376C166.32 200.195 165.993 200.981 165.412 201.56C164.831 202.14 164.042 202.465 163.22 202.466H116.815C115.993 202.465 115.205 202.139 114.623 201.56C114.042 200.98 113.715 200.195 113.714 199.376V153.127C113.715 152.308 114.042 151.523 114.623 150.944C115.205 150.364 115.993 150.038 116.815 150.037H163.22C164.042 150.038 164.831 150.364 165.412 150.943C165.993 151.522 166.32 152.308 166.321 153.127V199.376ZM125.385 202.466C125.425 202.606 125.467 202.746 125.513 202.886L125.431 203.117H141.658C141.674 202.899 141.687 202.681 141.703 202.466H125.385Z" fill="#00332B"/>
<path d="M225.506 149.386H179.1C178.105 149.386 177.15 149.781 176.446 150.482C175.742 151.184 175.346 152.135 175.346 153.127V199.376C175.346 200.368 175.742 201.319 176.446 202.021C177.15 202.722 178.105 203.117 179.1 203.117H225.506C226.501 203.116 227.455 202.722 228.159 202.02C228.863 201.319 229.259 200.368 229.26 199.376V153.127C229.259 152.135 228.863 151.184 228.159 150.483C227.455 149.782 226.501 149.387 225.506 149.386ZM228.606 199.376C228.605 200.195 228.278 200.98 227.697 201.56C227.116 202.139 226.328 202.465 225.506 202.466H179.1C178.278 202.465 177.49 202.14 176.908 201.56C176.327 200.981 176 200.195 175.999 199.376V153.127C176 152.308 176.327 151.522 176.908 150.943C177.49 150.364 178.278 150.038 179.1 150.037H225.506C226.328 150.038 227.116 150.364 227.697 150.944C228.278 151.523 228.605 152.308 228.606 153.127V199.376ZM203.473 202.466C203.456 202.681 203.44 202.899 203.424 203.117H217.503C217.53 202.902 217.559 202.684 217.585 202.466H203.473Z" fill="#00332B"/>
<path d="M193.933 222.005H86.1048C85.4115 222.005 84.7466 221.731 84.2564 221.242C83.7662 220.754 83.4908 220.091 83.4908 219.4C83.4908 218.709 83.7662 218.047 84.2564 217.558C84.7466 217.069 85.4115 216.795 86.1048 216.795H193.933C194.626 216.795 195.291 217.069 195.781 217.558C196.272 218.047 196.547 218.709 196.547 219.4C196.547 220.091 196.272 220.754 195.781 221.242C195.291 221.731 194.626 222.005 193.933 222.005Z" fill="#CCCCCC"/>
<path d="M163.709 135.708H116.329C115.636 135.708 114.971 135.434 114.481 134.945C113.991 134.457 113.715 133.794 113.715 133.103C113.715 132.412 113.991 131.75 114.481 131.261C114.971 130.773 115.636 130.498 116.329 130.498H163.709C164.402 130.498 165.067 130.773 165.557 131.261C166.047 131.75 166.323 132.412 166.323 133.103C166.323 133.794 166.047 134.457 165.557 134.945C165.067 135.434 164.402 135.708 163.709 135.708Z" fill="#25A18E"/>
<path d="M82.4679 177.546C82.7397 177.813 83.099 177.973 83.4799 177.998C83.8608 178.022 84.2377 177.908 84.5415 177.678C86.4329 176.281 88.0934 174.541 89.0761 172.42C90.2021 169.989 90.3277 167.006 88.9701 164.696C87.8224 162.742 85.7959 161.482 83.7761 160.447C82.9918 160.006 82.1471 159.682 81.2686 159.484C80.3808 159.289 79.4516 159.438 78.6704 159.902C78.2883 160.141 77.9872 160.489 77.8064 160.901C77.6257 161.313 77.5738 161.769 77.6573 162.211C76.6871 161.108 75.4445 160.276 74.0526 159.799C73.1761 159.458 72.2164 159.388 71.2996 159.6C70.0179 159.963 69.0822 161.098 68.5704 162.324C68.1565 163.256 68.0136 164.286 68.1579 165.295C68.2339 165.797 68.4147 166.278 68.6889 166.706C68.963 167.135 69.3243 167.501 69.7494 167.781C70.8091 168.435 72.161 168.388 73.378 168.121C74.595 167.854 75.7731 167.389 77.0136 167.272C78.2541 167.154 79.6356 167.463 80.3906 168.451C80.9222 169.147 81.0588 170.056 81.1781 170.922L81.7989 175.429C81.8496 176.081 82.0167 176.718 82.2922 177.312C82.34 177.397 82.3991 177.476 82.4679 177.546Z" fill="#2F2E41"/>
</g>
<defs>
<clipPath id="clip0_13_417">
<rect width="204.04" height="200" fill="white" transform="translate(38 40)"/>
</clipPath>
</defs>
</svg>
